<svg xmlns="http://www.w3.org/2000/svg" width="485" height="258" viewBox="0 0 485 258">
  <g id="Grupo_1110533" data-name="Grupo 1110533" transform="translate(-810.152 -1806.999)">
    <rect id="Rectángulo_402335" data-name="Rectángulo 402335" width="485" height="258" transform="translate(810.152 1806.999)" fill="#f9f7f4"/>
    <g id="Grupo_1110560" data-name="Grupo 1110560" transform="translate(10223.152 10028.999)">
      <g id="Trazado_903576" data-name="Trazado 903576" transform="translate(-9282 -8149)" fill="#fff">
        <path d="M 222.4245758056641 50.5 L 0.6492031812667847 50.5 L 5.262722015380859 33.032470703125 L 5.29747200012207 32.90094375610352 L 5.260777950286865 32.76997375488281 L 0.5 15.76730918884277 L 0.5 0.5 L 222.4239044189453 0.5 L 218.8956146240234 25.32416725158691 L 218.8856658935547 25.39425086975098 L 218.8955230712891 25.46430587768555 L 222.4245758056641 50.5 Z" stroke="none"/>
        <path d="M 1 1 L 1 15.69857025146484 L 5.81561279296875 32.89711761474609 L 1.298416137695312 50 L 221.8491516113281 50 L 218.3806457519531 25.39394187927246 L 221.8478088378906 1 L 1 1 M 0 0 L 223 0 L 219.390625 25.39452934265137 L 223 51 L 0 51 L 4.779296875 32.90479278564453 L 0 15.83594131469727 L 0 0 Z" stroke="none" fill="#1a2f50"/>
      </g>
      <path id="Trazado_904302" data-name="Trazado 904302" d="M6.877-4.067H2.939V0H.889V-9.953h6.48v1.661H2.939v2.57H6.877ZM12.482,0a2.194,2.194,0,0,1-.2-.663,2.39,2.39,0,0,1-1.866.8,2.626,2.626,0,0,1-1.8-.629A2.023,2.023,0,0,1,7.9-2.078a2.09,2.09,0,0,1,.872-1.8,4.3,4.3,0,0,1,2.519-.636H12.2v-.424a1.219,1.219,0,0,0-.263-.82,1.035,1.035,0,0,0-.831-.308,1.177,1.177,0,0,0-.783.239.813.813,0,0,0-.284.656H8.066a1.984,1.984,0,0,1,.4-1.189,2.621,2.621,0,0,1,1.121-.858,4.086,4.086,0,0,1,1.627-.311,3.228,3.228,0,0,1,2.17.687,2.4,2.4,0,0,1,.8,1.931v3.206a3.536,3.536,0,0,0,.294,1.593V0ZM10.849-1.374a1.7,1.7,0,0,0,.807-.195,1.28,1.28,0,0,0,.547-.523V-3.363h-.738q-1.483,0-1.579,1.025l-.007.116a.791.791,0,0,0,.26.608A1.009,1.009,0,0,0,10.849-1.374ZM17.787,0H15.8V-10.5h1.982Zm3.992-9.215V-7.4h1.265v1.449H21.779v3.691a.881.881,0,0,0,.157.588.79.79,0,0,0,.6.178,3.151,3.151,0,0,0,.581-.048v1.5a4.067,4.067,0,0,1-1.2.178,1.886,1.886,0,0,1-2.119-2.1V-5.947h-1.08V-7.4H19.8V-9.215ZM28.431,0a2.194,2.194,0,0,1-.2-.663,2.39,2.39,0,0,1-1.866.8,2.626,2.626,0,0,1-1.8-.629,2.023,2.023,0,0,1-.714-1.586,2.09,2.09,0,0,1,.872-1.8,4.3,4.3,0,0,1,2.519-.636h.909v-.424a1.219,1.219,0,0,0-.263-.82,1.035,1.035,0,0,0-.831-.308,1.177,1.177,0,0,0-.783.239.813.813,0,0,0-.284.656H24.015a1.984,1.984,0,0,1,.4-1.189,2.621,2.621,0,0,1,1.121-.858,4.086,4.086,0,0,1,1.627-.311,3.228,3.228,0,0,1,2.17.687,2.4,2.4,0,0,1,.8,1.931v3.206a3.536,3.536,0,0,0,.294,1.593V0ZM26.8-1.374a1.7,1.7,0,0,0,.807-.195,1.28,1.28,0,0,0,.547-.523V-3.363h-.738q-1.483,0-1.579,1.025l-.007.116a.791.791,0,0,0,.26.608A1.009,1.009,0,0,0,26.8-1.374Zm8.032-2.379A4.457,4.457,0,0,1,35.6-6.508a2.517,2.517,0,0,1,2.123-1.025,2.265,2.265,0,0,1,1.784.807V-10.5h1.982V0H39.71l-.1-.786a2.325,2.325,0,0,1-1.9.923,2.511,2.511,0,0,1-2.1-1.029A4.6,4.6,0,0,1,34.829-3.753Zm1.976.141a2.936,2.936,0,0,0,.362,1.6,1.179,1.179,0,0,0,1.053.556,1.321,1.321,0,0,0,1.292-.776V-5.164a1.3,1.3,0,0,0-1.278-.776Q36.8-5.94,36.8-3.612ZM46.43.137a3.631,3.631,0,0,1-2.649-1,3.548,3.548,0,0,1-1.022-2.659v-.191A4.468,4.468,0,0,1,43.189-5.7a3.161,3.161,0,0,1,1.22-1.354,3.425,3.425,0,0,1,1.8-.475,3.07,3.07,0,0,1,2.389.957,3.889,3.889,0,0,1,.872,2.714v.807h-4.71a1.835,1.835,0,0,0,.578,1.162,1.746,1.746,0,0,0,1.22.438,2.132,2.132,0,0,0,1.784-.827L49.314-1.2a2.966,2.966,0,0,1-1.2.981A3.947,3.947,0,0,1,46.43.137ZM46.2-5.94a1.234,1.234,0,0,0-.954.4,2.062,2.062,0,0,0-.468,1.14H47.53V-4.56a1.471,1.471,0,0,0-.355-1.02A1.274,1.274,0,0,0,46.2-5.94ZM54.619,0V-5.947h-1.1V-7.4h1.1v-.629a2.553,2.553,0,0,1,.714-1.931,2.767,2.767,0,0,1,2-.687,4.656,4.656,0,0,1,1,.136l-.021,1.519a2.519,2.519,0,0,0-.6-.062Q56.6-9.051,56.6-8v.6h1.47v1.449H56.6V0Zm8.907-.752A2.477,2.477,0,0,1,61.5.137a2.337,2.337,0,0,1-1.815-.684,2.918,2.918,0,0,1-.639-2V-7.4h1.976v4.784q0,1.157,1.053,1.157a1.426,1.426,0,0,0,1.381-.7V-7.4H65.44V0H63.581Zm7.41-1.292a.637.637,0,0,0-.359-.571,4.077,4.077,0,0,0-1.152-.373q-2.639-.554-2.639-2.242A2.032,2.032,0,0,1,67.6-6.874a3.3,3.3,0,0,1,2.136-.66,3.547,3.547,0,0,1,2.252.663,2.09,2.09,0,0,1,.844,1.723H70.861a.956.956,0,0,0-.273-.7,1.157,1.157,0,0,0-.854-.277,1.182,1.182,0,0,0-.772.226.712.712,0,0,0-.273.574A.609.609,0,0,0,69-4.8a3.2,3.2,0,0,0,1.049.349,8.571,8.571,0,0,1,1.244.332,2.044,2.044,0,0,1,1.565,1.989,1.929,1.929,0,0,1-.868,1.637,3.745,3.745,0,0,1-2.242.625A3.912,3.912,0,0,1,68.1-.195,2.77,2.77,0,0,1,66.965-1.1a2.113,2.113,0,0,1-.41-1.248h1.873a1.031,1.031,0,0,0,.39.807,1.546,1.546,0,0,0,.971.28,1.43,1.43,0,0,0,.858-.215A.67.67,0,0,0,70.937-2.044ZM76.214,0H74.231V-7.4h1.982Zm-2.1-9.311a.973.973,0,0,1,.3-.731,1.117,1.117,0,0,1,.81-.287,1.12,1.12,0,0,1,.807.287.967.967,0,0,1,.3.731.97.97,0,0,1-.3.738,1.122,1.122,0,0,1-.8.287,1.122,1.122,0,0,1-.8-.287A.97.97,0,0,1,74.115-9.311Zm3.418,5.544a4.387,4.387,0,0,1,.424-1.962,3.1,3.1,0,0,1,1.22-1.333,3.56,3.56,0,0,1,1.849-.472,3.368,3.368,0,0,1,2.444.916,3.676,3.676,0,0,1,1.056,2.488l.014.506a3.866,3.866,0,0,1-.95,2.731A3.3,3.3,0,0,1,81.04.137,3.319,3.319,0,0,1,78.487-.889a3.934,3.934,0,0,1-.954-2.789Zm1.976.14a2.765,2.765,0,0,0,.4,1.612,1.308,1.308,0,0,0,1.135.558,1.311,1.311,0,0,0,1.121-.551,3.025,3.025,0,0,0,.4-1.763,2.737,2.737,0,0,0-.4-1.6,1.311,1.311,0,0,0-1.135-.568,1.29,1.29,0,0,0-1.121.565A3.076,3.076,0,0,0,79.509-3.626ZM81.416-10.5h2.153L81.676-8.381H80.069Zm6.159,3.1.062.854a2.582,2.582,0,0,1,2.126-.991,2.146,2.146,0,0,1,1.75.69A3.221,3.221,0,0,1,92.1-4.778V0H90.125V-4.741a1.287,1.287,0,0,0-.273-.915,1.222,1.222,0,0,0-.909-.284,1.359,1.359,0,0,0-1.251.713V0H85.716V-7.4Z" transform="translate(-9268 -8189)" fill="#12263f"/>
      <path id="Trazado_904303" data-name="Trazado 904303" d="M6.877-4.067H2.939V0H.889V-9.953h6.48v1.661H2.939v2.57H6.877ZM12.482,0a2.194,2.194,0,0,1-.2-.663,2.39,2.39,0,0,1-1.866.8,2.626,2.626,0,0,1-1.8-.629A2.023,2.023,0,0,1,7.9-2.078a2.09,2.09,0,0,1,.872-1.8,4.3,4.3,0,0,1,2.519-.636H12.2v-.424a1.219,1.219,0,0,0-.263-.82,1.035,1.035,0,0,0-.831-.308,1.177,1.177,0,0,0-.783.239.813.813,0,0,0-.284.656H8.066a1.984,1.984,0,0,1,.4-1.189,2.621,2.621,0,0,1,1.121-.858,4.086,4.086,0,0,1,1.627-.311,3.228,3.228,0,0,1,2.17.687,2.4,2.4,0,0,1,.8,1.931v3.206a3.536,3.536,0,0,0,.294,1.593V0ZM10.849-1.374a1.7,1.7,0,0,0,.807-.195,1.28,1.28,0,0,0,.547-.523V-3.363h-.738q-1.483,0-1.579,1.025l-.007.116a.791.791,0,0,0,.26.608A1.009,1.009,0,0,0,10.849-1.374ZM17.787,0H15.8V-10.5h1.982Zm3.992-9.215V-7.4h1.265v1.449H21.779v3.691a.881.881,0,0,0,.157.588.79.79,0,0,0,.6.178,3.151,3.151,0,0,0,.581-.048v1.5a4.067,4.067,0,0,1-1.2.178,1.886,1.886,0,0,1-2.119-2.1V-5.947h-1.08V-7.4H19.8V-9.215ZM28.431,0a2.194,2.194,0,0,1-.2-.663,2.39,2.39,0,0,1-1.866.8,2.626,2.626,0,0,1-1.8-.629,2.023,2.023,0,0,1-.714-1.586,2.09,2.09,0,0,1,.872-1.8,4.3,4.3,0,0,1,2.519-.636h.909v-.424a1.219,1.219,0,0,0-.263-.82,1.035,1.035,0,0,0-.831-.308,1.177,1.177,0,0,0-.783.239.813.813,0,0,0-.284.656H24.015a1.984,1.984,0,0,1,.4-1.189,2.621,2.621,0,0,1,1.121-.858,4.086,4.086,0,0,1,1.627-.311,3.228,3.228,0,0,1,2.17.687,2.4,2.4,0,0,1,.8,1.931v3.206a3.536,3.536,0,0,0,.294,1.593V0ZM26.8-1.374a1.7,1.7,0,0,0,.807-.195,1.28,1.28,0,0,0,.547-.523V-3.363h-.738q-1.483,0-1.579,1.025l-.007.116a.791.791,0,0,0,.26.608A1.009,1.009,0,0,0,26.8-1.374Zm8.032-2.379A4.457,4.457,0,0,1,35.6-6.508a2.517,2.517,0,0,1,2.123-1.025,2.265,2.265,0,0,1,1.784.807V-10.5h1.982V0H39.71l-.1-.786a2.325,2.325,0,0,1-1.9.923,2.511,2.511,0,0,1-2.1-1.029A4.6,4.6,0,0,1,34.829-3.753Zm1.976.141a2.936,2.936,0,0,0,.362,1.6,1.179,1.179,0,0,0,1.053.556,1.321,1.321,0,0,0,1.292-.776V-5.164a1.3,1.3,0,0,0-1.278-.776Q36.8-5.94,36.8-3.612ZM46.43.137a3.631,3.631,0,0,1-2.649-1,3.548,3.548,0,0,1-1.022-2.659v-.191A4.468,4.468,0,0,1,43.189-5.7a3.161,3.161,0,0,1,1.22-1.354,3.425,3.425,0,0,1,1.8-.475,3.07,3.07,0,0,1,2.389.957,3.889,3.889,0,0,1,.872,2.714v.807h-4.71a1.835,1.835,0,0,0,.578,1.162,1.746,1.746,0,0,0,1.22.438,2.132,2.132,0,0,0,1.784-.827L49.314-1.2a2.966,2.966,0,0,1-1.2.981A3.947,3.947,0,0,1,46.43.137ZM46.2-5.94a1.234,1.234,0,0,0-.954.4,2.062,2.062,0,0,0-.468,1.14H47.53V-4.56a1.471,1.471,0,0,0-.355-1.02A1.274,1.274,0,0,0,46.2-5.94ZM1.3,15V9.053H.2V7.6H1.3V6.975a2.553,2.553,0,0,1,.714-1.931,2.767,2.767,0,0,1,2-.687,4.656,4.656,0,0,1,1,.136L5,6.011a2.519,2.519,0,0,0-.6-.062Q3.281,5.949,3.281,7v.6h1.47V9.053H3.281V15Zm8.907-.752a2.477,2.477,0,0,1-2.023.889,2.337,2.337,0,0,1-1.815-.684,2.918,2.918,0,0,1-.639-2V7.6H7.7v4.784q0,1.157,1.053,1.157a1.426,1.426,0,0,0,1.381-.7V7.6H12.12V15H10.261Zm7.41-1.292a.637.637,0,0,0-.359-.571,4.077,4.077,0,0,0-1.152-.373q-2.639-.554-2.639-2.242a2.032,2.032,0,0,1,.817-1.644,3.3,3.3,0,0,1,2.136-.66,3.547,3.547,0,0,1,2.252.663,2.09,2.09,0,0,1,.844,1.723H17.541a.956.956,0,0,0-.273-.7,1.157,1.157,0,0,0-.854-.277,1.182,1.182,0,0,0-.772.226.712.712,0,0,0-.273.574.609.609,0,0,0,.311.53,3.2,3.2,0,0,0,1.049.349,8.571,8.571,0,0,1,1.244.332,2.044,2.044,0,0,1,1.565,1.989,1.929,1.929,0,0,1-.868,1.637,3.745,3.745,0,0,1-2.242.625,3.912,3.912,0,0,1-1.651-.332,2.77,2.77,0,0,1-1.131-.909,2.113,2.113,0,0,1-.41-1.248h1.873a1.031,1.031,0,0,0,.39.807,1.546,1.546,0,0,0,.971.28,1.43,1.43,0,0,0,.858-.215A.67.67,0,0,0,17.616,12.956ZM22.894,15H20.911V7.6h1.982Zm-2.1-9.311a.973.973,0,0,1,.3-.731,1.281,1.281,0,0,1,1.617,0,.967.967,0,0,1,.3.731.97.97,0,0,1-.3.738,1.267,1.267,0,0,1-1.606,0A.97.97,0,0,1,20.795,5.689Zm3.418,5.544a4.387,4.387,0,0,1,.424-1.962,3.1,3.1,0,0,1,1.22-1.333,3.56,3.56,0,0,1,1.849-.472,3.368,3.368,0,0,1,2.444.916,3.676,3.676,0,0,1,1.056,2.488l.014.506a3.866,3.866,0,0,1-.95,2.731,3.3,3.3,0,0,1-2.55,1.029,3.319,3.319,0,0,1-2.553-1.025,3.934,3.934,0,0,1-.954-2.789Zm1.976.14a2.765,2.765,0,0,0,.4,1.612,1.424,1.424,0,0,0,2.256.007,3.025,3.025,0,0,0,.4-1.763,2.737,2.737,0,0,0-.4-1.6,1.311,1.311,0,0,0-1.135-.568,1.29,1.29,0,0,0-1.121.565A3.076,3.076,0,0,0,26.188,11.374ZM28.1,4.5h2.153L28.355,6.619H26.749Zm6.159,3.1.062.854a2.582,2.582,0,0,1,2.126-.991,2.146,2.146,0,0,1,1.75.69,3.221,3.221,0,0,1,.588,2.064V15H36.8V10.259a1.287,1.287,0,0,0-.273-.915,1.222,1.222,0,0,0-.909-.284,1.359,1.359,0,0,0-1.251.713V15H32.4V7.6Z" transform="translate(-9274 -8003)" fill="#12263f"/>
      <g id="Elipse_11783" data-name="Elipse 11783" transform="translate(-9192 -8127)" fill="#fff" stroke="#1a2f50" stroke-width="1">
        <ellipse cx="10" cy="7.5" rx="10" ry="7.5" stroke="none"/>
        <ellipse cx="10" cy="7.5" rx="9.5" ry="7" fill="none"/>
      </g>
      <g id="Elipse_11784" data-name="Elipse 11784" transform="translate(-9179 -8128)" fill="#fff" stroke="#1a2f50" stroke-width="1">
        <circle cx="7.5" cy="7.5" r="7.5" stroke="none"/>
        <circle cx="7.5" cy="7.5" r="7" fill="none"/>
      </g>
      <g id="Elipse_11785" data-name="Elipse 11785" transform="translate(-9182 -8116)" fill="#fff" stroke="#1a2f50" stroke-width="1">
        <ellipse cx="11.5" cy="6" rx="11.5" ry="6" stroke="none"/>
        <ellipse cx="11.5" cy="6" rx="11" ry="5.5" fill="none"/>
      </g>
      <g id="Elipse_11776" data-name="Elipse 11776" transform="translate(-9209 -8153)" fill="#fff" stroke="#1a2f50" stroke-width="1">
        <ellipse cx="10" cy="7.5" rx="10" ry="7.5" stroke="none"/>
        <ellipse cx="10" cy="7.5" rx="9.5" ry="7" fill="none"/>
      </g>
      <g id="Elipse_11777" data-name="Elipse 11777" transform="translate(-9192 -8155)" fill="#fff" stroke="#1a2f50" stroke-width="1">
        <ellipse cx="10" cy="7.5" rx="10" ry="7.5" stroke="none"/>
        <ellipse cx="10" cy="7.5" rx="9.5" ry="7" fill="none"/>
      </g>
      <g id="Elipse_11778" data-name="Elipse 11778" transform="translate(-9175 -8156)" fill="#fff" stroke="#1a2f50" stroke-width="1">
        <ellipse cx="13" cy="8.5" rx="13" ry="8.5" stroke="none"/>
        <ellipse cx="13" cy="8.5" rx="12.5" ry="8" fill="none"/>
      </g>
      <g id="Elipse_11781" data-name="Elipse 11781" transform="translate(-9176 -8142)" fill="#fff" stroke="#1a2f50" stroke-width="1">
        <ellipse cx="13" cy="8.5" rx="13" ry="8.5" stroke="none"/>
        <ellipse cx="13" cy="8.5" rx="12.5" ry="8" fill="none"/>
      </g>
      <g id="Elipse_11782" data-name="Elipse 11782" transform="translate(-9164 -8142)" fill="#fff" stroke="#1a2f50" stroke-width="1">
        <ellipse cx="13" cy="8.5" rx="13" ry="8.5" stroke="none"/>
        <ellipse cx="13" cy="8.5" rx="12.5" ry="8" fill="none"/>
      </g>
      <g id="Elipse_11779" data-name="Elipse 11779" transform="translate(-9154 -8150)" fill="#fff" stroke="#1a2f50" stroke-width="1">
        <ellipse cx="12" cy="6" rx="12" ry="6" stroke="none"/>
        <ellipse cx="12" cy="6" rx="11.5" ry="5.5" fill="none"/>
      </g>
      <g id="Elipse_11780" data-name="Elipse 11780" transform="translate(-9207 -8144)" fill="#fff" stroke="#1a2f50" stroke-width="1">
        <ellipse cx="20.5" cy="8" rx="20.5" ry="8" stroke="none"/>
        <ellipse cx="20.5" cy="8" rx="20" ry="7.5" fill="none"/>
      </g>
      <g id="Elipse_11786" data-name="Elipse 11786" transform="translate(-9182 -8109)" fill="#fff" stroke="#1a2f50" stroke-width="1">
        <ellipse cx="10" cy="7.5" rx="10" ry="7.5" stroke="none"/>
        <ellipse cx="10" cy="7.5" rx="9.5" ry="7" fill="none"/>
      </g>
      <g id="Grupo_1110554" data-name="Grupo 1110554" transform="translate(-9205.619 -8112)">
        <path id="Polígono_6" data-name="Polígono 6" d="M3.424,0,6.847,5.135H0Z" transform="translate(21.042) rotate(90)" fill="#b05e32"/>
        <line id="Línea_563" data-name="Línea 563" x2="17.618" transform="translate(0 3.424)" fill="none" stroke="#b05e32" stroke-width="1"/>
      </g>
      <g id="Grupo_1110555" data-name="Grupo 1110555" transform="translate(-9218.521 -8130.347)">
        <path id="Polígono_6-2" data-name="Polígono 6" d="M3.424,0,6.847,5.135H0Z" transform="translate(21.042) rotate(90)" fill="#b05e32"/>
        <line id="Línea_563-2" data-name="Línea 563" x2="17.618" transform="translate(0 3.424)" fill="none" stroke="#b05e32" stroke-width="1"/>
      </g>
      <g id="Grupo_1110556" data-name="Grupo 1110556" transform="translate(-9229.043 -8145.5)">
        <path id="Polígono_6-3" data-name="Polígono 6" d="M3.424,0,6.847,5.135H0Z" transform="translate(21.042) rotate(90)" fill="#b05e32"/>
        <line id="Línea_563-3" data-name="Línea 563" x2="17.618" transform="translate(0 3.424)" fill="none" stroke="#b05e32" stroke-width="1"/>
      </g>
      <g id="Grupo_1110557" data-name="Grupo 1110557" transform="translate(-9241.724 -8162.847)">
        <path id="Polígono_6-4" data-name="Polígono 6" d="M3.424,0,6.847,5.135H0Z" transform="translate(21.042) rotate(90)" fill="#b05e32"/>
        <line id="Línea_563-4" data-name="Línea 563" x2="17.618" transform="translate(0 3.424)" fill="none" stroke="#b05e32" stroke-width="1"/>
      </g>
      <g id="Grupo_1110558" data-name="Grupo 1110558" transform="translate(-9182.521 -8148.823) rotate(60)">
        <path id="Polígono_6-5" data-name="Polígono 6" d="M3.424,0,6.847,5.135H0Z" transform="translate(21.042) rotate(90)" fill="#b46a43"/>
        <line id="Línea_563-5" data-name="Línea 563" x2="61.005" transform="translate(-43.387 3.424)" fill="none" stroke="#b05e32" stroke-width="1"/>
      </g>
      <g id="Grupo_1110559" data-name="Grupo 1110559" transform="translate(-9182.021 -8169.247) rotate(60)">
        <path id="Polígono_6-6" data-name="Polígono 6" d="M3.424,0,6.847,5.135H0Z" transform="translate(21.042) rotate(90)" fill="#b46a43"/>
        <path id="Trazado_903577" data-name="Trazado 903577" d="M-19.408-.079,17.618,0" transform="translate(0 3.424)" fill="#b46a43" stroke="#b05e32" stroke-width="1"/>
      </g>
      <path id="Trazado_903578" data-name="Trazado 903578" d="M-48.957,59.078l90.39-8.918" transform="translate(-9182.021 -8169.247) rotate(60)" fill="none" stroke="#b05e32" stroke-width="1.5"/>
      <g id="Rectángulo_402411" data-name="Rectángulo 402411" transform="translate(-9269 -8056)" fill="#fff" stroke="#1a2f50" stroke-linecap="round" stroke-linejoin="round" stroke-width="1">
        <rect width="96" height="16" stroke="none"/>
        <rect x="0.5" y="0.5" width="95" height="15" fill="none"/>
      </g>
      <g id="Rectángulo_402412" data-name="Rectángulo 402412" transform="translate(-9200.088 -8006)" fill="#fff" stroke="#1a2f50" stroke-linecap="round" stroke-linejoin="round" stroke-width="1">
        <rect width="96" height="16" stroke="none"/>
        <rect x="0.5" y="0.5" width="95" height="15" fill="none"/>
      </g>
      <path id="Trazado_903579" data-name="Trazado 903579" d="M-9461.823-8101.574c-.135.539,0,15.217,0,15.217l-28.684,25.721v-15.352Z" transform="translate(317 20)" fill="#fff" stroke="#1a2f50" stroke-linecap="round" stroke-linejoin="round" stroke-width="1"/>
      <path id="Trazado_903588" data-name="Trazado 903588" d="M-9461.823-8101.574c-.135.539,0,15.217,0,15.217l-28.684,25.721v-15.352Z" transform="translate(385.912 70)" fill="#fff" stroke="#1a2f50" stroke-linecap="round" stroke-linejoin="round" stroke-width="1"/>
      <path id="Trazado_903580" data-name="Trazado 903580" d="M-9585.538-8075.539l28.932-25.867h94.592l-28.494,25.282" transform="translate(317 20)" fill="#fff" stroke="#1a2f50" stroke-linecap="round" stroke-linejoin="round" stroke-width="1"/>
      <path id="Trazado_903584" data-name="Trazado 903584" d="M-9585.538-8075.539l28.932-25.867h94.592l-28.494,25.282" transform="translate(385.912 70)" fill="#fff" stroke="#1a2f50" stroke-linecap="round" stroke-linejoin="round" stroke-width="1"/>
      <path id="Trazado_903581" data-name="Trazado 903581" d="M-9520.808-8101.405l-28.28,25.687s2.562,14.749,9.562,15.082,15.352-15.082,15.352-15.082l26.934-25.687" transform="translate(317 20)" fill="#fff" stroke="#1a2f50" stroke-linecap="round" stroke-linejoin="round" stroke-width="1"/>
      <path id="Trazado_903585" data-name="Trazado 903585" d="M-9520.808-8101.405l-28.28,25.687s2.562,14.749,9.562,15.082,15.352-15.082,15.352-15.082l26.934-25.687" transform="translate(385.912 70)" fill="#fff" stroke="#1a2f50" stroke-linecap="round" stroke-linejoin="round" stroke-width="1"/>
      <path id="Trazado_903582" data-name="Trazado 903582" d="M-9498.308-8101.113s-8.872-1.765-12.215-1.94-10.285,1.94-10.285,1.94" transform="translate(317 20)" fill="#fff" stroke="#1a2f50" stroke-linecap="round" stroke-linejoin="round" stroke-width="1"/>
      <path id="Trazado_903586" data-name="Trazado 903586" d="M-9498.308-8101.113s-8.872-1.765-12.215-1.94-10.285,1.94-10.285,1.94" transform="translate(385.912 70)" fill="#fff" stroke="#1a2f50" stroke-linecap="round" stroke-linejoin="round" stroke-width="1"/>
      <path id="Trazado_903583" data-name="Trazado 903583" d="M-9549.088-8075.539h25.486" transform="translate(317 20)" fill="none" stroke="#1a2f50" stroke-linecap="round" stroke-width="1"/>
      <path id="Trazado_903587" data-name="Trazado 903587" d="M-9549.088-8075.539h25.486" transform="translate(385.912 70)" fill="none" stroke="#1a2f50" stroke-linecap="round" stroke-width="1"/>
      <line id="Línea_595" data-name="Línea 595" x1="6" y2="26" transform="translate(-9237.5 -8043.5)" fill="none" stroke="#b05e32" stroke-linecap="round" stroke-width="1"/>
      <line id="Línea_596" data-name="Línea 596" x1="48.644" y1="4.5" transform="translate(-9216.144 -8002)" fill="none" stroke="#b05e32" stroke-linecap="round" stroke-width="1"/>
      <path id="Trazado_903589" data-name="Trazado 903589" d="M-9479-8019.75c2.562-.3,5.679-2.678,9.313,0s1.385,4.954,5.886,4.954" transform="translate(317.63 20)" fill="none" stroke="#1a2f50" stroke-linecap="round" stroke-linejoin="round" stroke-width="1"/>
      <path id="Trazado_903590" data-name="Trazado 903590" d="M-9459.531-8020s-6.97-.573-10.619,2.578a6.91,6.91,0,0,1-7.134,1.575" transform="translate(317.54 20)" fill="none" stroke="#1a2f50" stroke-linecap="round" stroke-linejoin="round" stroke-width="1"/>
    </g>
  </g>
</svg>
