<svg xmlns="http://www.w3.org/2000/svg" width="485" height="258" viewBox="0 0 485 258">
  <g id="Grupo_1110562" data-name="Grupo 1110562" transform="translate(9201 7151)">
    <rect id="Rectángulo_402404" data-name="Rectángulo 402404" width="485" height="258" transform="translate(-9201 -7151)" fill="#f9f7f4"/>
    <g id="Grupo_1110561" data-name="Grupo 1110561" transform="translate(304 1076.746)">
      <g id="Rectángulo_402413" data-name="Rectángulo 402413" transform="translate(-9408 -8081)" fill="#fff" stroke="#1a2f50" stroke-linecap="round" stroke-linejoin="round" stroke-width="1">
        <rect width="113" height="37" stroke="none"/>
        <rect x="0.5" y="0.5" width="112" height="36" fill="none"/>
      </g>
      <g id="Rectángulo_402414" data-name="Rectángulo 402414" transform="translate(-9263 -8116)" fill="#fff" stroke="#1a2f50" stroke-linecap="round" stroke-linejoin="round" stroke-width="1">
        <rect width="113" height="37" stroke="none"/>
        <rect x="0.5" y="0.5" width="112" height="36" fill="none"/>
      </g>
      <path id="Trazado_903592" data-name="Trazado 903592" d="M-9295-8081l32.787-34.645v36.413l-32.787,34.82Z" fill="#fff" stroke="#1a2f50" stroke-linecap="round" stroke-linejoin="round" stroke-width="1"/>
      <path id="Trazado_903593" data-name="Trazado 903593" d="M-9295-8081.755l32.787-33.889v35.619L-9295-8045.964Z" transform="translate(145 -33.873)" fill="#fff" stroke="#1a2f50" stroke-linecap="round" stroke-linejoin="round" stroke-width="1"/>
      <path id="Trazado_903594" data-name="Trazado 903594" d="M-9408-8081l68.608-67.854h85.207s7.1-3.305,22.781-3.846a102.118,102.118,0,0,1,29.882,3.846h84.024l-32.841,33.728h-112.13L-9295.013-8081Z" fill="#fff" stroke="#1a2f50" stroke-linecap="round" stroke-linejoin="round" stroke-width="1"/>
      <path id="Trazado_903595" data-name="Trazado 903595" d="M-9324.895-8081l70.71-68.149" fill="#fff" stroke="#1a2f50" stroke-linecap="round" stroke-width="1"/>
      <path id="Trazado_903596" data-name="Trazado 903596" d="M-9234.657-8115.76l31.881-32.346,1.028-1.043" transform="translate(0 0.685)" fill="#fff" stroke="#1a2f50" stroke-linecap="round" stroke-width="1"/>
      <path id="Trazado_903597" data-name="Trazado 903597" d="M-9297.722-8095.4c.91-.228,7.055-3.869,11.379-8.193" fill="none" stroke="#1a2f50" stroke-linecap="round" stroke-width="1"/>
      <path id="Trazado_903598" data-name="Trazado 903598" d="M-9275.874-8119.292s6.372-3.186,9.559-2.731" fill="none" stroke="#1a2f50" stroke-linecap="round" stroke-width="1"/>
      <path id="Trazado_903599" data-name="Trazado 903599" d="M-9241.964-8131.77l13.655-13.921" fill="none" stroke="#1a2f50" stroke-linecap="round" stroke-width="1"/>
      <path id="Trazado_903600" data-name="Trazado 903600" d="M-9213.743-8136.36a11.72,11.72,0,0,0-9.1,4.1" fill="none" stroke="#1a2f50" stroke-linecap="round" stroke-width="1"/>
      <path id="Trazado_903601" data-name="Trazado 903601" d="M-9263-8138.73s7.153,5.329,10.795-5.14" fill="none" stroke="#1a2f50" stroke-linecap="round" stroke-width="1"/>
      <path id="Trazado_903602" data-name="Trazado 903602" d="M-9295-8065.126s5.7,1.138,7.064-8.42" fill="none" stroke="#1a2f50" stroke-linecap="round" stroke-width="1"/>
      <path id="Trazado_903603" data-name="Trazado 903603" d="M-9282.929-8079.837s10.7.373,14.565-12.145" fill="none" stroke="#1a2f50" stroke-linecap="round" stroke-width="1"/>
      <path id="Trazado_903604" data-name="Trazado 903604" d="M-9264.039-8103.588s-3.869,4.1-3.642,6.372" fill="none" stroke="#1a2f50" stroke-linecap="round" stroke-width="1"/>
    </g>
  </g>
</svg>
