<svg xmlns="http://www.w3.org/2000/svg" width="485" height="258" viewBox="0 0 485 258">
  <g id="Grupo_1110564" data-name="Grupo 1110564" transform="translate(9201 6822)">
    <rect id="Rectángulo_402406" data-name="Rectángulo 402406" width="485" height="258" transform="translate(-9201 -6822)" fill="#f9f7f4"/>
    <g id="Grupo_1110563" data-name="Grupo 1110563" transform="translate(620.534 1549.07)">
      <path id="Trazado_904304" data-name="Trazado 904304" d="M8.524,4.585H5.681L4.464,13h-2L3.685,4.585H.882l.226-1.538H8.75Zm1.846,8.559a2.941,2.941,0,0,1-2.444-1.022,3.246,3.246,0,0,1-.584-2.608l.041-.273A4.681,4.681,0,0,1,8.678,6.5a3.563,3.563,0,0,1,2.635-1.036,2.476,2.476,0,0,1,2.133.916A3.235,3.235,0,0,1,13.9,8.837l-.15,1.032H9.338L9.324,9.9a1.712,1.712,0,0,0,.28,1.241,1.4,1.4,0,0,0,1.189.468,4.368,4.368,0,0,0,1.107-.123,8.222,8.222,0,0,0,1.053-.369l.308,1.258a4.694,4.694,0,0,1-1.241.54A5.794,5.794,0,0,1,10.37,13.144ZM11.088,7a1.279,1.279,0,0,0-.971.414,2.419,2.419,0,0,0-.561,1.09l.014.041h2.42l.027-.15a1.625,1.625,0,0,0-.123-1.029A.851.851,0,0,0,11.088,7ZM17.3,6.643a3.228,3.228,0,0,1,1.029-.868,2.667,2.667,0,0,1,1.261-.308,1.882,1.882,0,0,1,1.63.728,3.125,3.125,0,0,1,.311,2.273L20.877,13h-2l.656-4.525a1.662,1.662,0,0,0-.109-1.135.894.894,0,0,0-.786-.321,1.857,1.857,0,0,0-1.436.649L16.427,13h-2L15.5,5.6h1.859Zm9.386,4.307a.582.582,0,0,0-.236-.564,2.962,2.962,0,0,0-1.125-.414,4.068,4.068,0,0,1-1.859-.786,1.506,1.506,0,0,1-.479-1.429,2.4,2.4,0,0,1,1.032-1.63,3.678,3.678,0,0,1,2.242-.66A3.119,3.119,0,0,1,28.4,6.14,1.706,1.706,0,0,1,28.991,7.8l-.014.041H27.05a.891.891,0,0,0-.188-.728,1,1,0,0,0-.79-.277,1.276,1.276,0,0,0-.79.239.87.87,0,0,0-.366.588.576.576,0,0,0,.212.561,2.89,2.89,0,0,0,1.128.383,4.131,4.131,0,0,1,1.911.8,1.561,1.561,0,0,1,.468,1.459,2.336,2.336,0,0,1-1.083,1.644,4.129,4.129,0,0,1-2.348.625,3.026,3.026,0,0,1-2.211-.755,1.825,1.825,0,0,1-.6-1.7l.021-.041H24.24a.911.911,0,0,0,.27.861,1.442,1.442,0,0,0,.926.267,1.523,1.523,0,0,0,.868-.222A.848.848,0,0,0,26.688,10.949Zm5,2.051h-2l1.073-7.4h2Zm1.326-9.167h-2l.219-1.5h2Zm.554,5.4A4.6,4.6,0,0,1,34.88,6.506a3.731,3.731,0,0,1,2.71-1.039,2.8,2.8,0,0,1,2.393,1.06,3.528,3.528,0,0,1,.561,2.707l-.021.144A4.622,4.622,0,0,1,39.2,12.111a3.742,3.742,0,0,1-2.714,1.032,2.808,2.808,0,0,1-2.4-1.056,3.49,3.49,0,0,1-.547-2.71Zm1.969.144a3.017,3.017,0,0,0,.116,1.634,1.043,1.043,0,0,0,1.06.6,1.443,1.443,0,0,0,1.213-.619,3.5,3.5,0,0,0,.6-1.617l.021-.144a2.989,2.989,0,0,0-.126-1.617A1.041,1.041,0,0,0,37.365,7a1.436,1.436,0,0,0-1.213.629,3.481,3.481,0,0,0-.6,1.6Zm2.878-6.932h2.215l.014.041L38.493,4.264H36.839l-.014-.034Zm5.653,4.2a3.228,3.228,0,0,1,1.029-.868,2.667,2.667,0,0,1,1.261-.308,1.882,1.882,0,0,1,1.63.728A3.125,3.125,0,0,1,48.3,8.468L47.64,13h-2l.656-4.525a1.662,1.662,0,0,0-.109-1.135.894.894,0,0,0-.786-.321,1.857,1.857,0,0,0-1.436.649L43.189,13h-2l1.073-7.4h1.859ZM53.3,8.953a10.317,10.317,0,0,1,1.671-4.58,6.369,6.369,0,0,1,2.7-2.393l.041.007.219.991a6.043,6.043,0,0,0-1.808,2.16,11.1,11.1,0,0,0-1.138,3.8l-.021.178a9.8,9.8,0,0,0,.062,3.832,4.2,4.2,0,0,0,1.21,2.15l-.506.978h-.034a4.261,4.261,0,0,1-2.017-2.42,8.6,8.6,0,0,1-.4-4.553Zm9.844,1.429.041.007L66.8,3.047h2.6L67.963,13h-2l.978-6.788-.034-.007L63.465,13H62.111l-1.47-6.822H60.6L59.609,13h-2l1.442-9.953h2.618Zm9.14-.991L71.764,13h-2L71.21,3.047h3.808a3.45,3.45,0,0,1,2.553.882,2.568,2.568,0,0,1,.68,2.3,3.454,3.454,0,0,1-1.323,2.311,4.484,4.484,0,0,1-2.827.854Zm.226-1.538H74.32a1.834,1.834,0,0,0,1.928-1.613,1.523,1.523,0,0,0-.256-1.193,1.429,1.429,0,0,0-1.2-.461H72.98ZM82.708,13a2.6,2.6,0,0,1-.092-.509,4.572,4.572,0,0,1-.01-.591,3.412,3.412,0,0,1-.943.892,2.282,2.282,0,0,1-1.251.352,2.186,2.186,0,0,1-1.688-.6,1.894,1.894,0,0,1-.41-1.627A2.323,2.323,0,0,1,79.4,9.22a4.676,4.676,0,0,1,2.533-.588h1.114l.089-.588a1.049,1.049,0,0,0-.161-.834.968.968,0,0,0-.79-.287,1.244,1.244,0,0,0-.779.236.935.935,0,0,0-.362.646H79.119l-.007-.041a2.233,2.233,0,0,1,1.053-1.63,4.026,4.026,0,0,1,2.358-.667,2.923,2.923,0,0,1,2.041.673,2.037,2.037,0,0,1,.564,1.917l-.444,3.056a5.206,5.206,0,0,0-.065.984,4.9,4.9,0,0,0,.12.9Zm-1.593-1.333a1.906,1.906,0,0,0,.964-.263,1.723,1.723,0,0,0,.656-.6l.15-1.039H81.765a1.508,1.508,0,0,0-1,.318,1.191,1.191,0,0,0-.441.769.665.665,0,0,0,.15.6A.857.857,0,0,0,81.115,11.667ZM89.838,9.1a10.106,10.106,0,0,1-1.712,4.549,6.561,6.561,0,0,1-2.758,2.43l-.041-.007-.232-.978a6.163,6.163,0,0,0,1.8-2.167,11.174,11.174,0,0,0,1.152-3.814l.021-.178a9.693,9.693,0,0,0-.079-3.825A4.344,4.344,0,0,0,86.8,2.951l.513-.971h.041a4.332,4.332,0,0,1,2.061,2.454,8.461,8.461,0,0,1,.448,4.519Z" transform="translate(-9779 -8223.551) rotate(-90)" fill="#1a2f50"/>
      <path id="Trazado_904305" data-name="Trazado 904305" d="M14.132,5.692a2.315,2.315,0,0,1-.362,1.285,2.608,2.608,0,0,1-1,.9,2.886,2.886,0,0,1,1.148.96,2.464,2.464,0,0,1,.424,1.439,2.609,2.609,0,0,1-.9,2.1,3.66,3.66,0,0,1-2.454.769,3.677,3.677,0,0,1-2.461-.772,2.6,2.6,0,0,1-.909-2.092A2.48,2.48,0,0,1,8.041,8.83a2.834,2.834,0,0,1,1.142-.957,2.581,2.581,0,0,1-.995-.9,2.331,2.331,0,0,1-.359-1.285,2.58,2.58,0,0,1,.848-2.027,3.337,3.337,0,0,1,2.3-.755,3.36,3.36,0,0,1,2.3.749A2.57,2.57,0,0,1,14.132,5.692Zm-1.771,4.437a1.433,1.433,0,0,0-.376-1.039,1.341,1.341,0,0,0-1.012-.39,1.338,1.338,0,0,0-1,.386,1.431,1.431,0,0,0-.376,1.042,1.43,1.43,0,0,0,.369,1.025,1.345,1.345,0,0,0,1.025.39A1.341,1.341,0,0,0,12,11.168,1.427,1.427,0,0,0,12.361,10.129Zm-.205-4.341a1.367,1.367,0,0,0-.308-.933A1.091,1.091,0,0,0,10.98,4.5a1.1,1.1,0,0,0-.861.342,1.359,1.359,0,0,0-.308.943,1.428,1.428,0,0,0,.308.957,1.076,1.076,0,0,0,.868.362,1.066,1.066,0,0,0,.865-.362A1.439,1.439,0,0,0,12.156,5.788Zm10.22,3.1a5.042,5.042,0,0,1-.854,3.158,2.983,2.983,0,0,1-2.5,1.094,3,3,0,0,1-2.488-1.073,4.895,4.895,0,0,1-.882-3.076V7.155a4.976,4.976,0,0,1,.865-3.165,3,3,0,0,1,2.492-1.08,3.008,3.008,0,0,1,2.488,1.07,4.879,4.879,0,0,1,.882,3.073ZM20.4,6.871a3.645,3.645,0,0,0-.338-1.8A1.144,1.144,0,0,0,19.006,4.5a1.123,1.123,0,0,0-1.029.537,3.411,3.411,0,0,0-.352,1.68V9.142a3.826,3.826,0,0,0,.332,1.81,1.128,1.128,0,0,0,1.063.592,1.109,1.109,0,0,0,1.046-.568A3.734,3.734,0,0,0,20.4,9.238Z" transform="translate(-9752 -8359.551)" fill="#1a2f50"/>
      <path id="Trazado_904309" data-name="Trazado 904309" d="M13.489,9.254h1.128v1.593H13.489V13H11.514V10.847H7.433L7.344,9.6l4.149-6.556h2Zm-4.177,0h2.2V5.74l-.13.226Zm13.063-.369a5.042,5.042,0,0,1-.854,3.158,2.983,2.983,0,0,1-2.5,1.094,3,3,0,0,1-2.488-1.073,4.895,4.895,0,0,1-.882-3.076V7.155a4.976,4.976,0,0,1,.865-3.165,3,3,0,0,1,2.492-1.08,3.008,3.008,0,0,1,2.488,1.07,4.879,4.879,0,0,1,.882,3.073ZM20.4,6.871a3.645,3.645,0,0,0-.338-1.8A1.144,1.144,0,0,0,19.006,4.5a1.123,1.123,0,0,0-1.029.537,3.411,3.411,0,0,0-.352,1.68V9.142a3.826,3.826,0,0,0,.332,1.81,1.128,1.128,0,0,0,1.063.592,1.109,1.109,0,0,0,1.046-.568A3.734,3.734,0,0,0,20.4,9.238Z" transform="translate(-9752 -8267.551)" fill="#1a2f50"/>
      <path id="Trazado_904307" data-name="Trazado 904307" d="M13,2.944V4.571h-.191a3.356,3.356,0,0,0-2.157.7,2.833,2.833,0,0,0-.981,1.88,2.691,2.691,0,0,1,2-.807,2.535,2.535,0,0,1,2.064.93,3.727,3.727,0,0,1,.766,2.447,3.666,3.666,0,0,1-.42,1.757A3.015,3.015,0,0,1,12.9,12.7a3.456,3.456,0,0,1-1.74.438,3.227,3.227,0,0,1-2.54-1.094,4.246,4.246,0,0,1-.967-2.919V8.413a6.389,6.389,0,0,1,.612-2.861A4.486,4.486,0,0,1,10.02,3.631a5.148,5.148,0,0,1,2.656-.687Zm-1.928,4.99a1.578,1.578,0,0,0-.868.249,1.5,1.5,0,0,0-.574.658v.6a2.66,2.66,0,0,0,.39,1.545,1.259,1.259,0,0,0,1.094.556,1.245,1.245,0,0,0,1.029-.5,2.045,2.045,0,0,0,.393-1.3,2.041,2.041,0,0,0-.4-1.31A1.292,1.292,0,0,0,11.076,7.935Zm11.3.95a5.042,5.042,0,0,1-.854,3.158,2.983,2.983,0,0,1-2.5,1.094,3,3,0,0,1-2.488-1.073,4.895,4.895,0,0,1-.882-3.076V7.155a4.976,4.976,0,0,1,.865-3.165,3,3,0,0,1,2.492-1.08,3.008,3.008,0,0,1,2.488,1.07,4.879,4.879,0,0,1,.882,3.073ZM20.4,6.871a3.645,3.645,0,0,0-.338-1.8A1.144,1.144,0,0,0,19.006,4.5a1.123,1.123,0,0,0-1.029.537,3.411,3.411,0,0,0-.352,1.68V9.142a3.826,3.826,0,0,0,.332,1.81,1.128,1.128,0,0,0,1.063.592,1.109,1.109,0,0,0,1.046-.568A3.734,3.734,0,0,0,20.4,9.238Z" transform="translate(-9752 -8313.551)" fill="#1a2f50"/>
      <path id="Trazado_904311" data-name="Trazado 904311" d="M14.467,13H7.645V11.646l3.22-3.432a7.943,7.943,0,0,0,.981-1.265,2.032,2.032,0,0,0,.318-1.025,1.52,1.52,0,0,0-.335-1.042,1.209,1.209,0,0,0-.957-.379,1.3,1.3,0,0,0-1.056.461,1.828,1.828,0,0,0-.386,1.213H7.446A3.263,3.263,0,0,1,7.88,4.517,3.059,3.059,0,0,1,9.107,3.337a3.73,3.73,0,0,1,1.8-.427,3.531,3.531,0,0,1,2.389.738,2.612,2.612,0,0,1,.851,2.085,3.347,3.347,0,0,1-.383,1.5A8.357,8.357,0,0,1,12.45,9.021l-2.263,2.386h4.279Zm7.909-4.115a5.042,5.042,0,0,1-.854,3.158,2.983,2.983,0,0,1-2.5,1.094,3,3,0,0,1-2.488-1.073,4.895,4.895,0,0,1-.882-3.076V7.155a4.976,4.976,0,0,1,.865-3.165,3,3,0,0,1,2.492-1.08,3.008,3.008,0,0,1,2.488,1.07,4.879,4.879,0,0,1,.882,3.073ZM20.4,6.871a3.645,3.645,0,0,0-.338-1.8A1.144,1.144,0,0,0,19.006,4.5a1.123,1.123,0,0,0-1.029.537,3.411,3.411,0,0,0-.352,1.68V9.142a3.826,3.826,0,0,0,.332,1.81,1.128,1.128,0,0,0,1.063.592,1.109,1.109,0,0,0,1.046-.568A3.734,3.734,0,0,0,20.4,9.238Z" transform="translate(-9752 -8221.551)" fill="#1a2f50"/>
      <path id="Trazado_904306" data-name="Trazado 904306" d="M14.412,4.15,10.563,13H8.479l3.855-8.36H7.385V3.047h7.027Zm7.964,4.735a5.042,5.042,0,0,1-.854,3.158,2.983,2.983,0,0,1-2.5,1.094,3,3,0,0,1-2.488-1.073,4.895,4.895,0,0,1-.882-3.076V7.155a4.976,4.976,0,0,1,.865-3.165,3,3,0,0,1,2.492-1.08,3.008,3.008,0,0,1,2.488,1.07,4.879,4.879,0,0,1,.882,3.073ZM20.4,6.871a3.645,3.645,0,0,0-.338-1.8A1.144,1.144,0,0,0,19.006,4.5a1.123,1.123,0,0,0-1.029.537,3.411,3.411,0,0,0-.352,1.68V9.142a3.826,3.826,0,0,0,.332,1.81,1.128,1.128,0,0,0,1.063.592,1.109,1.109,0,0,0,1.046-.568A3.734,3.734,0,0,0,20.4,9.238Z" transform="translate(-9752 -8336.551)" fill="#1a2f50"/>
      <path id="Trazado_904310" data-name="Trazado 904310" d="M9.654,7.148h1.053a1.483,1.483,0,0,0,1.114-.376,1.378,1.378,0,0,0,.362-1,1.218,1.218,0,0,0-.359-.937,1.391,1.391,0,0,0-.988-.335,1.458,1.458,0,0,0-.95.311,1,1,0,0,0-.383.81H7.528a2.43,2.43,0,0,1,.42-1.4,2.8,2.8,0,0,1,1.176-.967,3.924,3.924,0,0,1,1.665-.349,3.722,3.722,0,0,1,2.475.755,2.577,2.577,0,0,1,.9,2.082A2.094,2.094,0,0,1,13.742,7a2.709,2.709,0,0,1-1.094.882,2.473,2.473,0,0,1,1.254.9,2.448,2.448,0,0,1,.414,1.422,2.62,2.62,0,0,1-.967,2.126,3.889,3.889,0,0,1-2.56.8,3.688,3.688,0,0,1-2.437-.786,2.567,2.567,0,0,1-.947-2.078H9.381a1.145,1.145,0,0,0,.42.916,1.549,1.549,0,0,0,1.036.355,1.556,1.556,0,0,0,1.1-.373,1.286,1.286,0,0,0,.4-.988q0-1.49-1.641-1.49H9.654ZM22.376,8.885a5.042,5.042,0,0,1-.854,3.158,2.983,2.983,0,0,1-2.5,1.094,3,3,0,0,1-2.488-1.073,4.895,4.895,0,0,1-.882-3.076V7.155a4.976,4.976,0,0,1,.865-3.165,3,3,0,0,1,2.492-1.08,3.008,3.008,0,0,1,2.488,1.07,4.879,4.879,0,0,1,.882,3.073ZM20.4,6.871a3.645,3.645,0,0,0-.338-1.8A1.144,1.144,0,0,0,19.006,4.5a1.123,1.123,0,0,0-1.029.537,3.411,3.411,0,0,0-.352,1.68V9.142a3.826,3.826,0,0,0,.332,1.81,1.128,1.128,0,0,0,1.063.592,1.109,1.109,0,0,0,1.046-.568A3.734,3.734,0,0,0,20.4,9.238Z" transform="translate(-9752 -8244.551)" fill="#1a2f50"/>
      <path id="Trazado_904308" data-name="Trazado 904308" d="M7.938,8.105l.574-5.059h5.578V4.694H10.133l-.246,2.14a3.132,3.132,0,0,1,1.5-.376,2.869,2.869,0,0,1,2.229.882,3.522,3.522,0,0,1,.807,2.468,3.609,3.609,0,0,1-.407,1.726,2.871,2.871,0,0,1-1.166,1.183,3.639,3.639,0,0,1-1.791.42,3.864,3.864,0,0,1-1.675-.366,2.971,2.971,0,0,1-1.22-1.029,2.8,2.8,0,0,1-.475-1.511H9.641a1.46,1.46,0,0,0,.434.967,1.376,1.376,0,0,0,.974.345,1.215,1.215,0,0,0,1.032-.482A2.233,2.233,0,0,0,12.443,9.7a1.846,1.846,0,0,0-.417-1.3,1.53,1.53,0,0,0-1.183-.451A1.71,1.71,0,0,0,9.7,8.317L9.511,8.5Zm14.438.779a5.042,5.042,0,0,1-.854,3.158,2.983,2.983,0,0,1-2.5,1.094,3,3,0,0,1-2.488-1.073,4.895,4.895,0,0,1-.882-3.076V7.155a4.976,4.976,0,0,1,.865-3.165,3,3,0,0,1,2.492-1.08,3.008,3.008,0,0,1,2.488,1.07,4.879,4.879,0,0,1,.882,3.073ZM20.4,6.871a3.645,3.645,0,0,0-.338-1.8A1.144,1.144,0,0,0,19.006,4.5a1.123,1.123,0,0,0-1.029.537,3.411,3.411,0,0,0-.352,1.68V9.142a3.826,3.826,0,0,0,.332,1.81,1.128,1.128,0,0,0,1.063.592,1.109,1.109,0,0,0,1.046-.568A3.734,3.734,0,0,0,20.4,9.238Z" transform="translate(-9752 -8290.551)" fill="#1a2f50"/>
      <path id="Trazado_904312" data-name="Trazado 904312" d="M12.443,13H10.468V5.374L8.109,6.1V4.51l4.122-1.477h.212Zm9.933-4.115a5.042,5.042,0,0,1-.854,3.158,2.983,2.983,0,0,1-2.5,1.094,3,3,0,0,1-2.488-1.073,4.895,4.895,0,0,1-.882-3.076V7.155a4.976,4.976,0,0,1,.865-3.165,3,3,0,0,1,2.492-1.08,3.008,3.008,0,0,1,2.488,1.07,4.879,4.879,0,0,1,.882,3.073ZM20.4,6.871a3.645,3.645,0,0,0-.338-1.8A1.144,1.144,0,0,0,19.006,4.5a1.123,1.123,0,0,0-1.029.537,3.411,3.411,0,0,0-.352,1.68V9.142a3.826,3.826,0,0,0,.332,1.81,1.128,1.128,0,0,0,1.063.592,1.109,1.109,0,0,0,1.046-.568A3.734,3.734,0,0,0,20.4,9.238Z" transform="translate(-9752 -8198.551)" fill="#1a2f50"/>
      <path id="Trazado_904313" data-name="Trazado 904313" d="M11.36,8.885a5.042,5.042,0,0,1-.854,3.158A2.983,2.983,0,0,1,8,13.137a3,3,0,0,1-2.488-1.073,4.895,4.895,0,0,1-.882-3.076V7.155A4.976,4.976,0,0,1,5.5,3.99,3,3,0,0,1,7.99,2.91a3.008,3.008,0,0,1,2.488,1.07,4.879,4.879,0,0,1,.882,3.073ZM9.384,6.871a3.645,3.645,0,0,0-.338-1.8A1.144,1.144,0,0,0,7.99,4.5a1.123,1.123,0,0,0-1.029.537,3.411,3.411,0,0,0-.352,1.68V9.142a3.826,3.826,0,0,0,.332,1.81A1.128,1.128,0,0,0,8,11.544a1.109,1.109,0,0,0,1.046-.568,3.734,3.734,0,0,0,.335-1.738Z" transform="translate(-9738 -8177.551)" fill="#1a2f50"/>
      <path id="Trazado_904314" data-name="Trazado 904314" d="M11.36,8.885a5.042,5.042,0,0,1-.854,3.158A2.983,2.983,0,0,1,8,13.137a3,3,0,0,1-2.488-1.073,4.895,4.895,0,0,1-.882-3.076V7.155A4.976,4.976,0,0,1,5.5,3.99,3,3,0,0,1,7.99,2.91a3.008,3.008,0,0,1,2.488,1.07,4.879,4.879,0,0,1,.882,3.073ZM9.384,6.871a3.645,3.645,0,0,0-.338-1.8A1.144,1.144,0,0,0,7.99,4.5a1.123,1.123,0,0,0-1.029.537,3.411,3.411,0,0,0-.352,1.68V9.142a3.826,3.826,0,0,0,.332,1.81A1.128,1.128,0,0,0,8,11.544a1.109,1.109,0,0,0,1.046-.568,3.734,3.734,0,0,0,.335-1.738Z" transform="translate(-9720 -8160.551)" fill="#1a2f50"/>
      <path id="Trazado_904319" data-name="Trazado 904319" d="M5.927,13H3.952V5.374L1.593,6.1V4.51L5.715,3.033h.212ZM15.86,8.885a5.042,5.042,0,0,1-.854,3.158,2.983,2.983,0,0,1-2.5,1.094,3,3,0,0,1-2.488-1.073,4.895,4.895,0,0,1-.882-3.076V7.155A4.976,4.976,0,0,1,10,3.99,3,3,0,0,1,12.49,2.91a3.008,3.008,0,0,1,2.488,1.07,4.879,4.879,0,0,1,.882,3.073ZM13.884,6.871a3.645,3.645,0,0,0-.338-1.8A1.144,1.144,0,0,0,12.49,4.5a1.123,1.123,0,0,0-1.029.537,3.411,3.411,0,0,0-.352,1.68V9.142a3.826,3.826,0,0,0,.332,1.81,1.128,1.128,0,0,0,1.063.592,1.109,1.109,0,0,0,1.046-.568,3.734,3.734,0,0,0,.335-1.738ZM23.892,8.885a5.042,5.042,0,0,1-.854,3.158,2.983,2.983,0,0,1-2.5,1.094,3,3,0,0,1-2.488-1.073,4.895,4.895,0,0,1-.882-3.076V7.155A4.976,4.976,0,0,1,18.03,3.99a3,3,0,0,1,2.492-1.08A3.008,3.008,0,0,1,23.01,3.98a4.879,4.879,0,0,1,.882,3.073ZM21.917,6.871a3.645,3.645,0,0,0-.338-1.8A1.144,1.144,0,0,0,20.522,4.5a1.123,1.123,0,0,0-1.029.537,3.411,3.411,0,0,0-.352,1.68V9.142a3.826,3.826,0,0,0,.332,1.81,1.128,1.128,0,0,0,1.063.592,1.109,1.109,0,0,0,1.046-.568,3.734,3.734,0,0,0,.335-1.738Z" transform="translate(-9635 -8160.551)" fill="#1a2f50"/>
      <path id="Trazado_904321" data-name="Trazado 904321" d="M7.951,13H1.128V11.646l3.22-3.432A7.943,7.943,0,0,0,5.329,6.95a2.032,2.032,0,0,0,.318-1.025,1.52,1.52,0,0,0-.335-1.042A1.209,1.209,0,0,0,4.355,4.5,1.3,1.3,0,0,0,3.3,4.964a1.828,1.828,0,0,0-.386,1.213H.93a3.263,3.263,0,0,1,.434-1.661A3.059,3.059,0,0,1,2.591,3.337a3.73,3.73,0,0,1,1.8-.427,3.531,3.531,0,0,1,2.389.738,2.612,2.612,0,0,1,.851,2.085,3.347,3.347,0,0,1-.383,1.5A8.357,8.357,0,0,1,5.934,9.021L3.671,11.407H7.951ZM15.86,8.885a5.042,5.042,0,0,1-.854,3.158,2.983,2.983,0,0,1-2.5,1.094,3,3,0,0,1-2.488-1.073,4.895,4.895,0,0,1-.882-3.076V7.155A4.976,4.976,0,0,1,10,3.99,3,3,0,0,1,12.49,2.91a3.008,3.008,0,0,1,2.488,1.07,4.879,4.879,0,0,1,.882,3.073ZM13.884,6.871a3.645,3.645,0,0,0-.338-1.8A1.144,1.144,0,0,0,12.49,4.5a1.123,1.123,0,0,0-1.029.537,3.411,3.411,0,0,0-.352,1.68V9.142a3.826,3.826,0,0,0,.332,1.81,1.128,1.128,0,0,0,1.063.592,1.109,1.109,0,0,0,1.046-.568,3.734,3.734,0,0,0,.335-1.738ZM23.892,8.885a5.042,5.042,0,0,1-.854,3.158,2.983,2.983,0,0,1-2.5,1.094,3,3,0,0,1-2.488-1.073,4.895,4.895,0,0,1-.882-3.076V7.155A4.976,4.976,0,0,1,18.03,3.99a3,3,0,0,1,2.492-1.08A3.008,3.008,0,0,1,23.01,3.98a4.879,4.879,0,0,1,.882,3.073ZM21.917,6.871a3.645,3.645,0,0,0-.338-1.8A1.144,1.144,0,0,0,20.522,4.5a1.123,1.123,0,0,0-1.029.537,3.411,3.411,0,0,0-.352,1.68V9.142a3.826,3.826,0,0,0,.332,1.81,1.128,1.128,0,0,0,1.063.592,1.109,1.109,0,0,0,1.046-.568,3.734,3.734,0,0,0,.335-1.738Z" transform="translate(-9520 -8160.551)" fill="#1a2f50"/>
      <path id="Trazado_904324" data-name="Trazado 904324" d="M3.138,7.148H4.191a1.483,1.483,0,0,0,1.114-.376,1.378,1.378,0,0,0,.362-1,1.218,1.218,0,0,0-.359-.937A1.391,1.391,0,0,0,4.321,4.5a1.458,1.458,0,0,0-.95.311,1,1,0,0,0-.383.81H1.012a2.43,2.43,0,0,1,.42-1.4,2.8,2.8,0,0,1,1.176-.967A3.924,3.924,0,0,1,4.273,2.91a3.722,3.722,0,0,1,2.475.755,2.577,2.577,0,0,1,.9,2.082A2.094,2.094,0,0,1,7.226,7a2.709,2.709,0,0,1-1.094.882,2.473,2.473,0,0,1,1.254.9A2.448,2.448,0,0,1,7.8,10.211a2.62,2.62,0,0,1-.967,2.126,3.889,3.889,0,0,1-2.56.8,3.688,3.688,0,0,1-2.437-.786,2.567,2.567,0,0,1-.947-2.078H2.865a1.145,1.145,0,0,0,.42.916,1.549,1.549,0,0,0,1.036.355,1.556,1.556,0,0,0,1.1-.373,1.286,1.286,0,0,0,.4-.988q0-1.49-1.641-1.49H3.138ZM15.86,8.885a5.042,5.042,0,0,1-.854,3.158,2.983,2.983,0,0,1-2.5,1.094,3,3,0,0,1-2.488-1.073,4.895,4.895,0,0,1-.882-3.076V7.155A4.976,4.976,0,0,1,10,3.99,3,3,0,0,1,12.49,2.91a3.008,3.008,0,0,1,2.488,1.07,4.879,4.879,0,0,1,.882,3.073ZM13.884,6.871a3.645,3.645,0,0,0-.338-1.8A1.144,1.144,0,0,0,12.49,4.5a1.123,1.123,0,0,0-1.029.537,3.411,3.411,0,0,0-.352,1.68V9.142a3.826,3.826,0,0,0,.332,1.81,1.128,1.128,0,0,0,1.063.592,1.109,1.109,0,0,0,1.046-.568,3.734,3.734,0,0,0,.335-1.738ZM23.892,8.885a5.042,5.042,0,0,1-.854,3.158,2.983,2.983,0,0,1-2.5,1.094,3,3,0,0,1-2.488-1.073,4.895,4.895,0,0,1-.882-3.076V7.155A4.976,4.976,0,0,1,18.03,3.99a3,3,0,0,1,2.492-1.08A3.008,3.008,0,0,1,23.01,3.98a4.879,4.879,0,0,1,.882,3.073ZM21.917,6.871a3.645,3.645,0,0,0-.338-1.8A1.144,1.144,0,0,0,20.522,4.5a1.123,1.123,0,0,0-1.029.537,3.411,3.411,0,0,0-.352,1.68V9.142a3.826,3.826,0,0,0,.332,1.81,1.128,1.128,0,0,0,1.063.592,1.109,1.109,0,0,0,1.046-.568,3.734,3.734,0,0,0,.335-1.738Z" transform="translate(-9405 -8160.551)" fill="#1a2f50"/>
      <path id="Trazado_904320" data-name="Trazado 904320" d="M5.284,3.047a3.552,3.552,0,0,1,2.81,1.172A3.536,3.536,0,0,1,8.866,7.2L8.627,8.851a4.693,4.693,0,0,1-1.613,3.011A4.742,4.742,0,0,1,3.842,13H.362L1.8,3.047Zm-1.7,1.538-1,6.884H4.061a2.276,2.276,0,0,0,1.678-.738,3.312,3.312,0,0,0,.892-1.88L6.87,7.189a2.592,2.592,0,0,0-.332-1.883,1.677,1.677,0,0,0-1.48-.721Zm9.146,8.559a2.941,2.941,0,0,1-2.444-1.022A3.246,3.246,0,0,1,9.7,9.514l.041-.273a4.681,4.681,0,0,1,1.3-2.738,3.563,3.563,0,0,1,2.635-1.036,2.476,2.476,0,0,1,2.133.916,3.235,3.235,0,0,1,.458,2.454l-.15,1.032H11.7l-.014.034a1.712,1.712,0,0,0,.28,1.241,1.4,1.4,0,0,0,1.189.468,4.368,4.368,0,0,0,1.107-.123,8.222,8.222,0,0,0,1.053-.369l.308,1.258a4.694,4.694,0,0,1-1.241.54A5.794,5.794,0,0,1,12.729,13.144ZM13.446,7a1.279,1.279,0,0,0-.971.414,2.419,2.419,0,0,0-.561,1.09l.014.041h2.42l.027-.15a1.625,1.625,0,0,0-.123-1.029A.851.851,0,0,0,13.446,7Zm3.849,6,.868-6h-1.1l.205-1.4h1.094l.123-.82a2.917,2.917,0,0,1,.995-1.931,3.245,3.245,0,0,1,2.116-.66,3.307,3.307,0,0,1,.509.041q.263.041.564.1l-.383,1.483q-.157-.027-.311-.048a2.751,2.751,0,0,0-.359-.021,1.1,1.1,0,0,0-.769.27,1.215,1.215,0,0,0-.366.762l-.123.82h1.429L21.581,7H20.159l-.868,6Zm4.566-3.767a4.6,4.6,0,0,1,1.316-2.728,3.731,3.731,0,0,1,2.71-1.039,2.8,2.8,0,0,1,2.393,1.06,3.528,3.528,0,0,1,.561,2.707l-.021.144A4.622,4.622,0,0,1,27.5,12.111a3.742,3.742,0,0,1-2.714,1.032,2.808,2.808,0,0,1-2.4-1.056,3.49,3.49,0,0,1-.547-2.71Zm1.969.144a3.017,3.017,0,0,0,.116,1.634,1.043,1.043,0,0,0,1.06.6,1.443,1.443,0,0,0,1.213-.619,3.5,3.5,0,0,0,.6-1.617l.021-.144a2.989,2.989,0,0,0-.126-1.617A1.041,1.041,0,0,0,25.662,7a1.436,1.436,0,0,0-1.213.629,3.481,3.481,0,0,0-.6,1.6Zm10.4-2.058L33.51,7.3a1.437,1.437,0,0,0-.755.191,1.507,1.507,0,0,0-.523.54L31.514,13H29.524L30.6,5.6H32.45L32.382,6.69a2.772,2.772,0,0,1,.8-.906,1.725,1.725,0,0,1,1-.318,1.452,1.452,0,0,1,.27.024q.126.024.25.058Zm3.09-.759a2.942,2.942,0,0,1,1-.81,2.884,2.884,0,0,1,1.289-.284,2.02,2.02,0,0,1,1.152.314,1.587,1.587,0,0,1,.639.943A3.086,3.086,0,0,1,42.427,5.8a2.724,2.724,0,0,1,1.343-.332,1.8,1.8,0,0,1,1.6.779,3.39,3.39,0,0,1,.3,2.365L45.035,13h-2l.636-4.4a1.972,1.972,0,0,0-.089-1.248.841.841,0,0,0-.766-.338,1.526,1.526,0,0,0-.759.191,1.748,1.748,0,0,0-.581.533q-.007.1-.017.2t-.024.2l-.7,4.86H38.746l.636-4.4a1.937,1.937,0,0,0-.092-1.237.84.84,0,0,0-.769-.349,1.641,1.641,0,0,0-.731.161,1.745,1.745,0,0,0-.574.455L36.442,13H34.453l1.073-7.4h1.853ZM50.887,13a2.6,2.6,0,0,1-.092-.509,4.573,4.573,0,0,1-.01-.591,3.412,3.412,0,0,1-.943.892,2.282,2.282,0,0,1-1.251.352,2.186,2.186,0,0,1-1.688-.6,1.894,1.894,0,0,1-.41-1.627,2.323,2.323,0,0,1,1.083-1.7,4.676,4.676,0,0,1,2.533-.588h1.114l.089-.588a1.049,1.049,0,0,0-.161-.834.968.968,0,0,0-.79-.287,1.244,1.244,0,0,0-.779.236.935.935,0,0,0-.362.646H47.3l-.007-.041a2.233,2.233,0,0,1,1.053-1.63A4.026,4.026,0,0,1,50.7,5.467a2.923,2.923,0,0,1,2.041.673,2.037,2.037,0,0,1,.564,1.917l-.444,3.056a5.205,5.205,0,0,0-.065.984,4.9,4.9,0,0,0,.12.9Zm-1.593-1.333a1.906,1.906,0,0,0,.964-.263,1.723,1.723,0,0,0,.656-.6l.15-1.039H49.943a1.508,1.508,0,0,0-1,.318,1.191,1.191,0,0,0-.441.769.665.665,0,0,0,.15.6A.857.857,0,0,0,49.294,11.667Zm8.08-.055a1.276,1.276,0,0,0,.865-.311,1.333,1.333,0,0,0,.441-.831h1.812l.014.041a2.744,2.744,0,0,1-1.1,1.89,3.569,3.569,0,0,1-2.246.742,2.724,2.724,0,0,1-2.369-1.056,3.53,3.53,0,0,1-.523-2.676l.027-.205a4.62,4.62,0,0,1,1.282-2.7,3.638,3.638,0,0,1,2.683-1.039,2.667,2.667,0,0,1,2.054.783A2.3,2.3,0,0,1,60.826,8.3l-.014.034H58.987a1.343,1.343,0,0,0-.167-.957A.879.879,0,0,0,58.03,7a1.352,1.352,0,0,0-1.179.625,3.691,3.691,0,0,0-.564,1.576l-.027.205a3.17,3.17,0,0,0,.085,1.6A.984.984,0,0,0,57.374,11.612ZM63.4,13h-2L62.48,5.6h2Zm1.326-9.167h-2l.219-1.5h2Zm.554,5.4A4.6,4.6,0,0,1,66.6,6.506a3.731,3.731,0,0,1,2.71-1.039A2.8,2.8,0,0,1,71.7,6.526a3.528,3.528,0,0,1,.561,2.707l-.021.144a4.622,4.622,0,0,1-1.319,2.734,3.742,3.742,0,0,1-2.714,1.032,2.808,2.808,0,0,1-2.4-1.056,3.49,3.49,0,0,1-.547-2.71Zm1.969.144a3.017,3.017,0,0,0,.116,1.634,1.043,1.043,0,0,0,1.06.6,1.443,1.443,0,0,0,1.213-.619,3.5,3.5,0,0,0,.6-1.617l.021-.144a2.988,2.988,0,0,0-.126-1.617A1.041,1.041,0,0,0,69.084,7a1.436,1.436,0,0,0-1.213.629,3.481,3.481,0,0,0-.6,1.6ZM70.13,2.445h2.215l.014.041L70.212,4.264H68.558l-.014-.034Zm5.653,4.2a3.228,3.228,0,0,1,1.029-.868,2.667,2.667,0,0,1,1.261-.308,1.882,1.882,0,0,1,1.63.728,3.125,3.125,0,0,1,.311,2.273L79.358,13h-2l.656-4.525A1.662,1.662,0,0,0,77.9,7.34a.894.894,0,0,0-.786-.321,1.857,1.857,0,0,0-1.436.649L74.908,13h-2l1.073-7.4h1.859Zm9.235,2.311a10.317,10.317,0,0,1,1.671-4.58,6.369,6.369,0,0,1,2.7-2.393l.041.007.219.991a6.043,6.043,0,0,0-1.808,2.16,11.1,11.1,0,0,0-1.138,3.8l-.021.178a9.8,9.8,0,0,0,.062,3.832,4.2,4.2,0,0,0,1.21,2.15l-.506.978h-.034a4.261,4.261,0,0,1-2.017-2.42A8.6,8.6,0,0,1,85,9.1Zm5.229-3.992a2.329,2.329,0,0,1,.776-1.48A2.439,2.439,0,0,1,92.7,2.9a1.852,1.852,0,0,1,1.5.588,1.792,1.792,0,0,1,.373,1.47l-.082.526a2.344,2.344,0,0,1-.776,1.473,2.431,2.431,0,0,1-1.671.571,1.87,1.87,0,0,1-1.5-.584,1.758,1.758,0,0,1-.379-1.459Zm1.244.526a.91.91,0,0,0,.12.67.663.663,0,0,0,.591.267.853.853,0,0,0,.646-.27,1.212,1.212,0,0,0,.318-.667l.082-.526a.969.969,0,0,0-.123-.68.644.644,0,0,0-.581-.27.867.867,0,0,0-.66.28,1.16,1.16,0,0,0-.311.67Zm2.7,5.072a2.317,2.317,0,0,1,.779-1.473,2.451,2.451,0,0,1,1.682-.578,1.852,1.852,0,0,1,1.5.588,1.781,1.781,0,0,1,.373,1.463l-.075.526a2.379,2.379,0,0,1-.783,1.48A2.431,2.431,0,0,1,96,13.137a1.874,1.874,0,0,1-1.507-.588,1.75,1.75,0,0,1-.373-1.463Zm1.251.526a.87.87,0,0,0,.137.67.672.672,0,0,0,.581.273.841.841,0,0,0,.667-.26,1.328,1.328,0,0,0,.3-.684l.075-.526a.955.955,0,0,0-.123-.673.644.644,0,0,0-.581-.27.883.883,0,0,0-.663.277,1.135,1.135,0,0,0-.314.667ZM91.69,12.255l-.9-.513,5.988-7.779.9.513ZM103.469,9.1a10.106,10.106,0,0,1-1.712,4.549A6.561,6.561,0,0,1,99,16.083l-.041-.007-.232-.978a6.163,6.163,0,0,0,1.8-2.167,11.174,11.174,0,0,0,1.152-3.814l.021-.178a9.693,9.693,0,0,0-.079-3.825,4.344,4.344,0,0,0-1.193-2.164l.513-.971h.041a4.332,4.332,0,0,1,2.061,2.454,8.461,8.461,0,0,1,.448,4.519Z" transform="translate(-9603.306 -8141.589)" fill="#1a2f50"/>
      <path id="Trazado_904318" data-name="Trazado 904318" d="M5.284,3.047a3.552,3.552,0,0,1,2.81,1.172A3.536,3.536,0,0,1,8.866,7.2L8.627,8.851a4.693,4.693,0,0,1-1.613,3.011A4.742,4.742,0,0,1,3.842,13H.362L1.8,3.047Zm-1.7,1.538-1,6.884H4.061a2.276,2.276,0,0,0,1.678-.738,3.312,3.312,0,0,0,.892-1.88L6.87,7.189a2.592,2.592,0,0,0-.332-1.883,1.677,1.677,0,0,0-1.48-.721Zm9.146,8.559a2.941,2.941,0,0,1-2.444-1.022A3.246,3.246,0,0,1,9.7,9.514l.041-.273a4.681,4.681,0,0,1,1.3-2.738,3.563,3.563,0,0,1,2.635-1.036,2.476,2.476,0,0,1,2.133.916,3.235,3.235,0,0,1,.458,2.454l-.15,1.032H11.7l-.014.034a1.712,1.712,0,0,0,.28,1.241,1.4,1.4,0,0,0,1.189.468,4.368,4.368,0,0,0,1.107-.123,8.222,8.222,0,0,0,1.053-.369l.308,1.258a4.694,4.694,0,0,1-1.241.54A5.794,5.794,0,0,1,12.729,13.144ZM13.446,7a1.279,1.279,0,0,0-.971.414,2.419,2.419,0,0,0-.561,1.09l.014.041h2.42l.027-.15a1.625,1.625,0,0,0-.123-1.029A.851.851,0,0,0,13.446,7Zm3.849,6,.868-6h-1.1l.205-1.4h1.094l.123-.82a2.917,2.917,0,0,1,.995-1.931,3.245,3.245,0,0,1,2.116-.66,3.307,3.307,0,0,1,.509.041q.263.041.564.1l-.383,1.483q-.157-.027-.311-.048a2.751,2.751,0,0,0-.359-.021,1.1,1.1,0,0,0-.769.27,1.215,1.215,0,0,0-.366.762l-.123.82h1.429L21.581,7H20.159l-.868,6Zm4.566-3.767a4.6,4.6,0,0,1,1.316-2.728,3.731,3.731,0,0,1,2.71-1.039,2.8,2.8,0,0,1,2.393,1.06,3.528,3.528,0,0,1,.561,2.707l-.021.144A4.622,4.622,0,0,1,27.5,12.111a3.742,3.742,0,0,1-2.714,1.032,2.808,2.808,0,0,1-2.4-1.056,3.49,3.49,0,0,1-.547-2.71Zm1.969.144a3.017,3.017,0,0,0,.116,1.634,1.043,1.043,0,0,0,1.06.6,1.443,1.443,0,0,0,1.213-.619,3.5,3.5,0,0,0,.6-1.617l.021-.144a2.989,2.989,0,0,0-.126-1.617A1.041,1.041,0,0,0,25.662,7a1.436,1.436,0,0,0-1.213.629,3.481,3.481,0,0,0-.6,1.6Zm10.4-2.058L33.51,7.3a1.437,1.437,0,0,0-.755.191,1.507,1.507,0,0,0-.523.54L31.514,13H29.524L30.6,5.6H32.45L32.382,6.69a2.772,2.772,0,0,1,.8-.906,1.725,1.725,0,0,1,1-.318,1.452,1.452,0,0,1,.27.024q.126.024.25.058Zm3.09-.759a2.942,2.942,0,0,1,1-.81,2.884,2.884,0,0,1,1.289-.284,2.02,2.02,0,0,1,1.152.314,1.587,1.587,0,0,1,.639.943A3.086,3.086,0,0,1,42.427,5.8a2.724,2.724,0,0,1,1.343-.332,1.8,1.8,0,0,1,1.6.779,3.39,3.39,0,0,1,.3,2.365L45.035,13h-2l.636-4.4a1.972,1.972,0,0,0-.089-1.248.841.841,0,0,0-.766-.338,1.526,1.526,0,0,0-.759.191,1.748,1.748,0,0,0-.581.533q-.007.1-.017.2t-.024.2l-.7,4.86H38.746l.636-4.4a1.937,1.937,0,0,0-.092-1.237.84.84,0,0,0-.769-.349,1.641,1.641,0,0,0-.731.161,1.745,1.745,0,0,0-.574.455L36.442,13H34.453l1.073-7.4h1.853ZM50.887,13a2.6,2.6,0,0,1-.092-.509,4.573,4.573,0,0,1-.01-.591,3.412,3.412,0,0,1-.943.892,2.282,2.282,0,0,1-1.251.352,2.186,2.186,0,0,1-1.688-.6,1.894,1.894,0,0,1-.41-1.627,2.323,2.323,0,0,1,1.083-1.7,4.676,4.676,0,0,1,2.533-.588h1.114l.089-.588a1.049,1.049,0,0,0-.161-.834.968.968,0,0,0-.79-.287,1.244,1.244,0,0,0-.779.236.935.935,0,0,0-.362.646H47.3l-.007-.041a2.233,2.233,0,0,1,1.053-1.63A4.026,4.026,0,0,1,50.7,5.467a2.923,2.923,0,0,1,2.041.673,2.037,2.037,0,0,1,.564,1.917l-.444,3.056a5.205,5.205,0,0,0-.065.984,4.9,4.9,0,0,0,.12.9Zm-1.593-1.333a1.906,1.906,0,0,0,.964-.263,1.723,1.723,0,0,0,.656-.6l.15-1.039H49.943a1.508,1.508,0,0,0-1,.318,1.191,1.191,0,0,0-.441.769.665.665,0,0,0,.15.6A.857.857,0,0,0,49.294,11.667Zm8.08-.055a1.276,1.276,0,0,0,.865-.311,1.333,1.333,0,0,0,.441-.831h1.812l.014.041a2.744,2.744,0,0,1-1.1,1.89,3.569,3.569,0,0,1-2.246.742,2.724,2.724,0,0,1-2.369-1.056,3.53,3.53,0,0,1-.523-2.676l.027-.205a4.62,4.62,0,0,1,1.282-2.7,3.638,3.638,0,0,1,2.683-1.039,2.667,2.667,0,0,1,2.054.783A2.3,2.3,0,0,1,60.826,8.3l-.014.034H58.987a1.343,1.343,0,0,0-.167-.957A.879.879,0,0,0,58.03,7a1.352,1.352,0,0,0-1.179.625,3.691,3.691,0,0,0-.564,1.576l-.027.205a3.17,3.17,0,0,0,.085,1.6A.984.984,0,0,0,57.374,11.612ZM63.4,13h-2L62.48,5.6h2Zm1.326-9.167h-2l.219-1.5h2Zm.554,5.4A4.6,4.6,0,0,1,66.6,6.506a3.731,3.731,0,0,1,2.71-1.039A2.8,2.8,0,0,1,71.7,6.526a3.528,3.528,0,0,1,.561,2.707l-.021.144a4.622,4.622,0,0,1-1.319,2.734,3.742,3.742,0,0,1-2.714,1.032,2.808,2.808,0,0,1-2.4-1.056,3.49,3.49,0,0,1-.547-2.71Zm1.969.144a3.017,3.017,0,0,0,.116,1.634,1.043,1.043,0,0,0,1.06.6,1.443,1.443,0,0,0,1.213-.619,3.5,3.5,0,0,0,.6-1.617l.021-.144a2.988,2.988,0,0,0-.126-1.617A1.041,1.041,0,0,0,69.084,7a1.436,1.436,0,0,0-1.213.629,3.481,3.481,0,0,0-.6,1.6ZM70.13,2.445h2.215l.014.041L70.212,4.264H68.558l-.014-.034Zm5.653,4.2a3.228,3.228,0,0,1,1.029-.868,2.667,2.667,0,0,1,1.261-.308,1.882,1.882,0,0,1,1.63.728,3.125,3.125,0,0,1,.311,2.273L79.358,13h-2l.656-4.525A1.662,1.662,0,0,0,77.9,7.34a.894.894,0,0,0-.786-.321,1.857,1.857,0,0,0-1.436.649L74.908,13h-2l1.073-7.4h1.859Zm11.778,6.5a2.941,2.941,0,0,1-2.444-1.022,3.246,3.246,0,0,1-.584-2.608l.041-.273A4.681,4.681,0,0,1,85.87,6.5,3.563,3.563,0,0,1,88.5,5.467a2.476,2.476,0,0,1,2.133.916A3.235,3.235,0,0,1,91.1,8.837l-.15,1.032H86.529l-.014.034a1.712,1.712,0,0,0,.28,1.241,1.4,1.4,0,0,0,1.189.468,4.369,4.369,0,0,0,1.107-.123,8.222,8.222,0,0,0,1.053-.369l.308,1.258a4.694,4.694,0,0,1-1.241.54A5.794,5.794,0,0,1,87.562,13.144ZM88.279,7a1.279,1.279,0,0,0-.971.414,2.419,2.419,0,0,0-.561,1.09l.014.041h2.42l.027-.15a1.625,1.625,0,0,0-.123-1.029A.851.851,0,0,0,88.279,7Zm5.476,6h-2L93.3,2.336h2Zm5.961,0a2.6,2.6,0,0,1-.092-.509,4.572,4.572,0,0,1-.01-.591,3.412,3.412,0,0,1-.943.892,2.282,2.282,0,0,1-1.251.352,2.186,2.186,0,0,1-1.688-.6,1.894,1.894,0,0,1-.41-1.627A2.323,2.323,0,0,1,96.4,9.22a4.676,4.676,0,0,1,2.533-.588h1.114l.089-.588a1.049,1.049,0,0,0-.161-.834.968.968,0,0,0-.79-.287,1.244,1.244,0,0,0-.779.236.935.935,0,0,0-.362.646H96.127l-.007-.041a2.233,2.233,0,0,1,1.053-1.63,4.026,4.026,0,0,1,2.358-.667,2.923,2.923,0,0,1,2.041.673,2.037,2.037,0,0,1,.564,1.917l-.444,3.056a5.206,5.206,0,0,0-.065.984,4.9,4.9,0,0,0,.12.9Zm-1.593-1.333a1.906,1.906,0,0,0,.964-.263,1.723,1.723,0,0,0,.656-.6l.15-1.039H98.772a1.508,1.508,0,0,0-1,.318,1.191,1.191,0,0,0-.441.769.665.665,0,0,0,.15.6A.857.857,0,0,0,98.123,11.667Zm2.146-9.222h2.215l.014.041-2.146,1.777H98.7l-.014-.034Zm6.966,8.5a.582.582,0,0,0-.236-.564,2.962,2.962,0,0,0-1.125-.414,4.068,4.068,0,0,1-1.859-.786,1.506,1.506,0,0,1-.479-1.429,2.4,2.4,0,0,1,1.032-1.63,3.678,3.678,0,0,1,2.242-.66,3.119,3.119,0,0,1,2.136.673,1.706,1.706,0,0,1,.591,1.665l-.014.041H107.6a.891.891,0,0,0-.188-.728,1,1,0,0,0-.79-.277,1.276,1.276,0,0,0-.79.239.87.87,0,0,0-.366.588.576.576,0,0,0,.212.561,2.89,2.89,0,0,0,1.128.383,4.131,4.131,0,0,1,1.911.8,1.561,1.561,0,0,1,.468,1.459,2.336,2.336,0,0,1-1.083,1.644,4.129,4.129,0,0,1-2.348.625,3.026,3.026,0,0,1-2.211-.755,1.825,1.825,0,0,1-.6-1.7l.021-.041h1.825a.911.911,0,0,0,.27.861,1.442,1.442,0,0,0,.926.267,1.523,1.523,0,0,0,.868-.222A.848.848,0,0,0,107.235,10.949Zm6.59-7.157L113.559,5.6h1.251L114.6,7H113.36l-.547,3.767a.777.777,0,0,0,.085.622.568.568,0,0,0,.455.178,2,2,0,0,0,.273-.017,2.2,2.2,0,0,0,.273-.058l-.041,1.442a4.41,4.41,0,0,1-.608.154,3.661,3.661,0,0,1-.629.051,1.852,1.852,0,0,1-1.5-.574,2.221,2.221,0,0,1-.308-1.791L111.364,7h-1.08l.205-1.4h1.073l.267-1.812ZM117.038,13h-2l1.073-7.4h2Zm1.326-9.167h-2l.219-1.5h2Zm3.6,7.779a1.276,1.276,0,0,0,.865-.311,1.333,1.333,0,0,0,.441-.831h1.812l.014.041a2.744,2.744,0,0,1-1.1,1.89,3.569,3.569,0,0,1-2.246.742,2.724,2.724,0,0,1-2.369-1.056,3.53,3.53,0,0,1-.523-2.676l.027-.205a4.62,4.62,0,0,1,1.282-2.7,3.638,3.638,0,0,1,2.683-1.039,2.667,2.667,0,0,1,2.054.783,2.3,2.3,0,0,1,.516,2.054l-.014.034H123.58a1.343,1.343,0,0,0-.167-.957.879.879,0,0,0-.79-.376,1.352,1.352,0,0,0-1.179.625,3.691,3.691,0,0,0-.564,1.576l-.027.205a3.17,3.17,0,0,0,.085,1.6A.984.984,0,0,0,121.967,11.612ZM130.218,13a2.6,2.6,0,0,1-.092-.509,4.575,4.575,0,0,1-.01-.591,3.412,3.412,0,0,1-.943.892,2.282,2.282,0,0,1-1.251.352,2.186,2.186,0,0,1-1.688-.6,1.894,1.894,0,0,1-.41-1.627,2.323,2.323,0,0,1,1.083-1.7,4.676,4.676,0,0,1,2.533-.588h1.114l.089-.588a1.049,1.049,0,0,0-.161-.834.968.968,0,0,0-.79-.287,1.244,1.244,0,0,0-.779.236.935.935,0,0,0-.362.646h-1.921l-.007-.041a2.233,2.233,0,0,1,1.053-1.63,4.026,4.026,0,0,1,2.358-.667,2.923,2.923,0,0,1,2.041.673,2.037,2.037,0,0,1,.564,1.917l-.444,3.056a5.2,5.2,0,0,0-.065.984,4.9,4.9,0,0,0,.12.9Zm-1.593-1.333a1.906,1.906,0,0,0,.964-.263,1.723,1.723,0,0,0,.656-.6l.15-1.039h-1.121a1.508,1.508,0,0,0-1,.318,1.191,1.191,0,0,0-.441.769.665.665,0,0,0,.15.6A.857.857,0,0,0,128.625,11.667ZM139,13h-2l1.545-10.664h2Zm3.78,0h-2l1.073-7.4h2Zm.9-10.411h2.215l.014.041L143.76,4.407h-1.654l-.014-.034Zm3.644,4.054a3.228,3.228,0,0,1,1.029-.868,2.667,2.667,0,0,1,1.261-.308,1.882,1.882,0,0,1,1.63.728,3.125,3.125,0,0,1,.311,2.273L150.9,13h-2l.656-4.525a1.662,1.662,0,0,0-.109-1.135.894.894,0,0,0-.786-.321,1.857,1.857,0,0,0-1.436.649L146.446,13h-2l1.073-7.4h1.859Zm8.292,6.5a2.941,2.941,0,0,1-2.444-1.022,3.246,3.246,0,0,1-.584-2.608l.041-.273a4.681,4.681,0,0,1,1.3-2.738,3.563,3.563,0,0,1,2.635-1.036,2.476,2.476,0,0,1,2.133.916,3.235,3.235,0,0,1,.458,2.454L159,9.869h-4.416l-.014.034a1.712,1.712,0,0,0,.28,1.241,1.4,1.4,0,0,0,1.189.468,4.368,4.368,0,0,0,1.107-.123,8.222,8.222,0,0,0,1.053-.369l.308,1.258a4.7,4.7,0,0,1-1.241.54A5.794,5.794,0,0,1,155.613,13.144ZM156.331,7a1.279,1.279,0,0,0-.971.414,2.419,2.419,0,0,0-.561,1.09l.014.041h2.42l.027-.15a1.625,1.625,0,0,0-.123-1.029A.851.851,0,0,0,156.331,7Zm7.7,6a2.6,2.6,0,0,1-.092-.509,4.575,4.575,0,0,1-.01-.591,3.412,3.412,0,0,1-.943.892,2.282,2.282,0,0,1-1.251.352,2.186,2.186,0,0,1-1.688-.6,1.894,1.894,0,0,1-.41-1.627,2.323,2.323,0,0,1,1.083-1.7,4.676,4.676,0,0,1,2.533-.588h1.114l.089-.588a1.049,1.049,0,0,0-.161-.834.968.968,0,0,0-.79-.287,1.244,1.244,0,0,0-.779.236.935.935,0,0,0-.362.646h-1.921l-.007-.041a2.233,2.233,0,0,1,1.053-1.63,4.026,4.026,0,0,1,2.358-.667,2.923,2.923,0,0,1,2.041.673,2.037,2.037,0,0,1,.564,1.917L166,11.113a5.2,5.2,0,0,0-.065.984,4.9,4.9,0,0,0,.12.9Zm-1.593-1.333a1.906,1.906,0,0,0,.964-.263,1.723,1.723,0,0,0,.656-.6l.15-1.039h-1.121a1.508,1.508,0,0,0-1,.318,1.191,1.191,0,0,0-.441.769.665.665,0,0,0,.15.6A.857.857,0,0,0,162.436,11.667ZM169.326,13h-2l1.545-10.664h2Z" transform="translate(-9672.524 -8207.117)" fill="#1a2f50"/>
      <path id="Trazado_904317" data-name="Trazado 904317" d="M5.284,3.047a3.552,3.552,0,0,1,2.81,1.172A3.536,3.536,0,0,1,8.866,7.2L8.627,8.851a4.693,4.693,0,0,1-1.613,3.011A4.742,4.742,0,0,1,3.842,13H.362L1.8,3.047Zm-1.7,1.538-1,6.884H4.061a2.276,2.276,0,0,0,1.678-.738,3.312,3.312,0,0,0,.892-1.88L6.87,7.189a2.592,2.592,0,0,0-.332-1.883,1.677,1.677,0,0,0-1.48-.721Zm9.146,8.559a2.941,2.941,0,0,1-2.444-1.022A3.246,3.246,0,0,1,9.7,9.514l.041-.273a4.681,4.681,0,0,1,1.3-2.738,3.563,3.563,0,0,1,2.635-1.036,2.476,2.476,0,0,1,2.133.916,3.235,3.235,0,0,1,.458,2.454l-.15,1.032H11.7l-.014.034a1.712,1.712,0,0,0,.28,1.241,1.4,1.4,0,0,0,1.189.468,4.368,4.368,0,0,0,1.107-.123,8.222,8.222,0,0,0,1.053-.369l.308,1.258a4.694,4.694,0,0,1-1.241.54A5.794,5.794,0,0,1,12.729,13.144ZM13.446,7a1.279,1.279,0,0,0-.971.414,2.419,2.419,0,0,0-.561,1.09l.014.041h2.42l.027-.15a1.625,1.625,0,0,0-.123-1.029A.851.851,0,0,0,13.446,7Zm3.849,6,.868-6h-1.1l.205-1.4h1.094l.123-.82a2.917,2.917,0,0,1,.995-1.931,3.245,3.245,0,0,1,2.116-.66,3.307,3.307,0,0,1,.509.041q.263.041.564.1l-.383,1.483q-.157-.027-.311-.048a2.751,2.751,0,0,0-.359-.021,1.1,1.1,0,0,0-.769.27,1.215,1.215,0,0,0-.366.762l-.123.82h1.429L21.581,7H20.159l-.868,6Zm4.566-3.767a4.6,4.6,0,0,1,1.316-2.728,3.731,3.731,0,0,1,2.71-1.039,2.8,2.8,0,0,1,2.393,1.06,3.528,3.528,0,0,1,.561,2.707l-.021.144A4.622,4.622,0,0,1,27.5,12.111a3.742,3.742,0,0,1-2.714,1.032,2.808,2.808,0,0,1-2.4-1.056,3.49,3.49,0,0,1-.547-2.71Zm1.969.144a3.017,3.017,0,0,0,.116,1.634,1.043,1.043,0,0,0,1.06.6,1.443,1.443,0,0,0,1.213-.619,3.5,3.5,0,0,0,.6-1.617l.021-.144a2.989,2.989,0,0,0-.126-1.617A1.041,1.041,0,0,0,25.662,7a1.436,1.436,0,0,0-1.213.629,3.481,3.481,0,0,0-.6,1.6Zm10.4-2.058L33.51,7.3a1.437,1.437,0,0,0-.755.191,1.507,1.507,0,0,0-.523.54L31.514,13H29.524L30.6,5.6H32.45L32.382,6.69a2.772,2.772,0,0,1,.8-.906,1.725,1.725,0,0,1,1-.318,1.452,1.452,0,0,1,.27.024q.126.024.25.058Zm3.09-.759a2.942,2.942,0,0,1,1-.81,2.884,2.884,0,0,1,1.289-.284,2.02,2.02,0,0,1,1.152.314,1.587,1.587,0,0,1,.639.943A3.086,3.086,0,0,1,42.427,5.8a2.724,2.724,0,0,1,1.343-.332,1.8,1.8,0,0,1,1.6.779,3.39,3.39,0,0,1,.3,2.365L45.035,13h-2l.636-4.4a1.972,1.972,0,0,0-.089-1.248.841.841,0,0,0-.766-.338,1.526,1.526,0,0,0-.759.191,1.748,1.748,0,0,0-.581.533q-.007.1-.017.2t-.024.2l-.7,4.86H38.746l.636-4.4a1.937,1.937,0,0,0-.092-1.237.84.84,0,0,0-.769-.349,1.641,1.641,0,0,0-.731.161,1.745,1.745,0,0,0-.574.455L36.442,13H34.453l1.073-7.4h1.853ZM50.887,13a2.6,2.6,0,0,1-.092-.509,4.573,4.573,0,0,1-.01-.591,3.412,3.412,0,0,1-.943.892,2.282,2.282,0,0,1-1.251.352,2.186,2.186,0,0,1-1.688-.6,1.894,1.894,0,0,1-.41-1.627,2.323,2.323,0,0,1,1.083-1.7,4.676,4.676,0,0,1,2.533-.588h1.114l.089-.588a1.049,1.049,0,0,0-.161-.834.968.968,0,0,0-.79-.287,1.244,1.244,0,0,0-.779.236.935.935,0,0,0-.362.646H47.3l-.007-.041a2.233,2.233,0,0,1,1.053-1.63A4.026,4.026,0,0,1,50.7,5.467a2.923,2.923,0,0,1,2.041.673,2.037,2.037,0,0,1,.564,1.917l-.444,3.056a5.205,5.205,0,0,0-.065.984,4.9,4.9,0,0,0,.12.9Zm-1.593-1.333a1.906,1.906,0,0,0,.964-.263,1.723,1.723,0,0,0,.656-.6l.15-1.039H49.943a1.508,1.508,0,0,0-1,.318,1.191,1.191,0,0,0-.441.769.665.665,0,0,0,.15.6A.857.857,0,0,0,49.294,11.667Zm8.08-.055a1.276,1.276,0,0,0,.865-.311,1.333,1.333,0,0,0,.441-.831h1.812l.014.041a2.744,2.744,0,0,1-1.1,1.89,3.569,3.569,0,0,1-2.246.742,2.724,2.724,0,0,1-2.369-1.056,3.53,3.53,0,0,1-.523-2.676l.027-.205a4.62,4.62,0,0,1,1.282-2.7,3.638,3.638,0,0,1,2.683-1.039,2.667,2.667,0,0,1,2.054.783A2.3,2.3,0,0,1,60.826,8.3l-.014.034H58.987a1.343,1.343,0,0,0-.167-.957A.879.879,0,0,0,58.03,7a1.352,1.352,0,0,0-1.179.625,3.691,3.691,0,0,0-.564,1.576l-.027.205a3.17,3.17,0,0,0,.085,1.6A.984.984,0,0,0,57.374,11.612ZM63.4,13h-2L62.48,5.6h2Zm1.326-9.167h-2l.219-1.5h2Zm.554,5.4A4.6,4.6,0,0,1,66.6,6.506a3.731,3.731,0,0,1,2.71-1.039A2.8,2.8,0,0,1,71.7,6.526a3.528,3.528,0,0,1,.561,2.707l-.021.144a4.622,4.622,0,0,1-1.319,2.734,3.742,3.742,0,0,1-2.714,1.032,2.808,2.808,0,0,1-2.4-1.056,3.49,3.49,0,0,1-.547-2.71Zm1.969.144a3.017,3.017,0,0,0,.116,1.634,1.043,1.043,0,0,0,1.06.6,1.443,1.443,0,0,0,1.213-.619,3.5,3.5,0,0,0,.6-1.617l.021-.144a2.988,2.988,0,0,0-.126-1.617A1.041,1.041,0,0,0,69.084,7a1.436,1.436,0,0,0-1.213.629,3.481,3.481,0,0,0-.6,1.6ZM70.13,2.445h2.215l.014.041L70.212,4.264H68.558l-.014-.034Zm5.653,4.2a3.228,3.228,0,0,1,1.029-.868,2.667,2.667,0,0,1,1.261-.308,1.882,1.882,0,0,1,1.63.728,3.125,3.125,0,0,1,.311,2.273L79.358,13h-2l.656-4.525A1.662,1.662,0,0,0,77.9,7.34a.894.894,0,0,0-.786-.321,1.857,1.857,0,0,0-1.436.649L74.908,13h-2l1.073-7.4h1.859ZM3.445,28.144A2.941,2.941,0,0,1,1,27.122a3.246,3.246,0,0,1-.584-2.608l.041-.273a4.681,4.681,0,0,1,1.3-2.738,3.563,3.563,0,0,1,2.635-1.036,2.476,2.476,0,0,1,2.133.916,3.235,3.235,0,0,1,.458,2.454l-.15,1.032H2.413L2.4,24.9a1.712,1.712,0,0,0,.28,1.241,1.4,1.4,0,0,0,1.189.468,4.368,4.368,0,0,0,1.107-.123,8.222,8.222,0,0,0,1.053-.369l.308,1.258a4.694,4.694,0,0,1-1.241.54A5.794,5.794,0,0,1,3.445,28.144ZM4.163,22a1.279,1.279,0,0,0-.971.414,2.419,2.419,0,0,0-.561,1.09l.014.041h2.42l.027-.15a1.625,1.625,0,0,0-.123-1.029A.851.851,0,0,0,4.163,22Zm5.476,6h-2L9.188,17.336h2ZM15.6,28a2.6,2.6,0,0,1-.092-.509,4.573,4.573,0,0,1-.01-.591,3.412,3.412,0,0,1-.943.892,2.282,2.282,0,0,1-1.251.352,2.186,2.186,0,0,1-1.688-.6,1.894,1.894,0,0,1-.41-1.627,2.323,2.323,0,0,1,1.083-1.7,4.676,4.676,0,0,1,2.533-.588h1.114l.089-.588a1.049,1.049,0,0,0-.161-.834.968.968,0,0,0-.79-.287,1.244,1.244,0,0,0-.779.236.935.935,0,0,0-.362.646H12.011L12,22.764a2.233,2.233,0,0,1,1.053-1.63,4.026,4.026,0,0,1,2.358-.667,2.923,2.923,0,0,1,2.041.673,2.037,2.037,0,0,1,.564,1.917l-.444,3.056a5.205,5.205,0,0,0-.065.984,4.9,4.9,0,0,0,.12.9Zm-1.593-1.333a1.906,1.906,0,0,0,.964-.263,1.723,1.723,0,0,0,.656-.6l.15-1.039H14.656a1.508,1.508,0,0,0-1,.318,1.191,1.191,0,0,0-.441.769.665.665,0,0,0,.15.6A.857.857,0,0,0,14.007,26.667Zm2.146-9.222h2.215l.014.041-2.146,1.777H14.581l-.014-.034Zm6.966,8.5a.582.582,0,0,0-.236-.564,2.962,2.962,0,0,0-1.125-.414,4.068,4.068,0,0,1-1.859-.786,1.506,1.506,0,0,1-.479-1.429,2.4,2.4,0,0,1,1.032-1.63,3.678,3.678,0,0,1,2.242-.66,3.119,3.119,0,0,1,2.136.673,1.706,1.706,0,0,1,.591,1.665l-.014.041H23.481a.891.891,0,0,0-.188-.728,1,1,0,0,0-.79-.277,1.276,1.276,0,0,0-.79.239.87.87,0,0,0-.366.588.576.576,0,0,0,.212.561,2.89,2.89,0,0,0,1.128.383,4.131,4.131,0,0,1,1.911.8,1.561,1.561,0,0,1,.468,1.459,2.336,2.336,0,0,1-1.083,1.644,4.129,4.129,0,0,1-2.348.625,3.026,3.026,0,0,1-2.211-.755,1.825,1.825,0,0,1-.6-1.7l.021-.041h1.825a.911.911,0,0,0,.27.861,1.442,1.442,0,0,0,.926.267,1.523,1.523,0,0,0,.868-.222A.848.848,0,0,0,23.119,25.949Zm6.59-7.157L29.442,20.6h1.251L30.488,22H29.244L28.7,25.771a.777.777,0,0,0,.085.622.568.568,0,0,0,.455.178,2,2,0,0,0,.273-.017,2.2,2.2,0,0,0,.273-.058l-.041,1.442a4.41,4.41,0,0,1-.608.154,3.661,3.661,0,0,1-.629.051,1.852,1.852,0,0,1-1.5-.574,2.221,2.221,0,0,1-.308-1.791L27.248,22h-1.08l.205-1.4h1.073l.267-1.812ZM32.922,28h-2L32,20.6h2Zm1.326-9.167h-2l.219-1.5h2Zm3.6,7.779a1.276,1.276,0,0,0,.865-.311,1.333,1.333,0,0,0,.441-.831h1.812l.014.041a2.744,2.744,0,0,1-1.1,1.89,3.569,3.569,0,0,1-2.246.742,2.724,2.724,0,0,1-2.369-1.056,3.53,3.53,0,0,1-.523-2.676l.027-.205a4.62,4.62,0,0,1,1.282-2.7,3.638,3.638,0,0,1,2.683-1.039,2.667,2.667,0,0,1,2.054.783A2.3,2.3,0,0,1,41.3,23.3l-.014.034H39.464a1.343,1.343,0,0,0-.167-.957.879.879,0,0,0-.79-.376,1.352,1.352,0,0,0-1.179.625,3.691,3.691,0,0,0-.564,1.576l-.027.205a3.17,3.17,0,0,0,.085,1.6A.984.984,0,0,0,37.851,26.612ZM46.1,28a2.6,2.6,0,0,1-.092-.509A4.573,4.573,0,0,1,46,26.9a3.412,3.412,0,0,1-.943.892,2.282,2.282,0,0,1-1.251.352,2.186,2.186,0,0,1-1.688-.6,1.894,1.894,0,0,1-.41-1.627,2.323,2.323,0,0,1,1.083-1.7,4.676,4.676,0,0,1,2.533-.588h1.114l.089-.588a1.049,1.049,0,0,0-.161-.834.968.968,0,0,0-.79-.287,1.244,1.244,0,0,0-.779.236.935.935,0,0,0-.362.646H42.513l-.007-.041a2.233,2.233,0,0,1,1.053-1.63,4.026,4.026,0,0,1,2.358-.667,2.923,2.923,0,0,1,2.041.673,2.037,2.037,0,0,1,.564,1.917l-.444,3.056a5.205,5.205,0,0,0-.065.984,4.9,4.9,0,0,0,.12.9Zm-1.593-1.333a1.906,1.906,0,0,0,.964-.263,1.723,1.723,0,0,0,.656-.6l.15-1.039H45.158a1.508,1.508,0,0,0-1,.318,1.191,1.191,0,0,0-.441.769.665.665,0,0,0,.15.6A.857.857,0,0,0,44.509,26.667Zm11.115-5.024a3.228,3.228,0,0,1,1.029-.868,2.667,2.667,0,0,1,1.261-.308,1.882,1.882,0,0,1,1.63.728,3.125,3.125,0,0,1,.311,2.273L59.2,28h-2l.656-4.525a1.662,1.662,0,0,0-.109-1.135.894.894,0,0,0-.786-.321,1.857,1.857,0,0,0-1.436.649L54.749,28h-2l1.073-7.4h1.859Zm5.3,2.591a4.6,4.6,0,0,1,1.316-2.728,3.731,3.731,0,0,1,2.71-1.039,2.8,2.8,0,0,1,2.393,1.06,3.528,3.528,0,0,1,.561,2.707l-.021.144a4.622,4.622,0,0,1-1.319,2.734,3.742,3.742,0,0,1-2.714,1.032,2.808,2.808,0,0,1-2.4-1.056,3.49,3.49,0,0,1-.547-2.71Zm1.969.144a3.017,3.017,0,0,0,.116,1.634,1.043,1.043,0,0,0,1.06.6,1.443,1.443,0,0,0,1.213-.619,3.5,3.5,0,0,0,.6-1.617l.021-.144a2.988,2.988,0,0,0-.126-1.617A1.041,1.041,0,0,0,64.729,22a1.436,1.436,0,0,0-1.213.629,3.481,3.481,0,0,0-.6,1.6ZM74.177,28h-2l1.545-10.664h2Zm3.78,0h-2l1.073-7.4h2Zm.9-10.411h2.215l.014.041-2.146,1.777H77.28l-.014-.034ZM82.5,21.643a3.228,3.228,0,0,1,1.029-.868,2.667,2.667,0,0,1,1.261-.308,1.882,1.882,0,0,1,1.63.728,3.125,3.125,0,0,1,.311,2.273L86.071,28h-2l.656-4.525a1.662,1.662,0,0,0-.109-1.135.894.894,0,0,0-.786-.321,1.857,1.857,0,0,0-1.436.649L81.621,28h-2L80.7,20.6h1.859Zm8.292,6.5a2.941,2.941,0,0,1-2.444-1.022,3.246,3.246,0,0,1-.584-2.608l.041-.273A4.681,4.681,0,0,1,89.1,21.5a3.563,3.563,0,0,1,2.635-1.036,2.476,2.476,0,0,1,2.133.916,3.235,3.235,0,0,1,.458,2.454l-.15,1.032H89.756l-.014.034a1.712,1.712,0,0,0,.28,1.241,1.4,1.4,0,0,0,1.189.468,4.369,4.369,0,0,0,1.107-.123,8.222,8.222,0,0,0,1.053-.369l.308,1.258a4.694,4.694,0,0,1-1.241.54A5.794,5.794,0,0,1,90.788,28.144ZM91.506,22a1.279,1.279,0,0,0-.971.414,2.419,2.419,0,0,0-.561,1.09l.014.041h2.42l.027-.15a1.625,1.625,0,0,0-.123-1.029A.851.851,0,0,0,91.506,22Zm7.7,6a2.6,2.6,0,0,1-.092-.509,4.572,4.572,0,0,1-.01-.591,3.412,3.412,0,0,1-.943.892,2.282,2.282,0,0,1-1.251.352,2.186,2.186,0,0,1-1.688-.6,1.894,1.894,0,0,1-.41-1.627,2.323,2.323,0,0,1,1.083-1.7,4.676,4.676,0,0,1,2.533-.588h1.114l.089-.588a1.049,1.049,0,0,0-.161-.834.968.968,0,0,0-.79-.287,1.244,1.244,0,0,0-.779.236.935.935,0,0,0-.362.646H95.614l-.007-.041a2.233,2.233,0,0,1,1.053-1.63,4.026,4.026,0,0,1,2.358-.667,2.923,2.923,0,0,1,2.041.673,2.037,2.037,0,0,1,.564,1.917l-.444,3.056a5.206,5.206,0,0,0-.065.984,4.9,4.9,0,0,0,.12.9ZM97.61,26.667a1.906,1.906,0,0,0,.964-.263,1.723,1.723,0,0,0,.656-.6l.15-1.039H98.26a1.508,1.508,0,0,0-1,.318,1.191,1.191,0,0,0-.441.769.665.665,0,0,0,.15.6A.857.857,0,0,0,97.61,26.667ZM104.5,28h-2l1.545-10.664h2Z" transform="translate(-9684.015 -8255.521)" fill="#1a2f50"/>
      <path id="Trazado_904316" data-name="Trazado 904316" d="M8.306-3.295l.014.041A3.629,3.629,0,0,1,6.993-.742,4.526,4.526,0,0,1,4.1.144,3.3,3.3,0,0,1,1.4-1.015a3.634,3.634,0,0,1-.687-2.97l.28-1.976a4.874,4.874,0,0,1,1.5-3A4.252,4.252,0,0,1,5.482-10.1a3.7,3.7,0,0,1,2.693.9,2.681,2.681,0,0,1,.656,2.5l-.021.041H6.87A1.8,1.8,0,0,0,6.621-8.1a1.7,1.7,0,0,0-1.357-.458,1.9,1.9,0,0,0-1.5.728,3.538,3.538,0,0,0-.779,1.856L2.7-3.985A2.809,2.809,0,0,0,2.946-2.1a1.475,1.475,0,0,0,1.374.714,1.993,1.993,0,0,0,1.4-.472,2.344,2.344,0,0,0,.66-1.436Zm5.469,2.222a3.016,3.016,0,0,1-1,.9A2.6,2.6,0,0,1,11.5.144a1.942,1.942,0,0,1-1.7-.8A3.414,3.414,0,0,1,9.488-3.11L10.11-7.4H12.1l-.622,4.3a2.228,2.228,0,0,0,.062,1.34.829.829,0,0,0,.772.349,2.07,2.07,0,0,0,.834-.161,1.734,1.734,0,0,0,.629-.461L14.561-7.4h2L15.483,0H13.829ZM20.214.144A2.941,2.941,0,0,1,17.77-.878a3.246,3.246,0,0,1-.584-2.608l.041-.273a4.681,4.681,0,0,1,1.3-2.738,3.563,3.563,0,0,1,2.635-1.036,2.476,2.476,0,0,1,2.133.916,3.235,3.235,0,0,1,.458,2.454L23.6-3.131H19.182l-.014.034a1.712,1.712,0,0,0,.28,1.241,1.4,1.4,0,0,0,1.189.468,4.368,4.368,0,0,0,1.107-.123A8.222,8.222,0,0,0,22.8-1.88l.308,1.258a4.694,4.694,0,0,1-1.241.54A5.794,5.794,0,0,1,20.214.144ZM20.932-6a1.279,1.279,0,0,0-.971.414,2.419,2.419,0,0,0-.561,1.09l.014.041h2.42l.027-.15a1.625,1.625,0,0,0-.123-1.029A.851.851,0,0,0,20.932-6Zm5.476,6h-2l1.545-10.664h2Zm3.739,0h-2L29.7-10.664h2Zm1.88-3.767a4.6,4.6,0,0,1,1.316-2.728,3.731,3.731,0,0,1,2.71-1.039,2.8,2.8,0,0,1,2.393,1.06,3.528,3.528,0,0,1,.561,2.707l-.021.144A4.622,4.622,0,0,1,37.666-.889,3.742,3.742,0,0,1,34.952.144a2.808,2.808,0,0,1-2.4-1.056,3.49,3.49,0,0,1-.547-2.71ZM34-3.623a3.017,3.017,0,0,0,.116,1.634,1.043,1.043,0,0,0,1.06.6,1.443,1.443,0,0,0,1.213-.619,3.5,3.5,0,0,0,.6-1.617l.021-.144a2.989,2.989,0,0,0-.126-1.617A1.041,1.041,0,0,0,35.827-6a1.436,1.436,0,0,0-1.213.629,3.481,3.481,0,0,0-.6,1.6Z" transform="translate(-9635.133 -8289.729)" fill="#1a2f50"/>
      <path id="Trazado_904315" data-name="Trazado 904315" d="M2.577-1.531H7.041L6.822,0H.362L1.8-9.953h2ZM10.131,0h-2L9.208-7.4h2Zm.9-10.411h2.215l.014.041L11.108-8.593H9.454L9.44-8.627ZM14.7-6.439a2.942,2.942,0,0,1,1-.81,2.884,2.884,0,0,1,1.289-.284,2.02,2.02,0,0,1,1.152.314,1.587,1.587,0,0,1,.639.943A3.086,3.086,0,0,1,19.807-7.2a2.724,2.724,0,0,1,1.343-.332,1.8,1.8,0,0,1,1.6.779,3.39,3.39,0,0,1,.3,2.365L22.415,0h-2l.636-4.4a1.972,1.972,0,0,0-.089-1.248.841.841,0,0,0-.766-.338,1.526,1.526,0,0,0-.759.191,1.748,1.748,0,0,0-.581.533q-.007.1-.017.2t-.024.2L18.115,0H16.126l.636-4.4a1.937,1.937,0,0,0-.092-1.237.84.84,0,0,0-.769-.349,1.641,1.641,0,0,0-.731.161,1.745,1.745,0,0,0-.574.455L13.822,0H11.833l1.073-7.4h1.853ZM26.045,0h-2l1.073-7.4h2Zm1.326-9.167h-2l.219-1.5h2Zm4.006-.041L31.11-7.4h1.251L32.156-6H30.912l-.547,3.767a.777.777,0,0,0,.085.622.569.569,0,0,0,.455.178,2,2,0,0,0,.273-.017,2.2,2.2,0,0,0,.273-.058L31.411-.062A4.41,4.41,0,0,1,30.8.092a3.661,3.661,0,0,1-.629.051,1.852,1.852,0,0,1-1.5-.574,2.221,2.221,0,0,1-.308-1.791L28.916-6h-1.08l.205-1.4h1.073l.267-1.812ZM35.718.144A2.941,2.941,0,0,1,33.274-.878a3.246,3.246,0,0,1-.584-2.608l.041-.273a4.681,4.681,0,0,1,1.3-2.738,3.563,3.563,0,0,1,2.635-1.036,2.476,2.476,0,0,1,2.133.916,3.235,3.235,0,0,1,.458,2.454L39.1-3.131H34.686l-.014.034a1.712,1.712,0,0,0,.28,1.241,1.4,1.4,0,0,0,1.189.468,4.368,4.368,0,0,0,1.107-.123A8.222,8.222,0,0,0,38.3-1.88l.308,1.258a4.694,4.694,0,0,1-1.241.54A5.794,5.794,0,0,1,35.718.144ZM36.436-6a1.279,1.279,0,0,0-.971.414,2.419,2.419,0,0,0-.561,1.09l.014.041h2.42l.027-.15a1.625,1.625,0,0,0-.123-1.029A.851.851,0,0,0,36.436-6ZM46.525.144A2.941,2.941,0,0,1,44.082-.878,3.246,3.246,0,0,1,43.5-3.486l.041-.273a4.681,4.681,0,0,1,1.3-2.738,3.563,3.563,0,0,1,2.635-1.036,2.476,2.476,0,0,1,2.133.916,3.235,3.235,0,0,1,.458,2.454l-.15,1.032H45.493l-.014.034a1.712,1.712,0,0,0,.28,1.241,1.4,1.4,0,0,0,1.189.468,4.368,4.368,0,0,0,1.107-.123,8.222,8.222,0,0,0,1.053-.369l.308,1.258a4.694,4.694,0,0,1-1.241.54A5.794,5.794,0,0,1,46.525.144ZM47.243-6a1.279,1.279,0,0,0-.971.414,2.419,2.419,0,0,0-.561,1.09l.014.041h2.42l.027-.15a1.625,1.625,0,0,0-.123-1.029A.851.851,0,0,0,47.243-6Zm5.476,6h-2l1.545-10.664h2ZM58.68,0a2.6,2.6,0,0,1-.092-.509,4.573,4.573,0,0,1-.01-.591,3.412,3.412,0,0,1-.943.892,2.282,2.282,0,0,1-1.251.352,2.186,2.186,0,0,1-1.688-.6,1.894,1.894,0,0,1-.41-1.627,2.323,2.323,0,0,1,1.083-1.7A4.676,4.676,0,0,1,57.9-4.368h1.114l.089-.588a1.049,1.049,0,0,0-.161-.834.968.968,0,0,0-.79-.287,1.244,1.244,0,0,0-.779.236.935.935,0,0,0-.362.646H55.091l-.007-.041a2.233,2.233,0,0,1,1.053-1.63A4.026,4.026,0,0,1,58.5-7.533a2.923,2.923,0,0,1,2.041.673A2.037,2.037,0,0,1,61.1-4.942l-.444,3.056A5.205,5.205,0,0,0,60.59-.9a4.9,4.9,0,0,0,.12.9ZM57.087-1.333a1.906,1.906,0,0,0,.964-.263,1.723,1.723,0,0,0,.656-.6l.15-1.039H57.736a1.508,1.508,0,0,0-1,.318,1.191,1.191,0,0,0-.441.769.665.665,0,0,0,.15.6A.857.857,0,0,0,57.087-1.333Zm2.146-9.222h2.215l.014.041L59.315-8.736H57.661l-.014-.034Zm6.966,8.5a.582.582,0,0,0-.236-.564,2.962,2.962,0,0,0-1.125-.414,4.068,4.068,0,0,1-1.859-.786A1.506,1.506,0,0,1,62.5-5.243a2.4,2.4,0,0,1,1.032-1.63,3.678,3.678,0,0,1,2.242-.66,3.119,3.119,0,0,1,2.136.673A1.706,1.706,0,0,1,68.5-5.2l-.014.041H66.562a.891.891,0,0,0-.188-.728,1,1,0,0,0-.79-.277,1.276,1.276,0,0,0-.79.239.87.87,0,0,0-.366.588.576.576,0,0,0,.212.561,2.89,2.89,0,0,0,1.128.383,4.131,4.131,0,0,1,1.911.8,1.561,1.561,0,0,1,.468,1.459A2.336,2.336,0,0,1,67.064-.482a4.129,4.129,0,0,1-2.348.625A3.026,3.026,0,0,1,62.5-.612a1.825,1.825,0,0,1-.6-1.7l.021-.041h1.825a.911.911,0,0,0,.27.861,1.442,1.442,0,0,0,.926.267,1.523,1.523,0,0,0,.868-.222A.848.848,0,0,0,66.2-2.051Zm6.59-7.157L72.522-7.4h1.251L73.568-6H72.324l-.547,3.767a.777.777,0,0,0,.085.622.568.568,0,0,0,.455.178,2,2,0,0,0,.273-.017,2.2,2.2,0,0,0,.273-.058L72.823-.062a4.41,4.41,0,0,1-.608.154,3.661,3.661,0,0,1-.629.051,1.852,1.852,0,0,1-1.5-.574,2.221,2.221,0,0,1-.308-1.791L70.328-6h-1.08l.205-1.4h1.073l.267-1.812ZM76,0h-2l1.073-7.4h2Zm1.326-9.167h-2l.219-1.5h2Zm3.6,7.779A1.276,1.276,0,0,0,81.8-1.7a1.333,1.333,0,0,0,.441-.831h1.812l.014.041a2.744,2.744,0,0,1-1.1,1.89,3.569,3.569,0,0,1-2.246.742A2.724,2.724,0,0,1,78.343-.913a3.53,3.53,0,0,1-.523-2.676l.027-.205a4.62,4.62,0,0,1,1.282-2.7,3.638,3.638,0,0,1,2.683-1.039,2.667,2.667,0,0,1,2.054.783A2.3,2.3,0,0,1,84.383-4.7l-.014.034H82.544a1.343,1.343,0,0,0-.167-.957A.879.879,0,0,0,81.587-6a1.352,1.352,0,0,0-1.179.625,3.691,3.691,0,0,0-.564,1.576l-.027.205a3.17,3.17,0,0,0,.085,1.6A.984.984,0,0,0,80.931-1.388ZM85.1-3.767a4.6,4.6,0,0,1,1.316-2.728,3.731,3.731,0,0,1,2.71-1.039,2.8,2.8,0,0,1,2.393,1.06,3.528,3.528,0,0,1,.561,2.707l-.021.144A4.622,4.622,0,0,1,90.74-.889,3.742,3.742,0,0,1,88.026.144a2.808,2.808,0,0,1-2.4-1.056,3.49,3.49,0,0,1-.547-2.71Zm1.969.144a3.017,3.017,0,0,0,.116,1.634,1.043,1.043,0,0,0,1.06.6,1.443,1.443,0,0,0,1.213-.619,3.5,3.5,0,0,0,.6-1.617l.021-.144a2.988,2.988,0,0,0-.126-1.617A1.041,1.041,0,0,0,88.9-6a1.436,1.436,0,0,0-1.213.629,3.481,3.481,0,0,0-.6,1.6Z" transform="translate(-9656.774 -8320.185)" fill="#1a2f50"/>
      <path id="Trazado_904323" data-name="Trazado 904323" d="M8.524-8.415H5.681L4.464,0h-2L3.685-8.415H.882l.226-1.538H8.75ZM10.37.144A2.941,2.941,0,0,1,7.926-.878a3.246,3.246,0,0,1-.584-2.608l.041-.273A4.681,4.681,0,0,1,8.678-6.5a3.563,3.563,0,0,1,2.635-1.036,2.476,2.476,0,0,1,2.133.916A3.235,3.235,0,0,1,13.9-4.163l-.15,1.032H9.338L9.324-3.1A1.712,1.712,0,0,0,9.6-1.856a1.4,1.4,0,0,0,1.189.468A4.368,4.368,0,0,0,11.9-1.511a8.222,8.222,0,0,0,1.053-.369l.308,1.258a4.694,4.694,0,0,1-1.241.54A5.794,5.794,0,0,1,10.37.144ZM11.088-6a1.279,1.279,0,0,0-.971.414,2.419,2.419,0,0,0-.561,1.09l.014.041h2.42l.027-.15a1.625,1.625,0,0,0-.123-1.029A.851.851,0,0,0,11.088-6ZM17.3-6.357a3.228,3.228,0,0,1,1.029-.868,2.667,2.667,0,0,1,1.261-.308,1.882,1.882,0,0,1,1.63.728,3.125,3.125,0,0,1,.311,2.273L20.877,0h-2l.656-4.525a1.662,1.662,0,0,0-.109-1.135.894.894,0,0,0-.786-.321,1.874,1.874,0,0,0-.8.171,1.883,1.883,0,0,0-.632.479L16.427,0h-2L15.5-7.4h1.859Zm9.386,4.307a.582.582,0,0,0-.236-.564,2.962,2.962,0,0,0-1.125-.414,4.068,4.068,0,0,1-1.859-.786,1.506,1.506,0,0,1-.479-1.429,2.4,2.4,0,0,1,1.032-1.63,3.678,3.678,0,0,1,2.242-.66A3.119,3.119,0,0,1,28.4-6.86,1.706,1.706,0,0,1,28.991-5.2l-.014.041H27.05a.891.891,0,0,0-.188-.728,1,1,0,0,0-.79-.277,1.276,1.276,0,0,0-.79.239.87.87,0,0,0-.366.588.576.576,0,0,0,.212.561,2.89,2.89,0,0,0,1.128.383,4.131,4.131,0,0,1,1.911.8,1.561,1.561,0,0,1,.468,1.459A2.336,2.336,0,0,1,27.552-.482,4.129,4.129,0,0,1,25.2.144a3.026,3.026,0,0,1-2.211-.755,1.825,1.825,0,0,1-.6-1.7l.021-.041H24.24a.911.911,0,0,0,.27.861,1.442,1.442,0,0,0,.926.267,1.523,1.523,0,0,0,.868-.222A.848.848,0,0,0,26.688-2.051Zm5,2.051h-2l1.073-7.4h2Zm1.326-9.167h-2l.219-1.5h2Zm.554,5.4A4.6,4.6,0,0,1,34.88-6.494a3.731,3.731,0,0,1,2.71-1.039,2.8,2.8,0,0,1,2.393,1.06,3.528,3.528,0,0,1,.561,2.707l-.021.144A4.622,4.622,0,0,1,39.2-.889,3.742,3.742,0,0,1,36.49.144a2.808,2.808,0,0,1-2.4-1.056,3.49,3.49,0,0,1-.547-2.71Zm1.969.144a3.017,3.017,0,0,0,.116,1.634,1.043,1.043,0,0,0,1.06.6,1.443,1.443,0,0,0,1.213-.619,3.5,3.5,0,0,0,.6-1.617l.021-.144a2.989,2.989,0,0,0-.126-1.617A1.041,1.041,0,0,0,37.365-6a1.436,1.436,0,0,0-1.213.629,3.481,3.481,0,0,0-.6,1.6Zm2.878-6.932h2.215l.014.041L38.493-8.736H36.839l-.014-.034Zm5.653,4.2a3.228,3.228,0,0,1,1.029-.868,2.667,2.667,0,0,1,1.261-.308,1.882,1.882,0,0,1,1.63.728A3.125,3.125,0,0,1,48.3-4.532L47.64,0h-2l.656-4.525a1.662,1.662,0,0,0-.109-1.135.894.894,0,0,0-.786-.321,1.874,1.874,0,0,0-.8.171,1.883,1.883,0,0,0-.632.479L43.189,0h-2l1.073-7.4h1.859Zm8.771,2.721A5.464,5.464,0,0,1,54-6.48a2.888,2.888,0,0,1,2.287-1.053,1.806,1.806,0,0,1,.954.246,2.016,2.016,0,0,1,.68.7l.595-4.074h2L58.974,0h-1.7L57.23-.909a2.985,2.985,0,0,1-.937.783,2.424,2.424,0,0,1-1.135.27,2.14,2.14,0,0,1-1.958-1,3.829,3.829,0,0,1-.386-2.632Zm1.969.144a2.815,2.815,0,0,0,.106,1.538.977.977,0,0,0,.988.547,1.67,1.67,0,0,0,.776-.178,1.724,1.724,0,0,0,.6-.52l.458-3.138a1.215,1.215,0,0,0-.441-.543,1.254,1.254,0,0,0-.714-.195,1.345,1.345,0,0,0-1.155.653,4,4,0,0,0-.595,1.692ZM63.745.144A2.941,2.941,0,0,1,61.3-.878a3.246,3.246,0,0,1-.584-2.608l.041-.273a4.681,4.681,0,0,1,1.3-2.738,3.563,3.563,0,0,1,2.635-1.036,2.476,2.476,0,0,1,2.133.916,3.235,3.235,0,0,1,.458,2.454l-.15,1.032H62.713L62.7-3.1a1.712,1.712,0,0,0,.28,1.241,1.4,1.4,0,0,0,1.189.468,4.369,4.369,0,0,0,1.107-.123,8.222,8.222,0,0,0,1.053-.369l.308,1.258a4.694,4.694,0,0,1-1.241.54A5.794,5.794,0,0,1,63.745.144ZM64.463-6a1.279,1.279,0,0,0-.971.414,2.419,2.419,0,0,0-.561,1.09l.014.041h2.42l.027-.15a1.625,1.625,0,0,0-.123-1.029A.851.851,0,0,0,64.463-6Zm11.573.314L75.312-5.7a1.437,1.437,0,0,0-.755.191,1.507,1.507,0,0,0-.523.54L73.315,0H71.326L72.4-7.4h1.853L74.184-6.31a2.772,2.772,0,0,1,.8-.906,1.725,1.725,0,0,1,1-.318,1.452,1.452,0,0,1,.27.024q.126.024.25.058Zm.185,1.914a4.6,4.6,0,0,1,1.316-2.728,3.731,3.731,0,0,1,2.71-1.039,2.8,2.8,0,0,1,2.393,1.06A3.528,3.528,0,0,1,83.2-3.767l-.021.144A4.622,4.622,0,0,1,81.86-.889,3.742,3.742,0,0,1,79.146.144a2.808,2.808,0,0,1-2.4-1.056,3.49,3.49,0,0,1-.547-2.71Zm1.969.144a3.017,3.017,0,0,0,.116,1.634,1.043,1.043,0,0,0,1.06.6,1.443,1.443,0,0,0,1.213-.619,3.5,3.5,0,0,0,.6-1.617l.021-.144a2.988,2.988,0,0,0-.126-1.617A1.041,1.041,0,0,0,80.021-6a1.436,1.436,0,0,0-1.213.629,3.481,3.481,0,0,0-.6,1.6Zm9.386-5.585L87.309-7.4H88.56L88.354-6H87.11l-.547,3.767a.777.777,0,0,0,.085.622.568.568,0,0,0,.455.178,2,2,0,0,0,.273-.017A2.2,2.2,0,0,0,87.65-1.5L87.609-.062A4.41,4.41,0,0,1,87,.092a3.661,3.661,0,0,1-.629.051,1.852,1.852,0,0,1-1.5-.574,2.221,2.221,0,0,1-.308-1.791L85.114-6h-1.08l.205-1.4h1.073l.267-1.812Zm5.8,8.135a3.016,3.016,0,0,1-1,.9,2.6,2.6,0,0,1-1.271.314,1.942,1.942,0,0,1-1.7-.8,3.414,3.414,0,0,1-.314-2.458L89.715-7.4H91.7l-.622,4.3a2.228,2.228,0,0,0,.062,1.34.829.829,0,0,0,.772.349,2.07,2.07,0,0,0,.834-.161,1.734,1.734,0,0,0,.629-.461L94.165-7.4h2L95.088,0H93.434ZM101.3-5.681l-.725-.021a1.437,1.437,0,0,0-.755.191,1.507,1.507,0,0,0-.523.54L98.581,0H96.592l1.073-7.4h1.853L99.449-6.31a2.772,2.772,0,0,1,.8-.906,1.725,1.725,0,0,1,1-.318,1.452,1.452,0,0,1,.27.024q.126.024.25.058ZM105.841,0a2.6,2.6,0,0,1-.092-.509,4.572,4.572,0,0,1-.01-.591,3.412,3.412,0,0,1-.943.892,2.282,2.282,0,0,1-1.251.352,2.186,2.186,0,0,1-1.688-.6,1.894,1.894,0,0,1-.41-1.627,2.323,2.323,0,0,1,1.083-1.7,4.676,4.676,0,0,1,2.533-.588h1.114l.089-.588a1.049,1.049,0,0,0-.161-.834.968.968,0,0,0-.79-.287,1.244,1.244,0,0,0-.779.236.935.935,0,0,0-.362.646h-1.921l-.007-.041a2.233,2.233,0,0,1,1.053-1.63,4.026,4.026,0,0,1,2.358-.667,2.923,2.923,0,0,1,2.041.673,2.037,2.037,0,0,1,.564,1.917l-.444,3.056a5.206,5.206,0,0,0-.065.984,4.9,4.9,0,0,0,.12.9Zm-1.593-1.333a1.906,1.906,0,0,0,.964-.263,1.723,1.723,0,0,0,.656-.6l.15-1.039H104.9a1.508,1.508,0,0,0-1,.318,1.191,1.191,0,0,0-.441.769.665.665,0,0,0,.15.6A.857.857,0,0,0,104.248-1.333Z" transform="translate(-9511 -8337.259)" fill="#1a2f50"/>
      <path id="Trazado_904322" data-name="Trazado 904322" d="M5.284,3.047a3.552,3.552,0,0,1,2.81,1.172A3.536,3.536,0,0,1,8.866,7.2L8.627,8.851a4.693,4.693,0,0,1-1.613,3.011A4.742,4.742,0,0,1,3.842,13H.362L1.8,3.047Zm-1.7,1.538-1,6.884H4.061a2.276,2.276,0,0,0,1.678-.738,3.312,3.312,0,0,0,.892-1.88L6.87,7.189a2.592,2.592,0,0,0-.332-1.883,1.677,1.677,0,0,0-1.48-.721Zm9.146,8.559a2.941,2.941,0,0,1-2.444-1.022A3.246,3.246,0,0,1,9.7,9.514l.041-.273a4.681,4.681,0,0,1,1.3-2.738,3.563,3.563,0,0,1,2.635-1.036,2.476,2.476,0,0,1,2.133.916,3.235,3.235,0,0,1,.458,2.454l-.15,1.032H11.7l-.014.034a1.712,1.712,0,0,0,.28,1.241,1.4,1.4,0,0,0,1.189.468,4.368,4.368,0,0,0,1.107-.123,8.222,8.222,0,0,0,1.053-.369l.308,1.258a4.694,4.694,0,0,1-1.241.54A5.794,5.794,0,0,1,12.729,13.144ZM13.446,7a1.279,1.279,0,0,0-.971.414,2.419,2.419,0,0,0-.561,1.09l.014.041h2.42l.027-.15a1.625,1.625,0,0,0-.123-1.029A.851.851,0,0,0,13.446,7Zm3.849,6,.868-6h-1.1l.205-1.4h1.094l.123-.82a2.917,2.917,0,0,1,.995-1.931,3.245,3.245,0,0,1,2.116-.66,3.307,3.307,0,0,1,.509.041q.263.041.564.1l-.383,1.483q-.157-.027-.311-.048a2.751,2.751,0,0,0-.359-.021,1.1,1.1,0,0,0-.769.27,1.215,1.215,0,0,0-.366.762l-.123.82h1.429L21.581,7H20.159l-.868,6Zm4.566-3.767a4.6,4.6,0,0,1,1.316-2.728,3.731,3.731,0,0,1,2.71-1.039,2.8,2.8,0,0,1,2.393,1.06,3.528,3.528,0,0,1,.561,2.707l-.021.144A4.622,4.622,0,0,1,27.5,12.111a3.742,3.742,0,0,1-2.714,1.032,2.808,2.808,0,0,1-2.4-1.056,3.49,3.49,0,0,1-.547-2.71Zm1.969.144a3.017,3.017,0,0,0,.116,1.634,1.043,1.043,0,0,0,1.06.6,1.443,1.443,0,0,0,1.213-.619,3.5,3.5,0,0,0,.6-1.617l.021-.144a2.989,2.989,0,0,0-.126-1.617A1.041,1.041,0,0,0,25.662,7a1.436,1.436,0,0,0-1.213.629,3.481,3.481,0,0,0-.6,1.6Zm10.4-2.058L33.51,7.3a1.437,1.437,0,0,0-.755.191,1.507,1.507,0,0,0-.523.54L31.514,13H29.524L30.6,5.6H32.45L32.382,6.69a2.772,2.772,0,0,1,.8-.906,1.725,1.725,0,0,1,1-.318,1.452,1.452,0,0,1,.27.024q.126.024.25.058Zm3.09-.759a2.942,2.942,0,0,1,1-.81,2.884,2.884,0,0,1,1.289-.284,2.02,2.02,0,0,1,1.152.314,1.587,1.587,0,0,1,.639.943A3.086,3.086,0,0,1,42.427,5.8a2.724,2.724,0,0,1,1.343-.332,1.8,1.8,0,0,1,1.6.779,3.39,3.39,0,0,1,.3,2.365L45.035,13h-2l.636-4.4a1.972,1.972,0,0,0-.089-1.248.841.841,0,0,0-.766-.338,1.526,1.526,0,0,0-.759.191,1.748,1.748,0,0,0-.581.533q-.007.1-.017.2t-.024.2l-.7,4.86H38.746l.636-4.4a1.937,1.937,0,0,0-.092-1.237.84.84,0,0,0-.769-.349,1.641,1.641,0,0,0-.731.161,1.745,1.745,0,0,0-.574.455L36.442,13H34.453l1.073-7.4h1.853ZM50.887,13a2.6,2.6,0,0,1-.092-.509,4.573,4.573,0,0,1-.01-.591,3.412,3.412,0,0,1-.943.892,2.282,2.282,0,0,1-1.251.352,2.186,2.186,0,0,1-1.688-.6,1.894,1.894,0,0,1-.41-1.627,2.323,2.323,0,0,1,1.083-1.7,4.676,4.676,0,0,1,2.533-.588h1.114l.089-.588a1.049,1.049,0,0,0-.161-.834.968.968,0,0,0-.79-.287,1.244,1.244,0,0,0-.779.236.935.935,0,0,0-.362.646H47.3l-.007-.041a2.233,2.233,0,0,1,1.053-1.63A4.026,4.026,0,0,1,50.7,5.467a2.923,2.923,0,0,1,2.041.673,2.037,2.037,0,0,1,.564,1.917l-.444,3.056a5.205,5.205,0,0,0-.065.984,4.9,4.9,0,0,0,.12.9Zm-1.593-1.333a1.906,1.906,0,0,0,.964-.263,1.723,1.723,0,0,0,.656-.6l.15-1.039H49.943a1.508,1.508,0,0,0-1,.318,1.191,1.191,0,0,0-.441.769.665.665,0,0,0,.15.6A.857.857,0,0,0,49.294,11.667Zm8.08-.055a1.276,1.276,0,0,0,.865-.311,1.333,1.333,0,0,0,.441-.831h1.812l.014.041a2.744,2.744,0,0,1-1.1,1.89,3.569,3.569,0,0,1-2.246.742,2.724,2.724,0,0,1-2.369-1.056,3.53,3.53,0,0,1-.523-2.676l.027-.205a4.62,4.62,0,0,1,1.282-2.7,3.638,3.638,0,0,1,2.683-1.039,2.667,2.667,0,0,1,2.054.783A2.3,2.3,0,0,1,60.826,8.3l-.014.034H58.987a1.343,1.343,0,0,0-.167-.957A.879.879,0,0,0,58.03,7a1.352,1.352,0,0,0-1.179.625,3.691,3.691,0,0,0-.564,1.576l-.027.205a3.17,3.17,0,0,0,.085,1.6A.984.984,0,0,0,57.374,11.612ZM63.4,13h-2L62.48,5.6h2Zm1.326-9.167h-2l.219-1.5h2Zm.554,5.4A4.6,4.6,0,0,1,66.6,6.506a3.731,3.731,0,0,1,2.71-1.039A2.8,2.8,0,0,1,71.7,6.526a3.528,3.528,0,0,1,.561,2.707l-.021.144a4.622,4.622,0,0,1-1.319,2.734,3.742,3.742,0,0,1-2.714,1.032,2.808,2.808,0,0,1-2.4-1.056,3.49,3.49,0,0,1-.547-2.71Zm1.969.144a3.017,3.017,0,0,0,.116,1.634,1.043,1.043,0,0,0,1.06.6,1.443,1.443,0,0,0,1.213-.619,3.5,3.5,0,0,0,.6-1.617l.021-.144a2.988,2.988,0,0,0-.126-1.617A1.041,1.041,0,0,0,69.084,7a1.436,1.436,0,0,0-1.213.629,3.481,3.481,0,0,0-.6,1.6ZM70.13,2.445h2.215l.014.041L70.212,4.264H68.558l-.014-.034Zm5.653,4.2a3.228,3.228,0,0,1,1.029-.868,2.667,2.667,0,0,1,1.261-.308,1.882,1.882,0,0,1,1.63.728,3.125,3.125,0,0,1,.311,2.273L79.358,13h-2l.656-4.525A1.662,1.662,0,0,0,77.9,7.34a.894.894,0,0,0-.786-.321,1.857,1.857,0,0,0-1.436.649L74.908,13h-2l1.073-7.4h1.859ZM91.513,9.507a4.888,4.888,0,0,1-1.142,2.656,2.932,2.932,0,0,1-2.263.981,2.06,2.06,0,0,1-.988-.222,1.843,1.843,0,0,1-.687-.653l-.52,3.575H83.925L85.408,5.6h1.8l-.007.875a2.911,2.911,0,0,1,.9-.749,2.351,2.351,0,0,1,1.114-.263,2.086,2.086,0,0,1,1.955,1.08,4.376,4.376,0,0,1,.369,2.816Zm-1.976-.144a3.448,3.448,0,0,0-.1-1.706.953.953,0,0,0-.974-.639,1.6,1.6,0,0,0-.79.191,1.775,1.775,0,0,0-.591.54l-.465,3.227a1.021,1.021,0,0,0,.438.472,1.531,1.531,0,0,0,.752.164,1.36,1.36,0,0,0,1.138-.574,3.271,3.271,0,0,0,.571-1.531ZM94.336,13h-2L93.885,2.336h2Zm5.961,0a2.6,2.6,0,0,1-.092-.509,4.572,4.572,0,0,1-.01-.591,3.412,3.412,0,0,1-.943.892A2.282,2.282,0,0,1,98,13.144a2.186,2.186,0,0,1-1.688-.6,1.894,1.894,0,0,1-.41-1.627,2.323,2.323,0,0,1,1.083-1.7,4.676,4.676,0,0,1,2.533-.588h1.114l.089-.588a1.049,1.049,0,0,0-.161-.834.968.968,0,0,0-.79-.287,1.244,1.244,0,0,0-.779.236.935.935,0,0,0-.362.646H96.708L96.7,7.764a2.233,2.233,0,0,1,1.053-1.63,4.026,4.026,0,0,1,2.358-.667,2.923,2.923,0,0,1,2.041.673,2.037,2.037,0,0,1,.564,1.917l-.444,3.056a5.206,5.206,0,0,0-.065.984,4.9,4.9,0,0,0,.12.9ZM98.7,11.667a1.906,1.906,0,0,0,.964-.263,1.723,1.723,0,0,0,.656-.6l.15-1.039H99.354a1.508,1.508,0,0,0-1,.318,1.191,1.191,0,0,0-.441.769.665.665,0,0,0,.15.6A.857.857,0,0,0,98.7,11.667Zm2.146-9.222h2.215l.014.041-2.146,1.777H99.278l-.014-.034Zm6.966,8.5a.582.582,0,0,0-.236-.564,2.962,2.962,0,0,0-1.125-.414,4.068,4.068,0,0,1-1.859-.786,1.506,1.506,0,0,1-.479-1.429,2.4,2.4,0,0,1,1.032-1.63,3.678,3.678,0,0,1,2.242-.66,3.119,3.119,0,0,1,2.136.673A1.706,1.706,0,0,1,110.12,7.8l-.014.041h-1.928a.891.891,0,0,0-.188-.728,1,1,0,0,0-.79-.277,1.276,1.276,0,0,0-.79.239.87.87,0,0,0-.366.588.576.576,0,0,0,.212.561,2.89,2.89,0,0,0,1.128.383,4.131,4.131,0,0,1,1.911.8,1.561,1.561,0,0,1,.468,1.459,2.336,2.336,0,0,1-1.083,1.644,4.129,4.129,0,0,1-2.348.625,3.026,3.026,0,0,1-2.211-.755,1.825,1.825,0,0,1-.6-1.7l.021-.041h1.825a.911.911,0,0,0,.27.861,1.442,1.442,0,0,0,.926.267,1.523,1.523,0,0,0,.868-.222A.848.848,0,0,0,107.816,10.949Zm6.59-7.157L114.14,5.6h1.251L115.186,7h-1.244l-.547,3.767a.777.777,0,0,0,.085.622.568.568,0,0,0,.455.178,2,2,0,0,0,.273-.017,2.2,2.2,0,0,0,.273-.058l-.041,1.442a4.41,4.41,0,0,1-.608.154,3.661,3.661,0,0,1-.629.051,1.852,1.852,0,0,1-1.5-.574,2.221,2.221,0,0,1-.308-1.791L111.945,7h-1.08l.205-1.4h1.073l.267-1.812ZM117.619,13h-2L116.7,5.6h2Zm1.326-9.167h-2l.219-1.5h2Zm3.6,7.779a1.276,1.276,0,0,0,.865-.311,1.333,1.333,0,0,0,.441-.831h1.812l.014.041a2.744,2.744,0,0,1-1.1,1.89,3.569,3.569,0,0,1-2.246.742,2.724,2.724,0,0,1-2.369-1.056,3.53,3.53,0,0,1-.523-2.676l.027-.205a4.62,4.62,0,0,1,1.282-2.7,3.638,3.638,0,0,1,2.683-1.039,2.667,2.667,0,0,1,2.054.783A2.3,2.3,0,0,1,126,8.3l-.014.034h-1.825a1.343,1.343,0,0,0-.167-.957A.879.879,0,0,0,123.2,7a1.352,1.352,0,0,0-1.179.625,3.691,3.691,0,0,0-.564,1.576l-.027.205a3.17,3.17,0,0,0,.085,1.6A.984.984,0,0,0,122.548,11.612ZM130.8,13a2.6,2.6,0,0,1-.092-.509,4.575,4.575,0,0,1-.01-.591,3.412,3.412,0,0,1-.943.892,2.282,2.282,0,0,1-1.251.352,2.186,2.186,0,0,1-1.688-.6,1.894,1.894,0,0,1-.41-1.627,2.323,2.323,0,0,1,1.083-1.7,4.676,4.676,0,0,1,2.533-.588h1.114l.089-.588a1.049,1.049,0,0,0-.161-.834.968.968,0,0,0-.79-.287,1.244,1.244,0,0,0-.779.236.935.935,0,0,0-.362.646H127.21l-.007-.041a2.233,2.233,0,0,1,1.053-1.63,4.026,4.026,0,0,1,2.358-.667,2.923,2.923,0,0,1,2.041.673,2.037,2.037,0,0,1,.564,1.917l-.444,3.056a5.2,5.2,0,0,0-.065.984,4.9,4.9,0,0,0,.12.9Zm-1.593-1.333a1.906,1.906,0,0,0,.964-.263,1.723,1.723,0,0,0,.656-.6l.15-1.039h-1.121a1.508,1.508,0,0,0-1,.318,1.191,1.191,0,0,0-.441.769.665.665,0,0,0,.15.6A.857.857,0,0,0,129.206,11.667Z" transform="translate(-9535.424 -8254.325)" fill="#1a2f50"/>
      <path id="Trazado_903606" data-name="Trazado 903606" d="M-9712.553-8165.453s10.152-28.148,15.229-74.756,18.455-62.4,28.15-62.76,22.148,30.918,29.07,34.148,7.846,15.689,76.6,8.307,71.525-2.309,161.051-47.531" transform="translate(-4.273 -4.005)" fill="none" stroke="#b05e32" stroke-linecap="round" stroke-linejoin="round" stroke-width="2"/>
      <path id="Trazado_903607" data-name="Trazado 903607" d="M-9716.034-8349.545h9.662" transform="translate(-5.622 -0.806)" fill="none" stroke="#1a2f50" stroke-linecap="round" stroke-width="2"/>
      <path id="Trazado_903608" data-name="Trazado 903608" d="M-9716.034-8349.545h9.662" transform="translate(-5.622 20.463)" fill="none" stroke="#1a2f50" stroke-linecap="round" stroke-width="2"/>
      <path id="Trazado_903609" data-name="Trazado 903609" d="M-9716.034-8349.545h9.662" transform="translate(-5.622 43.536)" fill="none" stroke="#1a2f50" stroke-linecap="round" stroke-width="2"/>
      <path id="Trazado_903610" data-name="Trazado 903610" d="M-9716.034-8349.545h9.662" transform="translate(-5.622 66.609)" fill="none" stroke="#1a2f50" stroke-linecap="round" stroke-width="2"/>
      <path id="Trazado_903611" data-name="Trazado 903611" d="M-9716.034-8349.545h9.662" transform="translate(-5.622 89.682)" fill="none" stroke="#1a2f50" stroke-linecap="round" stroke-width="2"/>
      <path id="Trazado_903612" data-name="Trazado 903612" d="M-9716.034-8349.545h9.662" transform="translate(-5.622 112.755)" fill="none" stroke="#1a2f50" stroke-linecap="round" stroke-width="2"/>
      <path id="Trazado_903613" data-name="Trazado 903613" d="M-9716.034-8349.545h9.662" transform="translate(-5.622 135.828)" fill="none" stroke="#1a2f50" stroke-linecap="round" stroke-width="2"/>
      <path id="Trazado_903614" data-name="Trazado 903614" d="M-9716.034-8349.545h9.662" transform="translate(-5.622 159.824)" fill="none" stroke="#1a2f50" stroke-linecap="round" stroke-width="2"/>
      <path id="Trazado_903616" data-name="Trazado 903616" d="M0,0H9.662" transform="translate(-9607.921 -8164.626) rotate(-90)" fill="none" stroke="#1a2f50" stroke-linecap="round" stroke-width="2"/>
      <path id="Trazado_903617" data-name="Trazado 903617" d="M0,0H9.662" transform="translate(-9499.939 -8164.626) rotate(-90)" fill="none" stroke="#1a2f50" stroke-linecap="round" stroke-width="2"/>
      <path id="Trazado_903618" data-name="Trazado 903618" d="M0,0H9.662" transform="translate(-9391.034 -8164.626) rotate(-90)" fill="none" stroke="#1a2f50" stroke-linecap="round" stroke-width="2"/>
      <path id="Trazado_903615" data-name="Trazado 903615" d="M-9388.605-8168.652h-323.947v-180.893" transform="translate(-4.273 -0.806)" fill="none" stroke="#1a2f50" stroke-linecap="round" stroke-width="2"/>
    </g>
  </g>
</svg>
