<svg id="Group_1109936" data-name="Group 1109936" xmlns="http://www.w3.org/2000/svg" xmlns:xlink="http://www.w3.org/1999/xlink" width="143.23" height="149" viewBox="0 0 143.23 149">
  <defs>
    <clipPath id="clip-path">
      <rect id="Rectangle_402333" data-name="Rectangle 402333" width="143.23" height="149" fill="none"/>
    </clipPath>
  </defs>
  <rect id="Rectangle_402331" data-name="Rectangle 402331" width="143.23" height="29.933" transform="translate(0 119.067)" fill="#001827"/>
  <g id="Group_1109935" data-name="Group 1109935">
    <g id="Group_1109934" data-name="Group 1109934" clip-path="url(#clip-path)">
      <path id="Path_902365" data-name="Path 902365" d="M137.062,31.313c9.318,0,16.918-7.033,16.918-15.656S146.38,0,137.062,0s-16.917,7.033-16.917,15.656,7.6,15.656,16.917,15.656" transform="translate(-64.817)" fill="#001827" fill-rule="evenodd"/>
      <path id="Path_902366" data-name="Path 902366" d="M167.457,112.044a5.524,5.524,0,0,1-.533,3.16,10.839,10.839,0,0,1-1.91,2.155c-.253.548-.527,1.094-.815,1.618-.559,1.016-1.307,2.279-2.5,2.6-1.021.278-4.015-.209-5.129-.362q-2.189-.3-4.375-.648l-.72-.114-4.115-4.659,2.834,11.8-.349,6.513a5.684,5.684,0,0,1,1.993,2.956c.209.837.328,1.808.454,2.664.2,1.375.388,2.754.571,4.132q.45,3.392.87,6.789l.481,1.891-60.792.115-.442-1.418c-1.013-3.25-6.069,2.741-7.225-.461a15.3,15.3,0,0,1,.261-7.625c.93-2.822,2.986-4.883,2.708-5.564-.439-1.077-1.573-2.6-2.129-3.619a21.845,21.845,0,0,1-1.637-4.473c-.519-1.881-.942-3.8-1.327-5.715-.5-2.484-.948-5.009-1.341-7.534-.4.417-.794.871-1.15,1.276a14.488,14.488,0,0,0-1.392,1.728,13.954,13.954,0,0,1-2.044,3.551,2.4,2.4,0,0,0-.381.7,10.5,10.5,0,0,0-.3,1.245,21.655,21.655,0,0,1-.592,2.275c-.675,2.08-.9,4.374-2.63,5.91a11.418,11.418,0,0,1-2.205,1.348c-1,.515-2.022,1-3.044,1.47-1.7.787-3.42,1.551-5.143,2.287l-.8.343-12.155-5.262-.328-.465a6.626,6.626,0,0,1-1.225-3.073c-.095-1.332.879-2.677,1.613-3.72a13.875,13.875,0,0,0,1.04-1.56c.539-1.078,1.06-2.169,1.577-3.258a11.756,11.756,0,0,1,.239-3.342,14.944,14.944,0,0,1,1-2.933c-.066-.3-.115-.6-.157-.851a6.214,6.214,0,0,1,1.374-4.2q.026-1.1.052-2.194a4.556,4.556,0,0,1,2.467-4.19c.054-.026.109-.052.165-.077a12.888,12.888,0,0,1,1.448-4.982c.766-1.4,1.6-2.777,2.43-4.142.664-1.1,1.333-2.192,1.995-3.289.327-.542.757-1.193,1.032-1.761a17.877,17.877,0,0,0,.546-1.831c.322-1.212.605-2.438.856-3.666a7.653,7.653,0,0,1,2.761-4.524c.084-.921.192-1.847.323-2.754.241-1.69,1.894-2.824,3.251-3.629,1.533-.909,3.193-1.677,4.8-2.454,1.142-.553,2.293-1.111,3.4-1.737l.142-.08.152-.057c.823-.305,1.714-.547,2.56-.782,1.337-.371,2.682-.72,4.028-1.063,3.545-.9,7.1-1.767,10.663-2.62q8.795-2.108,17.612-4.13l.287-.066.293.018c2.917.183,5.916.347,8.816.669,2.857.317,4.072,1.764,6.5,2.976a24.884,24.884,0,0,0,5.84,1.221c2.391.308,4.838.536,7.247.682l.7.043.524.469.046.042a5.212,5.212,0,0,1,3.814,3.393.59.59,0,0,0,.1.2c.247.264.682.564.968.816a14.325,14.325,0,0,1,2.1,2.383c.781,1.082,1.5,2.218,2.2,3.36s1.348,2.293,1.972,3.465a27.57,27.57,0,0,1,1.288,2.657c.379.949.692,1.992,1.014,2.965.506,1.531,1.013,3.062,1.548,4.583.447,1.273.912,2.547,1.426,3.794a15.342,15.342,0,0,0,1.173,2.43,8.718,8.718,0,0,0,.583.779,38.3,38.3,0,0,0,2.742,2.755,5.835,5.835,0,0,1,2.16,3.709,18.1,18.1,0,0,1-.37,4.121,22.465,22.465,0,0,1-.973,3.675,3.353,3.353,0,0,1-.8,1.152" transform="translate(-26.38 -32.2)" fill="#001827" fill-rule="evenodd"/>
      <path id="Path_902367" data-name="Path 902367" d="M147.838,70.1a3.462,3.462,0,0,1,2.958,2.247c.537,1.493,1.387,1.057,3.435,3.9a59.076,59.076,0,0,1,5.218,9.049c.66,1.651,3.567,11.427,5.35,14.134s5.086,4.558,5.152,6.209a18.336,18.336,0,0,1-.33,3.633,31.333,31.333,0,0,1-.858,3.3,1.277,1.277,0,0,1-1.123.793s.462,2.378-.066,3.236a11.409,11.409,0,0,1-1.849,1.981s-1.453,3.3-2.18,3.5-8.653-1.057-8.653-1.057l-9.028-10.222,4.669,19.436-.4,7.4a4.118,4.118,0,0,1,2.114,2.378c.4,1.585,1.849,13.342,1.849,13.342l-63.937.132a22.091,22.091,0,0,1,.414-7.719c.615-2.063,3.378-2.661,2.586-4.746a50.459,50.459,0,0,0-2.406-5.567c-2.444-4.491-4.624-20.806-4.624-20.806s-1.519,1.321-2.246,1.982a26.709,26.709,0,0,0-3.633,4.293,11.493,11.493,0,0,1-1.783,3.1c-1.057,1.387-.793,2.378-1.585,4.822s-.859,3.963-2.048,5.02S65,138.63,65,138.63l-10.832-4.69a5.115,5.115,0,0,1-.858-2.047c-.066-.925,1.849-3.039,2.443-4.227s1.85-3.831,1.85-3.831a9.026,9.026,0,0,1,.132-3.236,12.636,12.636,0,0,1,1.189-3.171,4.951,4.951,0,0,1-.33-1.387c-.2-1.189,1.387-3.171,1.387-3.171l.066-2.84a2.532,2.532,0,0,1,2.642-2.708,10.386,10.386,0,0,1,1.189-5.614c1.519-2.775,5.284-8.719,5.549-9.379a46.961,46.961,0,0,0,1.519-5.878,4.9,4.9,0,0,1,2.707-3.7s.133-1.849.4-3.7,6.473-4.095,10.436-6.341c4.095-1.519,34.61-8.52,34.61-8.52s6.341.4,8.719.661,2.906,1.321,5.812,2.774,13.871,2.114,13.871,2.114a4.2,4.2,0,0,1,.345.361" transform="translate(-28.757 -34.63)" fill="#fe8849" fill-rule="evenodd"/>
      <path id="Path_902368" data-name="Path 902368" d="M241.089,101.941c1.551,1.525,3.109,2.747,3.154,3.876a18.328,18.328,0,0,1-.33,3.633,31.334,31.334,0,0,1-.858,3.3,1.277,1.277,0,0,1-1.123.792s.462,2.378-.066,3.237a11.409,11.409,0,0,1-1.849,1.981s-1.453,3.3-2.18,3.5-8.653-1.056-8.653-1.056l-9.028-10.222,4.669,19.436-.4,7.4a4.114,4.114,0,0,1,2.114,2.378c.4,1.585,1.849,13.342,1.849,13.342l-34.507.072-1.417-15.469-.264-4.228-.661-.925,15.588-1.849-5.548-10.568s10.436-15.72,11.1-18.626-.661-24.967-3.435-16.909a32.154,32.154,0,0,1-8.851,14c-2.245,2.114,0,0,3.7-7.266s3.7-15.588,1.321-9.907a35.485,35.485,0,0,1-14.4,15.984l5.545-33.27c1.944.135,4.293.31,5.544.45,1.973.219,2.673.985,4.516,2.069a6.264,6.264,0,0,1,.644,1.028c1.321,2.642,1.057,15.059,1.85,12.549s.66-10.3,1.32-9.115,2.444,7.2,2.444,7.2l.462-3.236c.462-3.236,2.774-5.68,2.444-1.717s1.387,14.134,1.321,9.973,2.708-11.162,2.708-11.162l-.4,5.944c-.4,5.945,2.179,21.863,2.179,21.863a23.162,23.162,0,0,1,2.18-2.972c1.982-2.51,4.491-3.17,3.7-1.849s-2.775,5.086-2.775,5.086l1.387-1.057c1.388-1.057,6.275-1.255,4.756-.726a24.891,24.891,0,0,0-4.624,3.038,26.765,26.765,0,0,1,6.473-.859,65.48,65.48,0,0,1,8.4.854" transform="translate(-103.05 -34.841)" fill="#8e0b07" fill-rule="evenodd"/>
      <path id="Path_902369" data-name="Path 902369" d="M146.765,165.438l-23.322.048a22.094,22.094,0,0,1,.414-7.72c.615-2.063,3.378-2.66,2.586-4.746a50.441,50.441,0,0,0-2.406-5.567c-2.444-4.491-4.624-20.806-4.624-20.806s-.533.463-1.118.978c-.721-6.18-1.784-13.112-3.3-20.866,1.453,9.247,1.321,10.568,7.662,18.362s10.965,14.4,12.021,16.117,8.322,5.152,5.416-.264-9.379-12.946-9.379-12.946l12.946,12.549,1.982,11.229,1.2,10.1ZM115.327,86.482c1.718,16.975,10.172,27.213,14.8,30.911,2.128,1.7-.744-1.248-3.344-5.281-3.063-4.75-6.105-10.975-5.382-12.49.159-.334,1.267,2.461,3.416,5.439,2.212,3.067,5.553,6.6,11.783,7.114.793.066-7.2-10.634-7.6-11.36s-13.672-14.333-13.672-14.333" transform="translate(-62.039 -46.656)" fill="#8e0b07" fill-rule="evenodd"/>
      <path id="Path_902370" data-name="Path 902370" d="M92.761,132.287c-.461.4-1,.881-1.353,1.2a26.685,26.685,0,0,0-3.633,4.293,11.5,11.5,0,0,1-1.783,3.1c-1.057,1.387-.793,2.378-1.586,4.822s-.859,3.963-2.047,5.02-9.842,4.756-9.842,4.756l-.449-.194C69.5,150.6,66.806,145.5,67.307,145.5c.924,0,10.039,1.849,8.256-1.387a6.3,6.3,0,0,0-4.887-3.368s2.642-.529,3.038-.529,1.849.066,1.849.066l-1.189-2.048c-1.189-2.047-5.086-3.435-5.086-3.435s2.312.132,3.038.132,1.585.726,3.9,3.1,5.482,3.9,4.888,1.255-3.1-4.756-5.878-7.6a21.946,21.946,0,0,1-4.228-6.737s5.086,3.236,8.586,4.888a6.125,6.125,0,0,0,7.794-1.784c1.519-1.915-1.057-8.058-1.519-9.049s-4.359-5.878-4.359-5.878,5.02,3.567,5.746,2.972c.629-.514-.719-5.227-2.633-10.038-1.7-3.025-3.466-6.106-3.627-6.386.111-.057.177-.082.177-.082s.132-1.849.4-3.7a1.176,1.176,0,0,1,.153-.417c.767,1.573,3.576,6.408,7.12,13.62.1,3.473-.116,4.35-.378,4.28.774,2.072,1.236,3.58,1.236,3.58Z" transform="translate(-36.279 -51.515)" fill="#8e0b07" fill-rule="evenodd"/>
      <path id="Path_902371" data-name="Path 902371" d="M152.363,33.62l2.954,5.394-.139,15.743-.031.178A58.624,58.624,0,0,1,152.67,64.3a30.92,30.92,0,0,1-1.563,3.668c-3.2,6.234-9.669,9.054-16.514,8.512-7.535-.6-9.331-3.278-13.752-8.805-4.782-5.977-7.874-10.816-10.1-18.313a95.987,95.987,0,0,1-3.523-23.188l-.131-3.254,3.06,1.113c6.613,2.4,14.309,1.669,21.03.091,2.878-.676,5.691-1.536,8.49-2.485.977-.332,1.95-.676,2.929-1a10.877,10.877,0,0,1,2.111-.557c2.891-.3,4.751,3.273,5.78,5.459a44.738,44.738,0,0,1,2.077,5.295l.157.494Z" transform="translate(-57.773 -10.826)" fill="#001827" fill-rule="evenodd"/>
      <path id="Path_902372" data-name="Path 902372" d="M112.113,28.649A95.392,95.392,0,0,0,115.548,51.3c2.311,7.794,5.481,12.286,9.709,17.569s5.548,7.464,12.219,7.992,11.889-2.444,14.4-7.332,3.831-12.417,3.831-12.417l.133-14.994L152.8,36.575l.4-2.51s-3.038-9.511-5.548-9.247-21,9.115-35.535,3.831" transform="translate(-60.484 -13.386)" fill="#9fa2a6" fill-rule="evenodd"/>
      <path id="Path_902373" data-name="Path 902373" d="M140.969,26.808l-.367.1c-.008.21-.032.462-.086,1.286-.783,7.337-4.959,18.194-14.144,16.752-7.789-1.224-10.523-9.281-11.208-16.112-.216-2.149-.268-2.88,2.01-2.4,7.638,1.611,15.686-.013,23.023-2.219a1.351,1.351,0,1,1,.772,2.59m-.777.215c-7.574,2.067-15.126,3.278-22.852,1.7.539,6.089,2.44,13.324,9.328,14.629,7.953,1.507,12.391-8.99,13.333-15.216.078-.517.133-.835.192-1.111" transform="translate(-62.077 -13.035)" fill="#001827" fill-rule="evenodd"/>
      <path id="Path_902374" data-name="Path 902374" d="M114.885,80.241l26.776-3.009,7.981,18.623L124.5,97.839l-.723-.929A48.08,48.08,0,0,1,115.8,82.833Z" transform="translate(-61.979 -41.666)" fill="#001827" fill-rule="evenodd"/>
      <path id="Path_902375" data-name="Path 902375" d="M121.345,84.86a45.157,45.157,0,0,0,7.642,13.464l20.934-1.653-6.143-14.333Z" transform="translate(-65.464 -44.421)" fill="#9fa2a6" fill-rule="evenodd"/>
      <path id="Path_902376" data-name="Path 902376" d="M126.886,89l4.029,8.257a45,45,0,0,0,9.908.528,52.361,52.361,0,0,0,9.115-2.312l-3.567-8.257A148.537,148.537,0,0,1,126.886,89" transform="translate(-68.453 -47.051)" fill="#001827" fill-rule="evenodd"/>
      <path id="Path_902377" data-name="Path 902377" d="M117.46,138.627c-.89-3.3-1.131-2.3-1.391-6.192-.419-6.264-2.61-10.931-2.635-17.678-.008-2.118.027-4.1-.01-6.243a17.805,17.805,0,0,1,.117-2.825,90.445,90.445,0,0,1,.652,9.05c.3,6.639,2.616,11.384,3.184,17.618.34,3.73.53,2.634,1.493,5.916a.727.727,0,1,1-1.411.355" transform="translate(-61.187 -57.018)" fill="#001827" fill-rule="evenodd"/>
      <path id="Path_902378" data-name="Path 902378" d="M107.46,123.56c-1.157-2.484-2.11-5.073-3.32-7.5a12.791,12.791,0,0,1-1.78-4.92c.62,1.107,1.19,2.28,1.848,3.353,1.826,2.98,2.934,5.39,4.545,8.4.184.357,1.53,6.311,1.173,6.5s-2.282-5.471-2.466-5.828" transform="translate(-55.222 -59.958)" fill="#001827" fill-rule="evenodd"/>
      <path id="Path_902379" data-name="Path 902379" d="M60.868,192.529c1.267-.24,10.325-1.7,11.007-.975a31.194,31.194,0,0,1,3.254,4.914,42.168,42.168,0,0,1-3.8-4.229,85.219,85.219,0,0,0-10.072,1.694.727.727,0,1,1-.384-1.4" transform="translate(-32.549 -103.233)" fill="#001827" fill-rule="evenodd"/>
      <path id="Path_902380" data-name="Path 902380" d="M65.139,178.626c2.354.121,5.351-.52,7.143,1.171,1.5,1.41,3.13,2.881,4.579,4.287a39.43,39.43,0,0,1,3.606,4.184,2.816,2.816,0,0,1-1-.654c-1.488-1.348-2.414-2.379-4.066-3.7-1.429-1.144-2.558-2.128-3.936-3.3-1.345-1.144-4.614-.512-6.452-.536a.727.727,0,0,1,.123-1.45" transform="translate(-34.716 -96.354)" fill="#001827" fill-rule="evenodd"/>
      <path id="Path_902381" data-name="Path 902381" d="M71.726,153.759c2.228,3.7,3.24,4.285,6.655,6.827,2.624,1.954,4.678,2.163,7.892,2.015.149-.007.255-.058.416-.082a.548.548,0,0,1-.389.3,10.058,10.058,0,0,1-8.522-1.431c-3.694-2.444-4.829-3.124-7.3-6.889a.727.727,0,1,1,1.249-.745" transform="translate(-37.966 -82.76)" fill="#001827" fill-rule="evenodd"/>
      <path id="Path_902382" data-name="Path 902382" d="M107.961,150.359c-1.916-5.258-5.287-9.335-8.462-13.843a11.157,11.157,0,0,1-1.156-1.855c3.792,3.46,9.039,10.455,10.99,15.213a.728.728,0,0,1-1.372.485" transform="translate(-53.055 -72.648)" fill="#001827" fill-rule="evenodd"/>
      <path id="Path_902383" data-name="Path 902383" d="M252.7,151.47c3.708-2.092,13.4-3.783,17.045-1.169a1.815,1.815,0,0,1,.8.975l-.326-.227c-3.609-2.536-13.156-.565-16.7,1.62a.728.728,0,1,1-.825-1.2" transform="translate(-136.158 -80.367)" fill="#001827" fill-rule="evenodd"/>
      <path id="Path_902384" data-name="Path 902384" d="M257.017,148.6a6.816,6.816,0,0,1,4.063-3.571,9.209,9.209,0,0,1,5.338-.67,34.015,34.015,0,0,0-3.7,1.072c-2.088.828-3.354,1.652-4.332,3.671a.728.728,0,0,1-1.366-.5" transform="translate(-138.634 -77.812)" fill="#001827" fill-rule="evenodd"/>
      <path id="Path_902385" data-name="Path 902385" d="M255.034,145.644c1.191-2.506,1.5-4.88,3.1-7.155a44.444,44.444,0,0,1-1.785,7.773.727.727,0,0,1-1.317-.618" transform="translate(-137.551 -74.713)" fill="#001827" fill-rule="evenodd"/>
      <path id="Path_902386" data-name="Path 902386" d="M248.942,126.18c.094-6.717-.041-13.6.22-20.286a18.294,18.294,0,0,1,.243-2.832,20.151,20.151,0,0,1,.266,2.828c.363,6.712.6,13.569.726,20.29a.727.727,0,1,1-1.455,0" transform="translate(-134.301 -55.601)" fill="#001827" fill-rule="evenodd"/>
      <path id="Path_902387" data-name="Path 902387" d="M179.83,138.943c-.048,9.8,3.423,23.779,5.356,33.647a182.894,182.894,0,0,1,3.148,20.925l-1.413-.066c-.706-6.625-1.069-13.093-2.457-19.617-2.178-10.246-6.018-24.709-6.088-34.919a.727.727,0,0,1,1.454.03" transform="translate(-96.232 -74.558)" fill="#001827" fill-rule="evenodd"/>
      <path id="Path_902388" data-name="Path 902388" d="M251.181,222.634l-.015-.006c-1.856-.73-3.75-1.335-5.62-2.023a23.21,23.21,0,0,1-4.991-2.4,12.884,12.884,0,0,1-2.8-2.525l-.594-.723,3.848-3.164.595.723a13.143,13.143,0,0,0,2.323,2.223,34.113,34.113,0,0,0,7.8,3.771c.341.134.682.266,1.022.4a20.081,20.081,0,0,1,7.928,5.639c2.158,2.531,3.6,6.8,4.294,10.033l.305,1.425-4.463-.988-.126-.588c-.493-2.3-.988-5.347-2.545-7.172a15.106,15.106,0,0,0-5.973-4.236l-.8-.316-.14-.056-.03-.012-.014-.006-.008,0" transform="translate(-127.947 -114.261)" fill="#001827" fill-rule="evenodd"/>
      <path id="Path_902389" data-name="Path 902389" d="M242.425,214.657c2.594,3.157,5.651,4.361,10.5,6.27.975.384.164.061,1.02.4a19.128,19.128,0,0,1,7.56,5.376c2.032,2.383,3.433,6.553,4.091,9.622l-2.453-.543c-.549-2.564-1.056-5.6-2.748-7.584a16.031,16.031,0,0,0-6.341-4.5c-1.55-.612-.694-.276-1.009-.4-5.312-2.091-9.915-2.879-13.027-6.669Z" transform="translate(-129.489 -115.805)" fill="#fff" fill-rule="evenodd"/>
      <path id="Path_902390" data-name="Path 902390" d="M221.233,179.317a9.631,9.631,0,0,1-2.538,5.339c-2.219,2.219-8.43,6.117-11.575,4.666l-1.277-.589a10.351,10.351,0,0,1-4.649-.957,8.639,8.639,0,0,1-1.27-.889c-1.743.148-3.727-.1-4.72-1.547a20.226,20.226,0,0,1-1.539-2.869c-.107,0-.214.007-.32.009-1.41.023-2.981-.247-3.679-1.66a2.612,2.612,0,0,1-.248-1.465c.181-1.539,3.09-5.922,4-7.285,1.11-1.67,3.834-5.877,5.764-6.5,1.44-.461,3.128-.783,4.613-1.1q1.924-.417,3.853-.811c3.607-3.269,6.959-6.767,8.459-11.266,8.763,0,12.324,2.723,15.746,10.992,1.309,3.163,1.684,9.284-.5,12.156-.673.884-9.55,3.535-10.116,3.775" transform="translate(-102.18 -82.214)" fill="#001827" fill-rule="evenodd"/>
      <path id="Path_902391" data-name="Path 902391" d="M219.974,157.423c4.756,0,11.889,3.3,13.078,13.474.944,8.078-1.576,5.117-11.361,9.644a7.757,7.757,0,0,1-1.981,5.284c-2.114,2.114-7.4,5.02-9.115,4.228l-1.718-.793s-2.774.066-4.029-.66a3.618,3.618,0,0,1-1.519-1.321s-3.038.595-3.764-.462a35.156,35.156,0,0,1-1.982-3.963s-3.567.595-3.435-.528,6.605-11.427,8.257-11.955,9.181-2.047,9.181-2.047,6.605-8.455,8.388-10.9" transform="translate(-104.739 -84.928)" fill="#9fa2a6" fill-rule="evenodd"/>
      <rect id="Rectangle_402332" data-name="Rectangle 402332" width="38.773" height="2.336" transform="translate(65.704 125.478) rotate(-65.255)" fill="#001827"/>
      <path id="Path_902392" data-name="Path 902392" d="M208.04,199.883c-2.645,3.3-3.628,3.982-7.621,5.477l-.957.3a8.9,8.9,0,0,1,2.064-1.57c3.356-2.043,3.111-1.831,5.341-5.069a.727.727,0,1,1,1.173.86" transform="translate(-107.607 -107.21)" fill="#001827" fill-rule="evenodd"/>
      <path id="Path_902393" data-name="Path 902393" d="M218.605,210.845c-.647,2.869-3.666,4.239-6.2,5.267a8.862,8.862,0,0,1-2.187.683c2.035-1.645,6.559-3.462,6.937-6.071a.727.727,0,1,1,1.45.121" transform="translate(-113.411 -113.323)" fill="#001827" fill-rule="evenodd"/>
      <path id="Path_902394" data-name="Path 902394" d="M230.944,215.167a17.891,17.891,0,0,1-7.787,5.417l.019-.014c-.116.052-.052.035-.192.043.013-.086.006-.146.08-.2,2.235-1.685,5.079-3.65,6.623-5.978a.728.728,0,1,1,1.257.734" transform="translate(-120.297 -115.489)" fill="#001827" fill-rule="evenodd"/>
      <path id="Path_902395" data-name="Path 902395" d="M186.137,182.653h4.949a11.565,11.565,0,0,1,2.355.415c1.058.254,2.112.533,3.162.816,1.632.44,3.256.916,4.887,1.352a3.53,3.53,0,0,1,1.954,1.395c1.293,1.825.8,4.583-1.652,5.043-1.211.227-4.224-.426-5.492-.673q-1.47-.286-2.938-.6l0,.013c-.284,1.421-2.139,2.854-3.283,3.7l-.805.6-.979-.221c-3.272-.74-13.743-3.162-15.97-5.005-3-2.48-2.1-7.162.875-9.225,1.74-1.2,3.838-.837,5.732-.273,2.4.716,4.846,1.755,7.207,2.659" transform="translate(-91.966 -96.82)" fill="#001827" fill-rule="evenodd"/>
      <path id="Path_902396" data-name="Path 902396" d="M188.286,187.395c-6.473-2.444-9.577-3.963-11.295-2.774s-2.642,4.161-.727,5.746,15.06,4.558,15.06,4.558,2.311-1.717,2.443-2.378a14.948,14.948,0,0,1,.793-2.114s8.322,1.849,9.379,1.651.529-1.916-.462-2.18-8.785-2.51-9.842-2.51Z" transform="translate(-94.517 -99.378)" fill="#3760a3" fill-rule="evenodd"/>
      <path id="Path_902397" data-name="Path 902397" d="M167.714,141.743c-.056,6.012,1.188,13.6,2.639,20.844.205,1.024-.709,2.239-.5,3.243.2.964,1.528,1.718,1.728,2.654.523,2.439,1.035,4.769,1.487,6.906.885,4.184,2.05,10.541,2.729,16.424.126,1.092.7,3.126,5.143,2.055-.516.362,1.138,1.3-.1,1.547a22.14,22.14,0,0,1-6.16-.453c-.665-.257-.008-.819-.128-1.92a163.382,163.382,0,0,0-2.206-16.411c-2.179-10.246-6.018-24.709-6.089-34.919a.727.727,0,0,1,1.454.03" transform="translate(-89.695 -76.068)" fill="#001827" fill-rule="evenodd"/>
      <path id="Path_902398" data-name="Path 902398" d="M42.882,210.573c.924-7.371,6.126-9.66,13.142-7.281,3.8,1.288,7.523,3.089,9.665,6.645a18.015,18.015,0,0,1,2.087,6.2,6.712,6.712,0,0,1-.5,4.129c-2.482,5.248-10.952,6.042-15.719,8.277l-1.649.773L40.638,216.3Z" transform="translate(-21.924 -109.186)" fill="#001827" fill-rule="evenodd"/>
      <path id="Path_902399" data-name="Path 902399" d="M47.908,213.641c.462-4.293,2.708-8.322,10.3-5.746s9.313,5.68,10.3,11.163c1.178,6.523-9.735,7.575-14.993,10.04l-7.53-10.568Z" transform="translate(-24.812 -111.721)" fill="#9fa2a6" fill-rule="evenodd"/>
      <path id="Path_902400" data-name="Path 902400" d="M13.208,237.614c-.037,1.1-.1,2.2-.178,3.291-.093,1.247-.18,3.452-1.021,4.414-.907,1.037-2.2.666-3.516.882-.449.074-6.524.111-6.626-.03-1.223-1.683.14-3.586,1.245-4.865A28.351,28.351,0,0,1,6.948,237.7a24.953,24.953,0,0,1,2.986-2.052l3.407-1.964Z" transform="translate(-0.747 -126.069)" fill="#001827" fill-rule="evenodd"/>
      <path id="Path_902401" data-name="Path 902401" d="M13.742,242.057c-3.9,2.245-8.454,6.671-7.067,7s5.945-.132,6.407-.66.66-6.341.66-6.341" transform="translate(-3.463 -130.587)" fill="#9fa2a6" fill-rule="evenodd"/>
      <path id="Path_902402" data-name="Path 902402" d="M23.917,247.806a6.15,6.15,0,0,1-1.77,1.052,3.243,3.243,0,0,1-1.874.131,3.9,3.9,0,0,1-2.073-1.346,5.1,5.1,0,0,1-2.037.223c-3.661-.333-3.364-6.384-3.228-8.97a26.978,26.978,0,0,1,1.077-6.987,12.888,12.888,0,0,1,1.625-2.784,11.273,11.273,0,0,0,1.016-1.452c1.018-2.037,2.884-2.491,4.851-3.194,2.418-.863,4.9-1.852,7.375-2.512a9.072,9.072,0,0,1,5.144.841c4.93,2.62,8.665,10.475,7.442,12.686a8.245,8.245,0,0,1-6.764,4.184,15.8,15.8,0,0,1-3.669-.195q-.056.394-.108.787a15.2,15.2,0,0,0-.209,2.309c.589,2.327-.984,4.133-2.918,5.216a4,4,0,0,1-3.88.012" transform="translate(-6.94 -119.689)" fill="#001827" fill-rule="evenodd"/>
      <path id="Path_902403" data-name="Path 902403" d="M24.815,228.541c-1.85.66-3.038.925-3.633,2.114s-1.783,2.179-2.576,4.095-1.85,12.748.33,12.946a2.016,2.016,0,0,0,2.444-1.519s.991,3.236,2.576,2.642A4.315,4.315,0,0,0,26.2,246.7s1.453,2.114,3.1,1.189,2.114-1.915,1.849-2.84.66-6.208.66-6.208a16.876,16.876,0,0,0,5.284.66c7.642-.62,7.878-11.312.09-13.667-3.01-.911-6.658.66-12.376,2.7" transform="translate(-9.517 -121.694)" fill="#9fa2a6" fill-rule="evenodd"/>
      <path id="Path_902404" data-name="Path 902404" d="M35.076,245.143c-.492,2.706-.891,3.214-.953,6.134a16.384,16.384,0,0,0,.768,6.419,5.251,5.251,0,0,1,.451,1.977c-.145-.059-.1-.09-.167-.225-1.725-3.678-1.987-4.094-2.16-8.162-.128-3.022.248-3.51.612-6.278a.727.727,0,1,1,1.448.136" transform="translate(-17.798 -131.822)" fill="#001827" fill-rule="evenodd"/>
      <path id="Path_902405" data-name="Path 902405" d="M23.631,245.649c-.1,3.668-.487,9.888.842,13.253l.01.032c-.011.013.048.04.072.058-.035.045-.06.078-.127.059-1.957-.583-2.2-11.57-2.251-13.4a.727.727,0,0,1,1.455,0" transform="translate(-11.964 -132.132)" fill="#001827" fill-rule="evenodd"/>
      <path id="Path_902406" data-name="Path 902406" d="M140.059,117.916c4.891,4.9,15.392,4.954,20.116-.128l.835-.965-.356,1.286c-.757,1.634-2.834,3.042-4.414,3.775-5.7,2.642-13.268,2.086-18-2.19a1.273,1.273,0,1,1,1.823-1.778" transform="translate(-74.381 -63.025)" fill="#001827" fill-rule="evenodd"/>
      <path id="Path_902407" data-name="Path 902407" d="M188.215,33.086c1.706,0,3.1-2.192,3.1-4.881s-1.392-4.881-3.1-4.881-3.1,2.192-3.1,4.881,1.392,4.881,3.1,4.881" transform="translate(-99.868 -12.583)" fill="#001827" fill-rule="evenodd"/>
      <path id="Path_902408" data-name="Path 902408" d="M189.677,33.3c1.019,0,1.849-1.632,1.849-3.633s-.831-3.633-1.849-3.633-1.849,1.632-1.849,3.633.831,3.633,1.849,3.633" transform="translate(-101.331 -14.045)" fill="#ea260c" fill-rule="evenodd"/>
      <path id="Path_902409" data-name="Path 902409" d="M192.4,33.3c1.019,0,1.85-1.632,1.85-3.633s-.831-3.633-1.85-3.633-1.849,1.632-1.849,3.633.831,3.633,1.849,3.633" transform="translate(-102.8 -14.045)" fill="#001827" fill-rule="evenodd"/>
      <path id="Path_902410" data-name="Path 902410" d="M243.684,114.828c-.789-3.788-1.061-7.262-2.043-11.05-1.511-5.827-2.209-11.066-1.175-17.073a12.927,12.927,0,0,1,.306,2.515c.4,6.24.519,7.989,2.414,14.094,1.182,3.808,1.576,7.214,2.516,11.015a1.039,1.039,0,0,1-2.018.5" transform="translate(-129.464 -46.776)" fill="#001827" fill-rule="evenodd"/>
      <path id="Path_902411" data-name="Path 902411" d="M272.464,102.862v0a34.944,34.944,0,0,1-2.131,2.829,14.374,14.374,0,0,1-4.548,2.868,37.327,37.327,0,0,0,2.795,3.344c1.669,2.1,3.1,4.726,5.855,5.281,2.292.462,3.386.3,5.945,1.04a53.776,53.776,0,0,1-6.075-.107c-3.227-.393-4.855-3.012-6.869-5.3-.837-.951-1.8-1.763-2.595-2.7-2.163-2.526.395-3.1,1.977-4.083a9.676,9.676,0,0,0,4.7-6.667c.492-.3,1,1.578,1.3,2.07a1.04,1.04,0,0,1-.352,1.427" transform="translate(-142.43 -53.589)" fill="#001827" fill-rule="evenodd"/>
      <path id="Path_902412" data-name="Path 902412" d="M79.482,122.211c.916,1.3,2.875,2.3,5.453,3.384-.5.966-.844,1.413-1.671,2.808-1.5,2.529-4.059,6.522-7.209,6.941-.34.045-3.027.463-3.111-.258a10.206,10.206,0,0,0,3.034-.546c2.722-.734,5.11-5.332,6.384-8.032l-.681-.243c-1.894-.692-1.833-1.257-3.386-2.347a1.04,1.04,0,0,1,1.187-1.707" transform="translate(-39.352 -65.831)" fill="#001827" fill-rule="evenodd"/>
      <path id="Path_902413" data-name="Path 902413" d="M197.975,91.96c-.535.05-.511-.307-.334-.706,0,0,.115.4.124.407h.005a1.365,1.365,0,0,1,.156-.033c7.524-2.243,10.558-19.563,7-27.322,0-.574.642-.072,1.172.15,6.612,2.774-.55,26.79-8.121,27.505" transform="translate(-106.564 -34.548)" fill="#001827" fill-rule="evenodd"/>
      <path id="Path_902414" data-name="Path 902414" d="M133.262,171.447c1.252,1.717,3.37,4.309,3.532,6.388a63.348,63.348,0,0,0-3.914-5.014c-3.245-3.8-6.391-6.386-9.245-10.275a1.039,1.039,0,0,1,.31-1.437c.222-.144,8.629,9.393,9.317,10.338" transform="translate(-66.61 -86.916)" fill="#001827" fill-rule="evenodd"/>
      <path id="Path_902415" data-name="Path 902415" d="M221.265,178.823c3.846.262,9.533,1.058,11.691,5.135-2.652-2.871-5.328-3.59-12.352-3.518a1.04,1.04,0,0,1-1.039-1.039c0-.574,1.126-.577,1.7-.577" transform="translate(-118.453 -96.473)" fill="#001827" fill-rule="evenodd"/>
      <path id="Path_902416" data-name="Path 902416" d="M224.91,177.849c1.821-.164,8.389.1,9.992.717l.6.348c-2.51.635-7.13.464-10.02.934a1.039,1.039,0,1,1-.568-2" transform="translate(-120.928 -95.922)" fill="#001827" fill-rule="evenodd"/>
      <path id="Path_902417" data-name="Path 902417" d="M205.682,192.563c-.865.128-1.33.346-1.131.969.1.319-.333,2.21,1.454,2.091,1.51-.1,2.962-.713,4.49-.6,0,0,9.486,2.226,10.455,2.043s.484-1.757-.425-2-10.126-2.5-10.913-2.5h-3.93Z" transform="translate(-110.328 -103.885)" fill="#001827" fill-rule="evenodd"/>
      <path id="Path_902418" data-name="Path 902418" d="M180.191,181.406a.807.807,0,0,0,.248-.2,1.035,1.035,0,0,1-.248.2m.289-.256c.012-.018.024-.038.035-.058l-.035.058m-.015.025a4.242,4.242,0,0,0,.608,4.973c1.053.953,4.949,2.061,6.588,2.714s3.507,1.245,5.019,2.017c-1.184.4-5.133-.922-6.427-1.291-2.891-.824-6.578-1.059-7.843-4.289-.476-1.216-.683-5.673,1.258-5.83a1.04,1.04,0,0,1,.8,1.707" transform="translate(-96.076 -96.821)" fill="#001827" fill-rule="evenodd"/>
      <path id="Path_902419" data-name="Path 902419" d="M219.468,63.3c1.706,2.691,3.633,3.86,5.933,5.9.63.56.473.332.728.879a2.023,2.023,0,0,1-1.091-.292,18.633,18.633,0,0,1-7.307-5.346,1.039,1.039,0,1,1,1.737-1.142" transform="translate(-117.371 -33.897)" fill="#001827" fill-rule="evenodd"/>
      <path id="Path_902420" data-name="Path 902420" d="M244.949,222.516c-.364.278-.668.508-.942.721-.95-.379-1.825-.741-2.639-1.109.566-.562,1.1-1.025,1.921-1.745a1.351,1.351,0,1,1,1.659,2.134m-2.875,2.4c-2.082,1.988-5.285,3-7.93,4.047-1.571.624-4.957,1.9-6.581,1.894l-1.146-.159c2.064-.921,3.771-1.573,5.836-2.636a50.117,50.117,0,0,0,7.248-4.07c.826.316,1.685.616,2.574.925" transform="translate(-122.15 -118.74)" fill="#001827" fill-rule="evenodd"/>
      <path id="Path_902421" data-name="Path 902421" d="M133.256,219.568a32.327,32.327,0,0,0,6.534,7.763,11.006,11.006,0,0,1,1.924,2.063l-1.366-.36c-3.2-1.263-6.995-5.215-8.948-8.011a1.351,1.351,0,0,1,.465-1.854c.64-.384,1.008-.242,1.391.4" transform="translate(-70.785 -118.125)" fill="#001827" fill-rule="evenodd"/>
      <path id="Path_902422" data-name="Path 902422" d="M215.239,162.194c3.38-6.323,8.345-10.564,11.385-15.969a1.023,1.023,0,0,0-.481-1.389c-.718-.308-3.27,4.357-5.172,7.021-3.154,4.419-5.907,8.19-5.732,10.337" transform="translate(-116.114 -78.129)" fill="#001827" fill-rule="evenodd"/>
      <path id="Path_902423" data-name="Path 902423" d="M251.924,203.623c.334-3.38,1.868-6.252,2.39-9.849a6.458,6.458,0,0,1,.331-1.723c1.133,3.211-1.01,8.15-1.11,11.546a.805.805,0,1,1-1.61.026" transform="translate(-135.91 -103.609)" fill="#001827" fill-rule="evenodd"/>
      <path id="Path_902424" data-name="Path 902424" d="M255.535,197.324c1.3-2.836,2.434-3.161,4.14-5.453a10.8,10.8,0,0,0,1.924-4.123c.824,4.305-3.187,6.478-4.5,9.975a.805.805,0,1,1-1.561-.4" transform="translate(-137.845 -101.288)" fill="#001827" fill-rule="evenodd"/>
      <path id="Path_902425" data-name="Path 902425" d="M167.2,25.555c-.319,4.722-2.1,11.785-3.47,16.666q-.119.423-.233.823c-.238.835-.46,1.591-.653,2.239-.451,1.516-.749,2.447-.749,2.447l7.53,19.551s0,.008-.005.024l.172.4-.292.023c-.468,1.39-2.514,5.609-10.31,6.817a28.972,28.972,0,0,1-6.956.339c1.663,1.206,3.643,1.854,6.888,2.111,6.378.505,11.428-2.189,14.052-6.7.01-.025.021-.051.032-.076l0,.013q.161-.28.31-.571c2.51-4.888,3.831-12.417,3.831-12.417l.122-13.859.01-1.135-.522-.953-2.516-4.6.4-2.51s-.555-1.739-1.388-3.71c-.371,2.041-1.564,3.534-2.978,3.534h-.009c-1.707-.007-3.089-2.19-3.089-4.881a5.969,5.969,0,0,1,1.4-4.083c-.395.1-.926.278-1.578.5" transform="translate(-82.127 -13.517)" fill="#fff" fill-rule="evenodd"/>
      <path id="Path_902426" data-name="Path 902426" d="M150.08,32.052c-.8,5.051-3.857,12.757-9.166,14.728a7.584,7.584,0,0,1-1,.3l.157.031a7.97,7.97,0,0,0,2.077.126c6.652-.488,10.4-9.681,11.257-15.342.048-.32.087-.563.124-.768-1.088.319-2.244.634-3.452.931" transform="translate(-75.484 -16.789)" fill="#fff" fill-rule="evenodd"/>
      <path id="Path_902427" data-name="Path 902427" d="M279.686,161.224c-1.137-6.436-2.618-8.4-9.268-9.612-3.667-.669-6.69-.028-10.283.355a21.185,21.185,0,0,1,10.457-1.362c7.317.97,9.239,3.445,10.679,10.335a.805.805,0,1,1-1.585.284" transform="translate(-140.34 -81.162)" fill="#001827" fill-rule="evenodd"/>
      <path id="Path_902428" data-name="Path 902428" d="M275.928,167.443c.1-5.97.034-7.337-5.125-11.143-3.751-2.767-6.764-3.345-11.213-4.019l-.888-.162c4.588-.671,9.823,1.083,13.506,3.8,5.2,3.833,5.254,5.468,5.33,11.528a.805.805,0,1,1-1.61,0" transform="translate(-139.567 -81.989)" fill="#001827" fill-rule="evenodd"/>
      <path id="Path_902429" data-name="Path 902429" d="M277.87,172.039c.169-3.873,1.271-7.551-.983-10.917l-.54-.749-.578-.883c4.786,3.055,3.628,7.67,3.711,12.549a.805.805,0,1,1-1.611,0" transform="translate(-148.775 -86.043)" fill="#001827" fill-rule="evenodd"/>
      <path id="Path_902430" data-name="Path 902430" d="M103.388,191.781a36.647,36.647,0,0,0-.682-8.2,4.915,4.915,0,0,1-.165-2.433A27.859,27.859,0,0,1,105,191.781a.805.805,0,1,1-1.61,0" transform="translate(-55.269 -97.727)" fill="#001827" fill-rule="evenodd"/>
      <path id="Path_902431" data-name="Path 902431" d="M20.955,246.334a22.316,22.316,0,0,1-.726-3.846c-.067-.562-.125-1.137-.175-1.709-.035-.4-.067-.807-.095-1.2a5.2,5.2,0,0,1-.3,1.334.962.962,0,0,1-.455.559,1.38,1.38,0,0,1-1.558-.082c-.07,2.887.223,5.513,1.286,5.609.082.007.161.012.238.014a2.137,2.137,0,0,0,1.781-.676m21.77-15.542a15.8,15.8,0,0,1,1.24,2.992,5.666,5.666,0,0,1,.256,2.5,28.5,28.5,0,0,0,6.062-2.5c2.08-1.277,3.385-2.968,2.936-5.453a19.8,19.8,0,0,0-1.079-4l-.024-.059-.187.156a30.728,30.728,0,0,1-3.33,2.374c-5.482,3.435-7.464.858-7.464.858h0c0,.012.013.245.015.625a14.837,14.837,0,0,1-.915,5.494,3.7,3.7,0,0,1-2.8,2.467c-.234.034-.459.056-.674.068a5.077,5.077,0,0,1-3.244-.789,4.044,4.044,0,0,1-1.2-1.272c-.409.289-.848.593-1.337.94l-.278.3a5.923,5.923,0,0,0,3.963,3.1c.4.053.765.091,1.116.109a7.785,7.785,0,0,0,1.558-.076.56.56,0,0,1-.15.171,6.407,6.407,0,0,0,3.6-1.421,6.047,6.047,0,0,0,2.034-3.593,7.256,7.256,0,0,0-.095-2.992m-11.57,13.561a1.691,1.691,0,0,1-.063,1.137,3.814,3.814,0,0,1-1.786,1.7,1.891,1.891,0,0,1-.421.175,2.576,2.576,0,0,1-2.427-1.043c-.082-.3-.155-.577-.218-.835a13.756,13.756,0,0,1-.417-3.975c0-.126,0-.257.006-.393,0-.025,0-.05,0-.075.012.025.025.05.039.075a2.449,2.449,0,0,0,.259.393,1.887,1.887,0,0,0,1.732.681,2.051,2.051,0,0,0,1.025-.366,2.179,2.179,0,0,0,.356-.315,2.732,2.732,0,0,0,.3-.393,8.393,8.393,0,0,0,.819-4.279,7.639,7.639,0,0,0,1.492,1.312l-.035-.01s-.256,1.458-.459,2.977c-.017.131-.035.262-.052.393a11.361,11.361,0,0,0-.15,2.838M25.5,245.489a11.793,11.793,0,0,1-.694-3.7c-.7.5-2.025-.314-3.153-.455a.864.864,0,0,1-.463-.215,1.368,1.368,0,0,1-.126-.123l0,.123a29.22,29.22,0,0,0,.4,4.619c.236.644.92,2.255,1.917,2.434a1.057,1.057,0,0,0,.568-.057,4.17,4.17,0,0,0,1.96-1.612c-.162-.367-.3-.7-.418-1.016" transform="translate(-9.517 -120.994)" fill="#6e757c" fill-rule="evenodd"/>
      <path id="Path_902432" data-name="Path 902432" d="M49.966,237.267a28.025,28.025,0,0,1-5.5,4.512,5.855,5.855,0,0,0,3.989,3.179,18.922,18.922,0,0,0,3.9-.066c-1.129,1.5-4.326,1.053-6.588-.16-1.967-1.056-3.187-2.738-2.229-3.61,2.194-2,3.168-2.223,5.32-4.788a.727.727,0,1,1,1.116.933" transform="translate(-23.304 -127.359)" fill="#001827" fill-rule="evenodd"/>
      <path id="Path_902433" data-name="Path 902433" d="M231.642,219.58a18.3,18.3,0,0,1-4.948,3.33l1.461.674c1.232.569,4.3-.768,6.718-2.349a18.887,18.887,0,0,0,1.615-1.177l-.073.018a6.886,6.886,0,0,1-2.769.1,8.106,8.106,0,0,1-2.006-.6" transform="translate(-122.299 -118.461)" fill="#6e757c" fill-rule="evenodd"/>
      <path id="Path_902434" data-name="Path 902434" d="M219.477,221.52a38.045,38.045,0,0,0,4.306-3.55c-.655-.04-1.569-.109-2.4-.218a5.072,5.072,0,0,1-1.7-.524,14.349,14.349,0,0,1-4.768,2.752l-.048.019a5.511,5.511,0,0,0,1.163.863,8.576,8.576,0,0,0,3.452.657" transform="translate(-115.916 -117.192)" fill="#6e757c" fill-rule="evenodd"/>
      <path id="Path_902435" data-name="Path 902435" d="M207.256,215.008a23.836,23.836,0,0,0,4.191-2.951c-.972-.4-2.868-1.412-3.019-3.295-.507.448-1.032.846-1.458,1.162l-.805.6-.979-.222c-.4-.089-.9-.2-1.476-.338-.559.244-1.19.493-1.925.769a32.119,32.119,0,0,0,1.9,3.78c.615.895,2.888.606,3.57.5" transform="translate(-108.86 -112.625)" fill="#6e757c" fill-rule="evenodd"/>
      <path id="Path_902436" data-name="Path 902436" d="M197.088,210.614a7.416,7.416,0,0,1,1.289-.939c-1.1-.263-2.367-.575-3.674-.918a5.443,5.443,0,0,0-.554,1.261c-.1.859,1.966.713,2.94.6" transform="translate(-104.738 -112.622)" fill="#6e757c" fill-rule="evenodd"/>
      <path id="Path_902437" data-name="Path 902437" d="M262.743,182.35A6.19,6.19,0,0,1,261.7,186.6c-.461.748-1.017,1.458-1.563,2.177-.23.3-.459.608-.679.919q.428-.154.83-.29c.705-.238,1.35-.437,1.939-.614,3.666-1.1,5.134-1.3,5.2-4.463a18.052,18.052,0,0,0-.1-2.066c-.023-.236-.049-.482-.08-.74a19.818,19.818,0,0,0-1.006-4.405,34.886,34.886,0,0,0-2.687,3.087.877.877,0,0,0-.068.123,8.2,8.2,0,0,1-1.2,1.505c-.421.458-.906.96-1.38,1.439-.647.655-1.272,1.268-1.685,1.669-.3.293-.49.472-.49.472s-1.123-3.9-1.057-2.972c.021.3.049.869.034,1.672.535,1.65.243,3.735-.181,5.827a21.679,21.679,0,0,1,2.266-2.616c.3-.34.627-.723.972-1.187.247-.332.449-.622.616-.888a11.553,11.553,0,0,0,1.242-3.035l.066-.2q.033.171.056.338" transform="translate(-138.932 -95.552)" fill="#6e757c" fill-rule="evenodd"/>
      <path id="Path_902438" data-name="Path 902438" d="M52.623,211.117c.854-2.16,2.756-3.81,7.393-2.866,1.11.227,2.053.43,2.852.613-.761-.333-1.6-.655-2.526-.969-4.716-1.6-7.369-.653-8.814,1.322A7.5,7.5,0,0,0,50.39,211.7a12.69,12.69,0,0,0-.352,1.937l-.1.247a9.976,9.976,0,0,1,2.015.242c.039-.336.084-.682.143-1.029a9.876,9.876,0,0,1,.525-1.984" transform="translate(-26.943 -111.72)" fill="#fff" fill-rule="evenodd"/>
      <path id="Path_902439" data-name="Path 902439" d="M29.363,227.926c.893-.367,1.825-.72,2.749-1.028a13.8,13.8,0,0,1,5.849-.945q.325.051.629.093c-.2-.075-.4-.145-.612-.208a9.9,9.9,0,0,0-5.591.359c-.834.238-1.725.533-2.687.87-1.241.435-2.6.938-4.1,1.474a14.047,14.047,0,0,0-2.714,1.1,2.966,2.966,0,0,0-.265.193,2.46,2.46,0,0,0-.653.821c-.449.9-1.237,1.683-1.937,2.839a9.1,9.1,0,0,0-.638,1.256,6.6,6.6,0,0,0-.294,1.056,16.146,16.146,0,0,1,1.461-2.08,32.407,32.407,0,0,1,2.274-2.5l.089-.088c.194-.191.309-.3.309-.3a66.714,66.714,0,0,1,6.131-2.914" transform="translate(-10.304 -121.694)" fill="#fff" fill-rule="evenodd"/>
      <path id="Path_902440" data-name="Path 902440" d="M214.235,184.389c3.585-1.5,8.6-1.659,9.519-1.312.809.3,2.12.916,2.692,1.187-1.966-1.366-4.388-1.862-8.657-1.926-2.323.488-5.405,1.156-6.391,1.472a1.833,1.833,0,0,0-.583.391h2.036a7.02,7.02,0,0,1,1.384.187" transform="translate(-113.732 -98.369)" fill="#fff" fill-rule="evenodd"/>
      <path id="Path_902441" data-name="Path 902441" d="M242.664,158.671s5.383.91,9.01,3.834a12.69,12.69,0,0,0-9.94-5.083c-1.32,1.81-5.284,6.915-7.254,9.443.515.022,1.041.051,1.559.086Z" transform="translate(-126.5 -84.927)" fill="#fff" fill-rule="evenodd"/>
      <path id="Path_902442" data-name="Path 902442" d="M204.068,188.52c-.218,4.459-.133,3.562,4.214,5.086a3.488,3.488,0,0,1-2.567.074c-3.341-.625-3.109-2.048-3.258-5.16a.805.805,0,1,1,1.611,0" transform="translate(-109.223 -101.27)" fill="#001827" fill-rule="evenodd"/>
      <path id="Path_902443" data-name="Path 902443" d="M269.095,237.8c-1.1-4.506-3.454-5.92-7.46-7.856a30.925,30.925,0,0,1-6.51-3.614c2.342,1.083,4.444,1.963,6.8,2.967,4.446,1.892,6.945,3.444,8.29,8.284a.571.571,0,1,1-1.121.22" transform="translate(-137.636 -122.1)" fill="#001827" fill-rule="evenodd"/>
      <path id="Path_902444" data-name="Path 902444" d="M277.375,125.463c-2.752-.554-4.186-3.176-5.855-5.281-.3-.375-1.4-1.542-2.139-2.435-.456.228-.95.46-1.515.742a37.18,37.18,0,0,0,2.795,3.344c1.669,2.1,3.1,4.726,5.855,5.28,1.478.3,2.458.335,3.654.524-.274-.516-.568-1.155-.869-1.872-.577-.07-1.19-.154-1.927-.3" transform="translate(-144.511 -63.524)" fill="#8e0b07" fill-rule="evenodd"/>
      <path id="Path_902445" data-name="Path 902445" d="M83.66,132.582c-1.5,2.529-4.059,6.522-7.209,6.941a10.2,10.2,0,0,1-2.546.111,10.9,10.9,0,0,0-.228,1.532c1.865.143,4,.146,5.026-.419,2.048-1.123,6.011-8.586,6.011-8.586a8.313,8.313,0,0,0,.607-2.39c-.131.232-1.243,2.1-1.662,2.811" transform="translate(-39.748 -70.01)" fill="#8e0b07" fill-rule="evenodd"/>
      <path id="Path_902446" data-name="Path 902446" d="M113.565,121.335c.418.4,6.868,11.96,6.918,12.029,1.914,2.625,5.669,5.983,7.812,8.419,1.273,1.446,2.063.749,3.1,2.406a12.585,12.585,0,0,1-3.85-2.37c-5.636-4.445-8.638-8.4-11.848-14.812a18.582,18.582,0,0,1-2.135-5.671" transform="translate(-61.267 -65.459)" fill="#001827" fill-rule="evenodd"/>
      <path id="Path_902447" data-name="Path 902447" d="M212.462,120.761a7.5,7.5,0,0,1-.051,4.37,34.922,34.922,0,0,1-7,13.9c-1.787,2.176-6.579,7.364-9.087,8.444l-.816.236a4.529,4.529,0,0,1,.965-1.353,82.671,82.671,0,0,0,7.507-9.8c2.337-3.612,4.907-7.058,6.671-11.009.73-1.636,1.119-3.321,1.81-4.791" transform="translate(-105.474 -65.149)" fill="#8e0b07" fill-rule="evenodd"/>
      <path id="Path_902448" data-name="Path 902448" d="M202.275,41.5l-3.513,9.352,1.044-11.19Z" transform="translate(-107.229 -21.398)" fill="#001827" fill-rule="evenodd"/>
      <path id="Path_902449" data-name="Path 902449" d="M120.644,174.4a85.415,85.415,0,0,0,16.645,19.155c3.434,2.774-2.246.528-5.945-2.51l-3.7-3.038s6.209,9.577,10.964,12.88c1.273.884-7.05-.128-5.993.72,2.891,2.321,16.3,8,16.3,8l.264,4.689-31.307.132s.528-27.081,2.774-40.026" transform="translate(-63.589 -94.088)" fill="#001827" fill-rule="evenodd"/>
      <path id="Path_902450" data-name="Path 902450" d="M93,155.613a20.138,20.138,0,0,1,1.387,8.124c0,.793-4.822,5.284-4.822,5.284a13.359,13.359,0,0,0-4.624-3.765c-2.84-1.321-4.36-2.18-3.765-1.651s4.029,2.51,4.888,6.011,2.443,7.464,1.783,8.322-5.35-4.822-5.35-4.822,1.849,4.228,1.453,5.218-8.389,1.387-8.389,1.387l9.578,7.926s11.558-15.456,11.955-16.711a38.448,38.448,0,0,0,.4-6.935c-.066-.462-2.312-6.143-4.491-8.388" transform="translate(-40.763 -83.951)" fill="#001827" fill-rule="evenodd"/>
      <path id="Path_902451" data-name="Path 902451" d="M280.947,165.653a16.482,16.482,0,0,1,2.51,7.53s3.1,1.783,4.887,1.321,1.85-.462,1.85-.462-2.444,6.209-5.746,5.68-2.973-3.567-3.5-14.069" transform="translate(-151.567 -89.368)" fill="#001827" fill-rule="evenodd"/>
      <path id="Path_902452" data-name="Path 902452" d="M240.643,225.176q-.145.256-.3.508l.12.047.319.125-.138-.681m-2.939,3.858a32.9,32.9,0,0,1-14.366,8.3c-5.878,1.519-.4,1.123,5.482-.529a52.033,52.033,0,0,0,7.992-2.708s-8.653,5.813-17.305,6.011,2.048,2.047,9.115,2.576,14.333-.066,14.862-.529c.326-.286-.835-6.7-1.77-11.559q-.4-.184-.808-.345l-.8-.316-.14-.056-.03-.012-.015-.006-.008,0-.015-.006c-.727-.286-1.459-.553-2.194-.813" transform="translate(-116.679 -121.48)" fill="#001827" fill-rule="evenodd"/>
      <path id="Path_902453" data-name="Path 902453" d="M172.628,160.03a4.5,4.5,0,0,1,2.209-.778,1.241,1.241,0,0,1,.152-.022.976.976,0,0,1,.1.005,6.694,6.694,0,0,1,.88.022,106.873,106.873,0,0,1-2.413-17.3,19.431,19.431,0,0,1-4.144.346c-.045,5.4.954,12.061,2.208,18.6a6.13,6.13,0,0,1,1-.874" transform="translate(-91.397 -76.583)" fill="#fe8849" fill-rule="evenodd"/>
      <path id="Path_902454" data-name="Path 902454" d="M233.7,109.429c.661,9.643.661,12.88-1.189,16.909a57.067,57.067,0,0,1-4.491,7.794s5.879-6.407,6.209-5.548-.793,7.2-2.51,9.644,6.8-8.587,6.8-8.587-1.651-13.21-4.822-20.211" transform="translate(-123.016 -59.036)" fill="#001827" fill-rule="evenodd"/>
      <path id="Path_902455" data-name="Path 902455" d="M110.175,135.389c1.552,5.086.858,8.157-.33,7.464a11.2,11.2,0,0,1-2.444-2.279s4.161,5.284,4.723,7,1.387-.066,1.387-.066-1.552-11.295-3.335-12.12" transform="translate(-57.942 -73.041)" fill="#001827" fill-rule="evenodd"/>
      <path id="Path_902456" data-name="Path 902456" d="M93.573,97.309a21.767,21.767,0,0,0,1.915,7.067s-1.982-2.708-4.227-2.51.793-2.906,2.312-4.557" transform="translate(-48.803 -52.497)" fill="#001827" fill-rule="evenodd"/>
      <path id="Path_902457" data-name="Path 902457" d="M261.444,75.938a12.452,12.452,0,0,1,1.849,7.926c-.2,1.717,1.849-3.038,1.849-5.218s-1.651-2.378-3.7-2.708" transform="translate(-141.046 -40.968)" fill="#001827" fill-rule="evenodd"/>
      <path id="Path_902458" data-name="Path 902458" d="M124.428,225.257l1.011,13.29,5.5-12.143-3.6,12.834,9.318-9.531-7.769,10.831,12.015-5.77-11,7.521,13.264-1.312-12.913,3.3,12.913,3.3L129.9,246.27l11,7.521-12.015-5.77,7.768,10.831-9.318-9.531,3.6,12.834-5.5-12.143-1.011,13.29-1.01-13.29-5.5,12.143,3.6-12.834-9.318,9.531,7.769-10.83-12.015,5.77,11-7.521-13.264,1.312,12.913-3.3-12.913-3.3,13.264,1.312-11-7.521,12.015,5.77L112.2,229.707l9.318,9.531-3.6-12.834,5.5,12.143Z" transform="translate(-57.021 -121.523)" fill="#fff" fill-rule="evenodd"/>
      <path id="Path_902459" data-name="Path 902459" d="M149.212,132.867c4.029,3.5,7.992,4.558,11.823,4.029s9.114-4.36,10.171-6.737-5.35,7.926-21.995,2.708" transform="translate(-80.498 -70.024)" fill="#001827" fill-rule="evenodd"/>
      <path id="Path_902460" data-name="Path 902460" d="M158,125.649c-2.84.859-7.4,4.491-1.783,4.491s10.766-3.831,10.766-3.831-6.275,6.671-11.823,6.341-10.634-3.831-12.087-5.747-1.915-1.849-1.453-1.915,9.247,3.567,16.38.66" transform="translate(-76.312 -67.43)" fill="#001827" fill-rule="evenodd"/>
      <path id="Path_902461" data-name="Path 902461" d="M110.292,29.18c1.057,14.267,5.813,23.25,7.53,23.514s18.23-2.642,18.23-2.642l-7.53,3.7-15.059,2.114S109.5,38.295,110.292,29.18" transform="translate(-59.445 -15.742)" fill="#001827" fill-rule="evenodd"/>
      <path id="Path_902462" data-name="Path 902462" d="M182.579,70.528c1.293,4.187,2.52,1.8,1.787-.327,1.88.8,1.87,4.245.171,5.282-1.8,1.1-2.91-.853-3.4-2.273Z" transform="translate(-97.719 -37.873)" fill="#001827" fill-rule="evenodd"/>
      <path id="Path_902463" data-name="Path 902463" d="M194.57,121.106c-.642,4.264-3.836,9.954-6.988,12.889a8.659,8.659,0,0,1,.8-1.476c2.2-3.607,4.443-7.236,4.892-11.527Z" transform="translate(-101.198 -65.274)" fill="#001827" fill-rule="evenodd"/>
      <path id="Path_902464" data-name="Path 902464" d="M136.551,119.606c1.062,2.834,5.8,10.636,8.39,11.954l.473.23c-3.834-.054-10.753-10.773-11.877-13.906Z" transform="translate(-72.041 -63.596)" fill="#001827" fill-rule="evenodd"/>
      <path id="Path_902465" data-name="Path 902465" d="M170.263,146.4a23,23,0,0,0,3.423-.934q-.041-.565-.069-1.117a9.594,9.594,0,0,1-1.671.4,13.364,13.364,0,0,1-2.51.111,103.213,103.213,0,0,0,1.943,15.975c-.444-4.65-1.115-14.436-1.115-14.436" transform="translate(-91.408 -77.872)" fill="#fff" fill-rule="evenodd"/>
      <path id="Path_902466" data-name="Path 902466" d="M99.111,90.953c1.814-1.558,5.288-2.937,7.551-3.806q-.07-.577-.129-1.165l.093.1-.184-.522c-3.295,1.622-6.927,3.2-7.747,4.591.1.212.243.481.416.806" transform="translate(-53.245 -46.156)" fill="#fff" fill-rule="evenodd"/>
      <path id="Path_902467" data-name="Path 902467" d="M80.117,127.95c-1.217,2.046-3.7,6.03-4.861,8.155a9.67,9.67,0,0,0-.853,2.145,6.89,6.89,0,0,0,.807-.114c1.324-2.312,4.947-8.709,4.947-8.709l2.417,1.462c.211-.42.4-.819.575-1.183l-.681-.243a5.606,5.606,0,0,1-2.351-1.512" transform="translate(-40.14 -69.027)" fill="#fff" fill-rule="evenodd"/>
      <path id="Path_902468" data-name="Path 902468" d="M90.039,109.711c-.485,2.369-1.013,4.344-1.335,5.35a8.567,8.567,0,0,0,1.211.878c.248-.78.606-2.041,1.061-3.989.691-2.962,1.013-3.858,1.573-4.039a4.253,4.253,0,0,0-1.428-.6,5.625,5.625,0,0,0-1.082,2.4" transform="translate(-47.855 -57.891)" fill="#fff" fill-rule="evenodd"/>
      <path id="Path_902469" data-name="Path 902469" d="M70.124,166.856c-1.288-.231-4.1-.2-4.029-.859a6.7,6.7,0,0,1,1.156-2.047l-.1-1.982a1.982,1.982,0,0,1,2.291-2.244,20.835,20.835,0,0,1-1.306-1.7,2.466,2.466,0,0,0-1.922,2.626l-.066,2.84s-1.585,1.982-1.387,3.17c.072.434.136.736.187.944a.724.724,0,0,1,.4-.083c2.354.121,5.351-.52,7.143,1.171l.021.019a4.837,4.837,0,0,0-2.391-1.86" transform="translate(-34.929 -85.255)" fill="#fff" fill-rule="evenodd"/>
      <path id="Path_902470" data-name="Path 902470" d="M276.176,109.229s2.729,7.623,4.573,10.676l.391.049c-1.658-3.959-3.566-10.279-4.085-11.577-.14-.35-.363-.83-.647-1.4l-.011.007v0a35.043,35.043,0,0,1-2.13,2.829,10.605,10.605,0,0,1-2.967,2.093,6.352,6.352,0,0,0,2.762-1.025,9.636,9.636,0,0,0,2.114-1.651" transform="translate(-146.363 -57.714)" fill="#fff" fill-rule="evenodd"/>
      <path id="Path_902471" data-name="Path 902471" d="M272.072,95.9a9.839,9.839,0,0,0,1.167-2.548,59.208,59.208,0,0,0-3.3-5.279,12.3,12.3,0,0,0-1.7-1.954c-.133.509-.3,1.028-.465,1.507.615.9,3.719,5.453,4.253,6.583a2.433,2.433,0,0,1,.043,1.691" transform="translate(-144.461 -46.462)" fill="#fff" fill-rule="evenodd"/>
      <path id="Path_902472" data-name="Path 902472" d="M244.161,75.882c1.255.991,1.915,4.227,1.915,5.284a1.019,1.019,0,0,0,.012.168,13.368,13.368,0,0,0-1.048-5.85,4.234,4.234,0,0,0-2.165-.984,4.2,4.2,0,0,0-.345-.362s-9.342-.563-13.065-1.792c.479.4.976.806,1.492,1.241a22.714,22.714,0,0,0,3.5.643c4.1.661,8.454.661,9.709,1.651" transform="translate(-123.793 -39.03)" fill="#fff" fill-rule="evenodd"/>
      <path id="Path_902473" data-name="Path 902473" d="M247.236,206.321c-.268.513-.542,1.019-.789,1.458.205-.03.414-.071.625-.124l.073-.018c.292-.239.554-.475.781-.7l.008-.009a5.887,5.887,0,0,0,.606-.714,6.425,6.425,0,0,0,.513-.844,24.557,24.557,0,0,1,.856-3.556c0-.1,0-.161,0-.161l.058-.027a38.4,38.4,0,0,0,1.338-5.072c-.846,2.07-2.494,6.126-2.737,6.906a17.121,17.121,0,0,1-.887,1.994c-.142.285-.292.578-.444.869" transform="translate(-132.955 -106.037)" fill="#fff" fill-rule="evenodd"/>
      <path id="Path_902474" data-name="Path 902474" d="M46.308,242.355c1.453.231,2.246,0,3.666-1.42a14.193,14.193,0,0,0,2.444-3.93Z" transform="translate(-24.983 -127.861)" fill="#fff" fill-rule="evenodd"/>
      <path id="Path_902475" data-name="Path 902475" d="M194.971,227.538c1.784,10.634,1.916,10.568,6.407,10.7,4.292.126,10.309-.247,1.915,1.717-5.616,1.314,9.754,1.715,13.937.4,7.331-2.311-6.011,3.7-12.682,3.7s-8.785-.858-8.785-.858-.066-12.88-.793-15.654" transform="translate(-105.184 -122.754)" fill="#001827" fill-rule="evenodd"/>
      <path id="Path_902476" data-name="Path 902476" d="M186.633,222.831a120.538,120.538,0,0,0-1.8-13.219,2.628,2.628,0,0,1-1.055-2.431,4.06,4.06,0,0,1,.307-1.005c-.053-.234-.1-.469-.158-.706-1.672-.48-3.281-.992-4.574-1.5l-.408.887c.339,1.57.667,3.08.968,4.5.738,3.49,1.671,8.49,2.354,13.467.136.991.262,1.981.375,2.957.119,1.032.636,2.905,4.447,2.2,0-.153,0-.311-.007-.474-.158-1.569-.3-3.131-.45-4.687" transform="translate(-96.539 -110.041)" fill="#8e0b07" fill-rule="evenodd"/>
      <path id="Path_902477" data-name="Path 902477" d="M216.331,121.33c.393,4.672-3.113,13.275-5.848,16.939-1.422,1.905-7.376,8.016-9.344,9.085a4.749,4.749,0,0,1,.7-.886c1.656-1.861,3.342-3.7,5-5.563a37.451,37.451,0,0,0,6.817-11.1,80.546,80.546,0,0,0,2.676-8.477" transform="translate(-108.512 -65.456)" fill="#fff" fill-rule="evenodd"/>
      <path id="Path_902478" data-name="Path 902478" d="M183.581,188.788a3.477,3.477,0,0,1-1.46-3.135c.011-1.733.852-1.243,2.181-.88a40.505,40.505,0,0,1,7.006,2.595c-1.632-.016-6.439-1.44-8.415-2.1-.407,1.055.226,2.636.688,3.522m-.612-3.688.006-.012Z" transform="translate(-98.252 -99.492)" fill="#fff" fill-rule="evenodd"/>
      <path id="Path_902479" data-name="Path 902479" d="M116.589,131.656a74.536,74.536,0,0,1,5.375,9.178,18.727,18.727,0,0,1-5.375-9.178" transform="translate(-62.898 -71.027)" fill="#fff" fill-rule="evenodd"/>
      <path id="Path_902480" data-name="Path 902480" d="M210.156,191.128h-4.31c-.009.2-.016.381-.021.553,0,.078,0,.153-.006.226a4.167,4.167,0,0,1,.571-.118h3.93a6.746,6.746,0,0,1,.867.137c2.2.435,7.7,1.773,9.523,2.23a1.348,1.348,0,0,0-.714-.518c-.87-.232-6.987-1.992-9.18-2.418a4.189,4.189,0,0,0-.662-.092" transform="translate(-111.037 -103.111)" fill="#fff" fill-rule="evenodd"/>
      <path id="Path_902481" data-name="Path 902481" d="M160.592,11.522c-3.771-5.664-8.777-5.9-14.527-6.517a16.135,16.135,0,0,1,16.649,5.108Z" transform="translate(-78.8 -2.369)" fill="#fff" fill-rule="evenodd"/>
      <path id="Path_902482" data-name="Path 902482" d="M149.454,87.47l3.343,7.737a52.358,52.358,0,0,1-9.115,2.312,34.593,34.593,0,0,1-7.028-.152c-.326-.035-.633-.07-.918-.1.118.019.456.072.952.14a40.692,40.692,0,0,0,8.91.381,52.362,52.362,0,0,0,9.115-2.312l-3.567-8.257s-.625.1-1.691.255" transform="translate(-73.228 -47.051)" fill="#fff" fill-rule="evenodd"/>
    </g>
  </g>
</svg>
