<svg xmlns="http://www.w3.org/2000/svg" xmlns:xlink="http://www.w3.org/1999/xlink" width="107.871" height="107.754" viewBox="0 0 107.871 107.754">
  <defs>
    <filter id="Rectangle_400907" x="0" y="0" width="107.871" height="107.754" filterUnits="userSpaceOnUse">
      <feOffset dy="3" input="SourceAlpha"/>
      <feGaussianBlur stdDeviation="3" result="blur"/>
      <feFlood flood-opacity="0.161"/>
      <feComposite operator="in" in2="blur"/>
      <feComposite in="SourceGraphic"/>
    </filter>
  </defs>
  <g id="Group_1109932" data-name="Group 1109932" transform="translate(10695.564 11792.754)">
    <g id="Path_873673" data-name="Path 873673" transform="translate(-10686.436 -11787)" fill="#fff" opacity="0.98">
      <path d="M 44.93540954589844 88.25379943847656 C 39.07075881958008 88.25379943847656 33.38235855102539 87.10703277587891 28.0282096862793 84.84536743164062 C 22.85607147216797 82.66059875488281 18.21073532104492 79.53260803222656 14.22124671936035 75.54830932617188 C 10.23188495635986 71.56414794921875 7.099959373474121 66.92509460449219 4.912484645843506 61.76004409790039 C 2.648122072219849 56.41347122192383 1.499997019767761 50.73315811157227 1.499997019767761 44.87689590454102 C 1.499997019767761 39.02063369750977 2.648122072219849 33.3403205871582 4.912484645843506 27.99375915527344 C 7.099959373474121 22.82869529724121 10.23188495635986 18.18965911865234 14.22124671936035 14.20548343658447 C 18.21073532104492 10.22118377685547 22.85607147216797 7.093208312988281 28.0282096862793 4.908421039581299 C 33.38235855102539 2.646758317947388 39.07075881958008 1.499995946884155 44.93540954589844 1.499995946884155 C 50.8000602722168 1.499995946884155 56.48846054077148 2.646758317947388 61.84262084960938 4.908421039581299 C 67.01474761962891 7.093208312988281 71.66008758544922 10.22118377685547 75.64957427978516 14.20548343658447 C 79.63893127441406 18.18965911865234 82.77085876464844 22.82869529724121 84.95834350585938 27.99375915527344 C 87.22269439697266 33.3403205871582 88.37081909179688 39.02063369750977 88.37081909179688 44.87689590454102 C 88.37081909179688 50.73315811157227 87.22269439697266 56.41347122192383 84.95834350585938 61.76004409790039 C 82.77085876464844 66.92509460449219 79.63893127441406 71.56414794921875 75.64957427978516 75.54830932617188 C 71.66008758544922 79.53260803222656 67.01474761962891 82.66059875488281 61.84262084960938 84.84536743164062 C 56.48846054077148 87.10703277587891 50.8000602722168 88.25379943847656 44.93540954589844 88.25379943847656 Z" stroke="none"/>
      <path d="M 44.93540954589844 2.999992370605469 C 39.27235412597656 2.999992370605469 33.78033828735352 4.106979370117188 28.61188125610352 6.290206909179688 C 23.61849212646484 8.399482727050781 19.13340759277344 11.41965484619141 15.28121185302734 15.26683807373047 C 11.42928314208984 19.11375427246094 8.405448913574219 23.59252166748047 6.293708801269531 28.5787239074707 C 4.108169555664062 33.73922348022461 2.999992370605469 39.22270965576172 2.999992370605469 44.87689590454102 C 2.999992370605469 50.53108215332031 4.108169555664062 56.01456832885742 6.293708801269531 61.17506790161133 C 8.405448913574219 66.16127014160156 11.42928314208984 70.64003753662109 15.28121185302734 74.48695373535156 C 19.13340759277344 78.33413696289062 23.61849212646484 81.35430908203125 28.61188125610352 83.46358489990234 C 33.78033828735352 85.64681243896484 39.27235412597656 86.75379943847656 44.93540954589844 86.75379943847656 C 50.59846496582031 86.75379943847656 56.09048080444336 85.64681243896484 61.25893783569336 83.46358489990234 C 66.2523193359375 81.35430908203125 70.73741149902344 78.33413696289062 74.58960723876953 74.48695373535156 C 78.44153594970703 70.64003753662109 81.46536254882812 66.16127014160156 83.57711029052734 61.17506790161133 C 85.76264953613281 56.01456832885742 86.87082672119141 50.53108215332031 86.87082672119141 44.87689590454102 C 86.87082672119141 39.22270965576172 85.76264953613281 33.73922348022461 83.57711029052734 28.5787239074707 C 81.46536254882812 23.59252166748047 78.44153594970703 19.11375427246094 74.58960723876953 15.26683807373047 C 70.73741149902344 11.41965484619141 66.2523193359375 8.399482727050781 61.25893783569336 6.290206909179688 C 56.09048080444336 4.106979370117188 50.59846496582031 2.999992370605469 44.93540954589844 2.999992370605469 M 44.93540954589844 -7.62939453125e-06 C 69.75254821777344 -7.62939453125e-06 89.87082672119141 20.09206390380859 89.87082672119141 44.87689590454102 C 89.87082672119141 69.66172790527344 69.75254821777344 89.75379943847656 44.93540954589844 89.75379943847656 C 20.11826324462891 89.75379943847656 -7.62939453125e-06 69.66172790527344 -7.62939453125e-06 44.87689590454102 C -7.62939453125e-06 20.09206390380859 20.11826324462891 -7.62939453125e-06 44.93540954589844 -7.62939453125e-06 Z" stroke="none" fill="#fff"/>
    </g>
    <g transform="matrix(1, 0, 0, 1, -10695.56, -11792.75)" filter="url(#Rectangle_400907)">
      <g id="Rectangle_400907-2" data-name="Rectangle 400907" transform="translate(9 6)" fill="none" stroke="#fff" stroke-width="3" opacity="0.95">
        <rect width="89.871" height="89.754" rx="44.877" stroke="none"/>
        <rect x="1.5" y="1.5" width="86.871" height="86.754" rx="43.377" fill="none"/>
      </g>
    </g>
    <g id="Group_1109933" data-name="Group 1109933" transform="translate(-10687.914 -11788)">
      <path id="Path_902357" data-name="Path 902357" d="M418.65,154.28h4.991a3.8,3.8,0,0,1,3.786,3.786v6.76a3.8,3.8,0,0,1-3.786,3.786H418.65V165.6h4.991a.787.787,0,0,0,.777-.777v-6.76a.787.787,0,0,0-.777-.777H418.65Z" transform="translate(-352.666 -121.219)" fill="#e3b532" fill-rule="evenodd"/>
      <path id="Path_902358" data-name="Path 902358" d="M30.987,154.28H26a3.8,3.8,0,0,0-3.786,3.786v6.76A3.8,3.8,0,0,0,26,168.613h4.991V165.6H26a.787.787,0,0,1-.777-.777v-6.76a.787.787,0,0,1,.777-.777h4.991Z" transform="translate(-5.137 -121.219)" fill="#e3b532" fill-rule="evenodd"/>
      <path id="Path_902359" data-name="Path 902359" d="M87.1,103.1h35.418a3.525,3.525,0,0,1,3.519,3.52v25.5c0,25.3-42.456,24.635-42.456,0v-25.5a3.528,3.528,0,0,1,3.52-3.52Z" transform="translate(-58.935 -76.354)" fill="#363a42" fill-rule="evenodd"/>
      <path id="Path_902360" data-name="Path 902360" d="M143.921,168.16H165.3a3.542,3.542,0,0,1,3.531,3.531v3.844a3.542,3.542,0,0,1-3.531,3.531H143.921a3.542,3.542,0,0,1-3.531-3.531v-3.844A3.541,3.541,0,0,1,143.921,168.16Z" transform="translate(-108.736 -133.387)" fill="#afe1f8" fill-rule="evenodd"/>
      <g id="Group_1109933-2" data-name="Group 1109933" transform="translate(35.542 54.718)">
        <path id="Path_902361" data-name="Path 902361" d="M171.91,344.9h4.118v7.744H171.91Z" transform="translate(-171.91 -343.039)" fill="#e0eef0" fill-rule="evenodd"/>
        <path id="Path_902362" data-name="Path 902362" d="M238.96,329.82h4.118v11.465H238.96Z" transform="translate(-230.688 -329.82)" fill="#e0eef0" fill-rule="evenodd"/>
        <path id="Path_902363" data-name="Path 902363" d="M306,344.9h4.118v7.744H306Z" transform="translate(-289.456 -343.039)" fill="#e0eef0" fill-rule="evenodd"/>
      </g>
      <path id="Path_902364" data-name="Path 902364" d="M44.049,38.087a.722.722,0,0,1,0,1.022l-3.258,3.26a.722.722,0,0,1-1.022-1.022l3.258-3.258A.72.72,0,0,1,44.049,38.087Zm-4.717,0a.722.722,0,0,0-1.022,0l-3.258,3.258a.722.722,0,0,0,1.022,1.022l3.258-3.26A.72.72,0,0,0,39.333,38.087ZM55.483,63.6H52.808V57.3h2.675Zm.723-7.744H52.087a.721.721,0,0,0-.722.722v7.743a.721.721,0,0,0,.722.722h4.118a.721.721,0,0,0,.722-.722V56.579A.722.722,0,0,0,56.205,55.857Zm-8.994,9.6H44.537V55.44h2.675ZM47.933,54h-4.12a.722.722,0,0,0-.722.722V66.182a.721.721,0,0,0,.722.722h4.12a.722.722,0,0,0,.722-.722V54.717A.721.721,0,0,0,47.933,54ZM38.939,63.6H36.265V57.3h2.674Zm.723-7.744H35.544a.722.722,0,0,0-.722.722v7.743a.721.721,0,0,0,.722.722h4.118a.721.721,0,0,0,.722-.722V56.579A.722.722,0,0,0,39.662,55.857ZM59.373,42.148V38.305A2.813,2.813,0,0,0,56.563,35.5H35.185a2.813,2.813,0,0,0-2.809,2.809v3.843a2.813,2.813,0,0,0,2.809,2.809H56.563A2.813,2.813,0,0,0,59.373,42.148Zm-2.809-8.1H35.185a4.258,4.258,0,0,0-4.253,4.254v3.843A4.259,4.259,0,0,0,35.185,46.4H56.563a4.259,4.259,0,0,0,4.254-4.254V38.305A4.259,4.259,0,0,0,56.563,34.051ZM74.04,43.607a3.068,3.068,0,0,1-3.065,3.065H67.824V45.107h3.151a1.5,1.5,0,0,0,1.5-1.5V36.848a1.5,1.5,0,0,0-1.5-1.5H67.824V33.785h3.151a3.068,3.068,0,0,1,3.065,3.065Zm-6.216-6.814v6.87h3.151a.071.071,0,0,0,.056-.056V36.848a.071.071,0,0,0-.056-.056ZM66.379,55.77v-25.5a2.8,2.8,0,0,0-2.8-2.8H28.166a2.8,2.8,0,0,0-2.8,2.8v25.5c0,11.821,10.423,18.006,20.719,18.006C55.86,73.776,66.379,68.141,66.379,55.77ZM29.839,23.494a6.056,6.056,0,0,1,6.049-6.049H55.167a6.056,6.056,0,0,1,6.049,6.049v2.53H29.839Zm-5.915,13.3v6.87H20.859a.07.07,0,0,1-.056-.056V36.848a.071.071,0,0,1,.056-.056ZM20.859,46.67h3.063V45.106H20.859a1.5,1.5,0,0,1-1.5-1.5V36.847a1.5,1.5,0,0,1,1.5-1.5h3.063V33.784H20.859a3.068,3.068,0,0,0-3.065,3.065v6.759A3.067,3.067,0,0,0,20.859,46.67ZM70.975,32.339H67.824V30.266a4.246,4.246,0,0,0-4.242-4.242h-.922v-2.53A7.5,7.5,0,0,0,55.167,16H35.888a7.5,7.5,0,0,0-7.494,7.494v2.53h-.229a4.246,4.246,0,0,0-4.242,4.242v2.073H20.859a4.514,4.514,0,0,0-4.509,4.508v6.759a4.514,4.514,0,0,0,4.509,4.508h3.063v7.656c0,12.449,10.593,19.452,22.165,19.452,10.47,0,21.738-6.086,21.738-19.45V48.115h3.151a4.513,4.513,0,0,0,4.508-4.508V36.848a4.514,4.514,0,0,0-4.509-4.509Z" fill-rule="evenodd"/>
    </g>
  </g>
</svg>
