<svg xmlns="http://www.w3.org/2000/svg" xmlns:xlink="http://www.w3.org/1999/xlink" width="55.793" height="73" viewBox="0 0 55.793 73">
  <defs>
    <filter id="Rectangle_401320" x="0" y="0" width="36" height="73" filterUnits="userSpaceOnUse">
      <feOffset dy="3" input="SourceAlpha"/>
      <feGaussianBlur stdDeviation="3" result="blur"/>
      <feFlood flood-opacity="0.161"/>
      <feComposite operator="in" in2="blur"/>
      <feComposite in="SourceGraphic"/>
    </filter>
    <filter id="Rectangle_401321" x="9" y="5" width="36" height="68" filterUnits="userSpaceOnUse">
      <feOffset dy="3" input="SourceAlpha"/>
      <feGaussianBlur stdDeviation="3" result="blur-2"/>
      <feFlood flood-opacity="0.161"/>
      <feComposite operator="in" in2="blur-2"/>
      <feComposite in="SourceGraphic"/>
    </filter>
  </defs>
  <g id="Group_1107629" data-name="Group 1107629" transform="translate(-181.73 -2027)">
    <g transform="matrix(1, 0, 0, 1, 181.73, 2027)" filter="url(#Rectangle_401320)">
      <rect id="Rectangle_401320-2" data-name="Rectangle 401320" width="18" height="55" transform="translate(9 6)" fill="#fecfb5"/>
    </g>
    <g transform="matrix(1, 0, 0, 1, 181.73, 2027)" filter="url(#Rectangle_401321)">
      <rect id="Rectangle_401321-2" data-name="Rectangle 401321" width="18" height="50" transform="translate(18 11)" fill="#fee6da"/>
    </g>
    <g id="welder_9439182_1_" data-name="welder_9439182 (1)" transform="translate(177.393 2040.848)">
      <path id="Path_874541" data-name="Path 874541" d="M48.661,333.091l9.105,3.542a4.527,4.527,0,0,1,2.86,4.317v5.526a2.252,2.252,0,0,1-2.186,2.3H26.686a2.252,2.252,0,0,1-2.186-2.3V340.95a4.527,4.527,0,0,1,2.86-4.317l9.105-3.542a3.941,3.941,0,0,1,3.644.341l2.454,1.495,2.454-1.495a3.941,3.941,0,0,1,3.644-.341Z" transform="translate(-7.897 -302.184)" fill="#4e454d" fill-rule="evenodd"/>
      <path id="Path_874542" data-name="Path 874542" d="M99.8,431.746h22.233V426.2a2.012,2.012,0,0,0-2-2H101.8a2.012,2.012,0,0,0-2,2Z" transform="translate(-76.251 -385.157)" fill="#ffaa5a" fill-rule="evenodd"/>
      <path id="Path_874543" data-name="Path 874543" d="M201.69,465.1a1.833,1.833,0,0,1,1.9,1.734v2.039H199.8v-2.03A1.82,1.82,0,0,1,201.69,465.1Z" transform="translate(-167.025 -422.284)" fill="#007eb6" fill-rule="evenodd"/>
      <path id="Path_874544" data-name="Path 874544" d="M402,302.3h2.657v11.366H402Z" transform="translate(-350.572 -274.503)" fill="#c24441" fill-rule="evenodd"/>
      <path id="Path_874545" data-name="Path 874545" d="M446.969,224.86l-1.218,1.061a1.879,1.879,0,0,1-2.4-.009,1.359,1.359,0,0,1-.009-2.1l.018-.018a1.879,1.879,0,0,1,2.4.009Z" transform="translate(-387.653 -202.847)" fill="#ffc263" fill-rule="evenodd"/>
      <path id="Path_874546" data-name="Path 874546" d="M162.164,333.275a6.622,6.622,0,0,1-13.164,0l.48-.185a3.941,3.941,0,0,1,3.644.341l2.454,1.495,2.454-1.495a3.967,3.967,0,0,1,3.644-.341Z" transform="translate(-120.912 -302.184)" fill="#3f383e" fill-rule="evenodd"/>
      <path id="Path_874547" data-name="Path 874547" d="M162.6,238.8h10.646v8.432a5.323,5.323,0,1,1-10.646,0Z" transform="translate(-133.257 -216.861)" fill="#fbbd80" fill-rule="evenodd"/>
      <path id="Path_874548" data-name="Path 874548" d="M109.637,428.128A2.539,2.539,0,0,1,107.1,425.6v-.793a1.965,1.965,0,0,1,1.319-.5h3.745v1.3A2.524,2.524,0,0,1,109.637,428.128Zm18.34-3.33a1.965,1.965,0,0,0-1.319-.5h-3.745v1.3a2.528,2.528,0,0,0,5.055,0v-.8Z" transform="translate(-82.877 -385.248)" fill="#e69951" fill-rule="evenodd"/>
      <path id="Path_874549" data-name="Path 874549" d="M115.9,347.065a1.9,1.9,0,0,0,1.9-1.9V335.7a.387.387,0,0,0-.092.037L114,337.167v8.008a1.9,1.9,0,0,0,1.9,1.891Z" transform="translate(-89.141 -304.822)" fill="#ffc263" fill-rule="evenodd"/>
      <path id="Path_874550" data-name="Path 874550" d="M287.3,347.065a1.9,1.9,0,0,1-1.9-1.9V335.7a.387.387,0,0,1,.092.037l3.7,1.439v8.008A1.886,1.886,0,0,1,287.3,347.065Z" transform="translate(-244.729 -304.822)" fill="#ffc263" fill-rule="evenodd"/>
      <path id="Path_874551" data-name="Path 874551" d="M93.9,21.57h23.3V10.722a2.2,2.2,0,0,0-2.2-2.2H113.9V6.487a.455.455,0,0,0-.175-.36.439.439,0,0,0-.4-.083c-4.373,1.07-9.262.627-13.875.627A2.266,2.266,0,0,0,97.24,8.517H96.1a2.2,2.2,0,0,0-2.2,2.2Z" transform="translate(-70.895 -5.563)" fill="#323e4b" fill-rule="evenodd"/>
      <path id="Path_874552" data-name="Path 874552" d="M99.647,160.39h-23.2a1.845,1.845,0,1,1,0-3.69h23.2a1.845,1.845,0,0,1,0,3.69Z" transform="translate(-53.376 -142.335)" fill="#fbbd80" fill-rule="evenodd"/>
      <path id="Path_874553" data-name="Path 874553" d="M173.246,246.368a10.743,10.743,0,0,1-10.646,0V242.3h10.646Z" transform="translate(-133.257 -220.038)" fill="#e2aa73" fill-rule="evenodd"/>
      <path id="Path_874554" data-name="Path 874554" d="M115.767,58.1h16.449a1.583,1.583,0,0,1,1.578,1.578V69.751a9.8,9.8,0,0,1-19.594,0V59.668a1.567,1.567,0,0,1,1.568-1.568Z" transform="translate(-89.321 -52.831)" fill="#d74b48" fill-rule="evenodd"/>
      <path id="Path_874555" data-name="Path 874555" d="M145.729,109h12.445a.73.73,0,0,1,.729.729v6.633a.73.73,0,0,1-.729.729H145.729a.73.73,0,0,1-.729-.729v-6.633A.724.724,0,0,1,145.729,109Z" transform="translate(-117.281 -99.035)" fill="#008cca" fill-rule="evenodd"/>
      <path id="Path_874556" data-name="Path 874556" d="M416.4,302.3h1.328v11.366H416.4Z" transform="translate(-363.644 -274.503)" fill="#d74b48" fill-rule="evenodd"/>
      <path id="Path_874557" data-name="Path 874557" d="M386.744,417.1h3.137a1.831,1.831,0,0,1,1.827,1.827v1.707a1.831,1.831,0,0,1-1.827,1.827h-3.137a.642.642,0,0,1-.646-.646v-4.05A.646.646,0,0,1,386.744,417.1Z" transform="translate(-336.137 -378.712)" fill="#fbbd80" fill-rule="evenodd"/>
      <path id="Path_874558" data-name="Path 874558" d="M386.744,417.1H388.9v5.351h-2.159a.642.642,0,0,1-.646-.646v-4.05A.644.644,0,0,1,386.744,417.1Z" transform="translate(-336.137 -378.712)" fill="#e2aa73" fill-rule="evenodd"/>
      <path id="Path_874559" data-name="Path 874559" d="M393.036,289h2.085a1.236,1.236,0,1,1,0,2.472h-2.085a1.236,1.236,0,1,1,0-2.472Z" transform="translate(-341.313 -262.43)" fill="#e1e1e1" fill-rule="evenodd"/>
      <path id="Path_874560" data-name="Path 874560" d="M210.1,468.3a1.8,1.8,0,0,1,.314.028,1.706,1.706,0,0,1,.8,1.421v2.03H208.2v-1.744A1.833,1.833,0,0,1,210.1,468.3Z" transform="translate(-174.651 -425.189)" fill="#008cca" fill-rule="evenodd"/>
      <path id="Path_874561" data-name="Path 874561" d="M127.6,426.646a.646.646,0,1,1,.646.646A.642.642,0,0,1,127.6,426.646Zm15.812,0a.646.646,0,1,1,.646.646A.642.642,0,0,1,143.412,426.646Z" transform="translate(-101.486 -386.791)" fill="#3f383e"/>
      <path id="Path_874562" data-name="Path 874562" d="M27.36,353.7a4.527,4.527,0,0,0-2.86,4.317v5.526a2.252,2.252,0,0,0,2.186,2.3H28.55v-5.655a4.527,4.527,0,0,1,2.86-4.317l1.356-.526V351.6Z" transform="translate(-7.897 -319.255)" fill="#3f383e" fill-rule="evenodd"/>
      <path id="Path_874563" data-name="Path 874563" d="M114,337.167v3.745l3.792-1.476V335.7a.386.386,0,0,0-.092.037Z" transform="translate(-89.141 -304.822)" fill="#ffaa5a" fill-rule="evenodd"/>
      <path id="Path_874564" data-name="Path 874564" d="M148.1,113.4V109h-2.371a.73.73,0,0,0-.729.729v6.633a.73.73,0,0,0,.729.729h2.435a9.152,9.152,0,0,1-.065-1.135V113.4Z" transform="translate(-117.281 -99.035)" fill="#007eb6" fill-rule="evenodd"/>
      <path id="Path_874565" data-name="Path 874565" d="M117.676,62.8h2.371V58.1h-4.373a1.583,1.583,0,0,0-1.578,1.578v9.17a18.742,18.742,0,0,0,.065,2.039,9.826,9.826,0,0,0,4.41,7.085,9.7,9.7,0,0,0,5.323,1.587,9.859,9.859,0,0,0,2.971-.461,9.854,9.854,0,0,1-6.762-8.2h-2.435a.73.73,0,0,1-.729-.729V63.534A.74.74,0,0,1,117.676,62.8Z" transform="translate(-89.228 -52.831)" fill="#c24441" fill-rule="evenodd"/>
      <path id="Path_874566" data-name="Path 874566" d="M241.952,111.768l-3.072,5.323H236.5L241.168,109h.055a.73.73,0,0,1,.729.729Z" transform="translate(-200.34 -99.035)" fill="#7ecefd"/>
      <path id="Path_874567" data-name="Path 874567" d="M199.348,109l-4.668,8.091H192.3L196.968,109Z" transform="translate(-160.217 -99.035)" fill="#7ecefd"/>
      <path id="Path_874568" data-name="Path 874568" d="M151.893,77.946a.646.646,0,1,1,1.292,0v.009a.642.642,0,0,1-.646.646A.65.65,0,0,1,151.893,77.946ZM150.187,90.87a.646.646,0,0,1,1.292,0V92.1a.646.646,0,1,1-1.292,0Zm-2.62,0a.646.646,0,1,1,1.292,0V92.1a.646.646,0,1,1-1.292,0Zm-2.62,0a.646.646,0,1,1,1.292,0V92.1a.646.646,0,1,1-1.292,0Zm-2.62,0a.646.646,0,1,1,1.292,0V92.1a.646.646,0,1,1-1.292,0Zm-2.629,0a.646.646,0,1,1,1.292,0V92.1a.646.646,0,1,1-1.292,0ZM138,77.946a.646.646,0,1,1,1.292,0v.009a.642.642,0,0,1-.646.646A.65.65,0,0,1,138,77.946Z" transform="translate(-110.927 -70.26)" fill="#454545"/>
      <g id="Group_1099520" data-name="Group 1099520" transform="translate(16.603 0.465)">
        <path id="Path_874569" data-name="Path 874569" d="M48.661,333l10.711,3.967c1.827.71,1.6,7.251,1.808,9.41a2.167,2.167,0,0,1-2.186,2.3H26.686a2.252,2.252,0,0,1-2.186-2.3V340.85a4.527,4.527,0,0,1,2.86-4.317l9.105-3.543a3.94,3.94,0,0,1,3.644.341l2.454,1.494,2.454-1.494A4.046,4.046,0,0,1,48.661,333Z" transform="translate(-24.5 -302.559)" fill="#4e454d" fill-rule="evenodd"/>
        <path id="Path_874570" data-name="Path 874570" d="M99.8,431.746h22.233V426.2a2.012,2.012,0,0,0-2-2H101.8a2.012,2.012,0,0,0-2,2Z" transform="translate(-92.853 -385.623)" fill="#ffaa5a" fill-rule="evenodd"/>
        <path id="Path_874571" data-name="Path 874571" d="M201.69,465.1a1.833,1.833,0,0,1,1.9,1.734v2.039H199.8v-2.03A1.82,1.82,0,0,1,201.69,465.1Z" transform="translate(-183.627 -422.749)" fill="#007eb6" fill-rule="evenodd"/>
        <path id="Path_874572" data-name="Path 874572" d="M402,302.3h2.657v11.366H402Z" transform="translate(-367.175 -274.968)" fill="#c24441" fill-rule="evenodd"/>
        <path id="Path_874573" data-name="Path 874573" d="M446.969,224.86l-1.218,1.061a1.879,1.879,0,0,1-2.4-.009,1.359,1.359,0,0,1-.009-2.1l.018-.018a1.879,1.879,0,0,1,2.4.009Z" transform="translate(-404.256 -203.313)" fill="#ffc263" fill-rule="evenodd"/>
        <path id="Path_874574" data-name="Path 874574" d="M162.164,333.275a6.622,6.622,0,0,1-13.164,0l.48-.185a3.941,3.941,0,0,1,3.644.341l2.454,1.495,2.454-1.495a3.967,3.967,0,0,1,3.644-.341Z" transform="translate(-137.515 -302.65)" fill="#3f383e" fill-rule="evenodd"/>
        <path id="Path_874575" data-name="Path 874575" d="M162.6,238.8h10.646v8.432a5.323,5.323,0,1,1-10.646,0Z" transform="translate(-149.86 -217.326)" fill="#fbbd80" fill-rule="evenodd"/>
        <path id="Path_874576" data-name="Path 874576" d="M109.637,428.128A2.539,2.539,0,0,1,107.1,425.6v-.793a1.965,1.965,0,0,1,1.319-.5h3.745v1.3A2.524,2.524,0,0,1,109.637,428.128Zm18.34-3.33a1.965,1.965,0,0,0-1.319-.5h-3.745v1.3a2.528,2.528,0,0,0,5.055,0v-.8Z" transform="translate(-99.48 -385.713)" fill="#e69951" fill-rule="evenodd"/>
        <path id="Path_874577" data-name="Path 874577" d="M115.9,347.065a1.9,1.9,0,0,0,1.9-1.9V335.7a.387.387,0,0,0-.092.037L114,337.167v8.008a1.9,1.9,0,0,0,1.9,1.891Z" transform="translate(-105.743 -305.287)" fill="#ffc263" fill-rule="evenodd"/>
        <path id="Path_874578" data-name="Path 874578" d="M287.3,347.065a1.9,1.9,0,0,1-1.9-1.9V335.7a.387.387,0,0,1,.092.037l3.7,1.439v8.008A1.886,1.886,0,0,1,287.3,347.065Z" transform="translate(-261.331 -305.287)" fill="#ffc263" fill-rule="evenodd"/>
        <path id="Path_874579" data-name="Path 874579" d="M93.9,21.57h23.3V10.722a2.2,2.2,0,0,0-2.2-2.2H113.9V6.487a.455.455,0,0,0-.175-.36.439.439,0,0,0-.4-.083c-4.373,1.07-9.262.627-13.875.627A2.266,2.266,0,0,0,97.24,8.517H96.1a2.2,2.2,0,0,0-2.2,2.2Z" transform="translate(-87.498 -6.029)" fill="#323e4b" fill-rule="evenodd"/>
        <path id="Path_874580" data-name="Path 874580" d="M99.647,160.39h-23.2a1.845,1.845,0,1,1,0-3.69h23.2a1.845,1.845,0,0,1,0,3.69Z" transform="translate(-69.978 -142.8)" fill="#fbbd80" fill-rule="evenodd"/>
        <path id="Path_874581" data-name="Path 874581" d="M173.246,246.368a10.743,10.743,0,0,1-10.646,0V242.3h10.646Z" transform="translate(-149.86 -220.503)" fill="#e2aa73" fill-rule="evenodd"/>
        <path id="Path_874582" data-name="Path 874582" d="M115.767,58.1h16.449a1.583,1.583,0,0,1,1.578,1.578V69.751a9.8,9.8,0,0,1-19.594,0V59.668a1.567,1.567,0,0,1,1.568-1.568Z" transform="translate(-105.924 -53.296)" fill="#d74b48" fill-rule="evenodd"/>
        <path id="Path_874583" data-name="Path 874583" d="M145.729,109h12.445a.73.73,0,0,1,.729.729v6.633a.73.73,0,0,1-.729.729H145.729a.73.73,0,0,1-.729-.729v-6.633A.724.724,0,0,1,145.729,109Z" transform="translate(-133.884 -99.501)" fill="#008cca" fill-rule="evenodd"/>
        <path id="Path_874584" data-name="Path 874584" d="M416.4,302.3h1.328v11.366H416.4Z" transform="translate(-380.246 -274.968)" fill="#d74b48" fill-rule="evenodd"/>
        <path id="Path_874585" data-name="Path 874585" d="M386.744,417.1h3.137a1.831,1.831,0,0,1,1.827,1.827v1.707a1.831,1.831,0,0,1-1.827,1.827h-3.137a.642.642,0,0,1-.646-.646v-4.05A.646.646,0,0,1,386.744,417.1Z" transform="translate(-352.739 -379.178)" fill="#fbbd80" fill-rule="evenodd"/>
        <path id="Path_874586" data-name="Path 874586" d="M386.744,417.1H388.9v5.351h-2.159a.642.642,0,0,1-.646-.646v-4.05A.644.644,0,0,1,386.744,417.1Z" transform="translate(-352.739 -379.178)" fill="#e2aa73" fill-rule="evenodd"/>
        <path id="Path_874587" data-name="Path 874587" d="M393.036,289h2.085a1.236,1.236,0,1,1,0,2.472h-2.085a1.236,1.236,0,1,1,0-2.472Z" transform="translate(-357.916 -262.895)" fill="#e1e1e1" fill-rule="evenodd"/>
        <path id="Path_874588" data-name="Path 874588" d="M210.1,468.3a1.8,1.8,0,0,1,.314.028,1.706,1.706,0,0,1,.8,1.421v2.03H208.2v-1.744A1.833,1.833,0,0,1,210.1,468.3Z" transform="translate(-191.253 -425.654)" fill="#008cca" fill-rule="evenodd"/>
        <path id="Path_874589" data-name="Path 874589" d="M27.36,353.7a4.527,4.527,0,0,0-2.86,4.317v5.526a2.252,2.252,0,0,0,2.186,2.3H28.55v-5.655a4.527,4.527,0,0,1,2.86-4.317l1.356-.526V351.6Z" transform="translate(-24.5 -319.72)" fill="#3f383e" fill-rule="evenodd"/>
        <path id="Path_874590" data-name="Path 874590" d="M114,337.167v3.745l3.792-1.476V335.7a.386.386,0,0,0-.092.037Z" transform="translate(-105.743 -305.287)" fill="#ffaa5a" fill-rule="evenodd"/>
        <path id="Path_874591" data-name="Path 874591" d="M148.1,113.4V109h-2.371a.73.73,0,0,0-.729.729v6.633a.73.73,0,0,0,.729.729h2.435a9.152,9.152,0,0,1-.065-1.135V113.4Z" transform="translate(-133.884 -99.501)" fill="#007eb6" fill-rule="evenodd"/>
        <path id="Path_874592" data-name="Path 874592" d="M117.676,62.8h2.371V58.1h-4.373a1.583,1.583,0,0,0-1.578,1.578v9.17a18.742,18.742,0,0,0,.065,2.039,9.826,9.826,0,0,0,4.41,7.085,9.7,9.7,0,0,0,5.323,1.587,9.859,9.859,0,0,0,2.971-.461,9.854,9.854,0,0,1-6.762-8.2h-2.435a.73.73,0,0,1-.729-.729V63.534A.74.74,0,0,1,117.676,62.8Z" transform="translate(-105.831 -53.296)" fill="#c24441" fill-rule="evenodd"/>
      </g>
      <path id="Path_874593" data-name="Path 874593" d="M241.952,111.768l-3.072,5.323H236.5L241.168,109h.055a.73.73,0,0,1,.729.729Z" transform="translate(-200.34 -99.035)" fill="#7ecefd"/>
      <path id="Path_874594" data-name="Path 874594" d="M199.348,109l-4.668,8.091H192.3L196.968,109Z" transform="translate(-160.217 -99.035)" fill="#7ecefd"/>
      <path id="Path_874595" data-name="Path 874595" d="M33.033,47.143H18.6a2.726,2.726,0,0,1-1.983-.867,2.99,2.99,0,0,1-.812-2.057V41.487a.554.554,0,1,1,1.107,0v2.731a1.868,1.868,0,0,0,.507,1.292,1.632,1.632,0,0,0,1.19.517h4.659V41.035a2.512,2.512,0,0,1,.461-1.458,2.728,2.728,0,0,1,.849-.775V32.622L19.49,34.6a4.078,4.078,0,0,0-1.734,1.3,4.221,4.221,0,0,0-.821,2.066.553.553,0,1,1-1.1-.138,5.275,5.275,0,0,1,1.042-2.6,5,5,0,0,1,2.214-1.661l9.364-3.644a5.013,5.013,0,0,1,.526-.175l.028-.009.037-.009V25.4a9.947,9.947,0,0,1-1.43-1.2,10.365,10.365,0,0,1-2.906-5.627H23.328a2.4,2.4,0,0,1-.618-4.723V5.158A2.772,2.772,0,0,1,25.468,2.4h.72a2.836,2.836,0,0,1,.84-1.2,2.787,2.787,0,0,1,1.79-.655c.95,0,2.057.028,3.164.046A41.316,41.316,0,0,0,42.562-.072,1.127,1.127,0,0,1,42.8-.1a1.03,1.03,0,0,1,.987.775,1.145,1.145,0,0,1,.028.249V2.4h.554a2.772,2.772,0,0,1,2.758,2.758v8.727a2.436,2.436,0,0,1,1.089.627,2.4,2.4,0,0,1-1.7,4.1H45.136a10.336,10.336,0,0,1-2.906,5.627,11.065,11.065,0,0,1-1.43,1.2v4.327c.018.009.046.009.065.018l.028.009q.249.069.5.166L50.754,33.6a2.765,2.765,0,0,1,.378.166V29.393a2.021,2.021,0,0,1-.424-.314,1.79,1.79,0,0,1,1.264-3.054h.489V22.068a.555.555,0,0,1,.554-.554H54.97a1.858,1.858,0,0,1,.415-.756c.065-.065.129-.138.2-.2a2.434,2.434,0,0,1,3.146-.009l1.209,1.061a.553.553,0,0,1,.055.775l-.055.055-1.227,1.052a2.319,2.319,0,0,1-1.559.563,2.4,2.4,0,0,1-1.568-.572,2.107,2.107,0,0,1-.2-.2A2.064,2.064,0,0,1,55,22.6H53.559v3.413h.489a1.788,1.788,0,0,1,.839,3.367v8.635a2.33,2.33,0,0,1,.775.517,2.378,2.378,0,0,1,.692,1.679v1.707a2.379,2.379,0,0,1-2.325,2.38,2.988,2.988,0,0,1-.812,1.983,2.747,2.747,0,0,1-1.993.867H33.033Zm-8.681-1.107H32.47V44.31l.009-.028v-.028l.009-.028L32.5,44.2l.009-.028.009-.028.009-.028a.034.034,0,0,1,.009-.028l.009-.028.009-.028c0-.009.009-.018.009-.028l.009-.028.009-.028.009-.028c0-.009.009-.018.009-.028a.034.034,0,0,0,.009-.028c0-.009.009-.018.009-.028l.009-.028.009-.028.009-.028.009-.028.009-.028.009-.028.009-.028.009-.028.009-.028.009-.028.009-.028.018-.028.009-.028.009-.028.018-.028.018-.028.018-.028.018-.028.018-.028.018-.028.018-.028c.009-.009.009-.018.018-.028l.018-.018.018-.028.018-.028.018-.018L33,43.111l.018-.018.018-.018.018-.028.018-.018.018-.018.018-.018.018-.018.018-.018.018-.018.018-.018L33.2,42.9l.018-.018.018-.018c.009-.009.018-.009.028-.018l.018-.018.018-.018.028-.018.018-.018.028-.018.018-.018.028-.018.028-.018.028-.018.028-.018.028-.018.028-.018.028-.018.028-.018.028-.009.028-.018.028-.009.028-.009.028-.018.028-.009.028-.009.028-.009.028-.009.028-.009.028-.009.028-.009.028-.009L34,42.438l.028-.009.028-.009.028-.009.028-.009.028-.009.028-.009.028-.009.028-.009.028-.009.028-.009.028-.009.028-.009.028-.009.028-.009.028-.009.028-.009.028-.009.028-.009.028-.009a.034.034,0,0,0,.028-.009h.028l.028-.009h.028l.028-.009h.3a2.6,2.6,0,0,1,1.651.655h.009l.009.009a2.187,2.187,0,0,1,.729,1.6V46h8.109V41.008a1.437,1.437,0,0,0-.2-.747v.046a2.454,2.454,0,0,1-4.908,0v-.747h-10.9v.747a2.454,2.454,0,0,1-4.908,0v-.046a1.469,1.469,0,0,0-.212.747v5.028Zm22.242,0h4.65a1.668,1.668,0,0,0,1.19-.517,1.9,1.9,0,0,0,.507-1.218H50.856a1.2,1.2,0,0,1-1.2-1.2v-4.05a1.184,1.184,0,0,1,.351-.849.2.2,0,0,1,.046-.037,1.2,1.2,0,0,1,.812-.314h.277V35.039a2.4,2.4,0,0,0-.258-.157,5.32,5.32,0,0,0-.517-.249l-5.074-1.974V38.84a2.439,2.439,0,0,1,.849.775,2.558,2.558,0,0,1,.461,1.458v4.963ZM40.376,38.5V32.557a5.878,5.878,0,0,1-10.9,0V38.5Zm-4.114,6.033a1.109,1.109,0,0,0-.369-.784,1.471,1.471,0,0,0-.932-.369h-.3l-.018.009h-.055l-.018.009h-.037l-.018.009-.018.009h-.018l-.018.009-.018.009-.018.009-.018.009-.018.009-.018.009-.018.009-.018.009-.018.009-.009.009-.018.009-.018.009-.018.009-.009.009-.018.009-.009.009-.018.009-.009.009-.018.009-.009.009-.018.009-.009.009-.009.009-.009.009-.018.009-.009.009-.009.009-.009.009-.009.009-.009.009-.009.009-.009.009-.009.009-.009.009L34,43.738l-.009.009-.009.009-.009.009-.009.009-.009.009-.009.009c-.009.009-.018.009-.018.018l-.009.009-.009.009c-.009.009-.009.018-.018.018l-.009.009-.009.009-.009.009-.018.018-.009.009-.009.009-.009.009-.009.009-.009.009c-.009.009-.009.018-.018.028l-.009.009c-.009.009-.009.018-.018.028l-.009.009-.009.009-.009.009-.009.009-.009.009-.009.009-.009.009-.009.009-.009.009-.009.009-.009.009-.009.009-.009.009-.009.009-.009.009-.009.018-.009.009-.009.009v.009l-.009.009-.009.018v.009l-.009.009v.009l-.009.018V45.98h2.685V44.532Zm7.924-12.306-2.7-1.052v9.179a1.332,1.332,0,0,0,.4.95,1.371,1.371,0,0,0,.95.4,1.332,1.332,0,0,0,.95-.4,1.371,1.371,0,0,0,.4-.95V32.345a.255.255,0,0,1,.009-.12ZM28.356,31.174l-2.7,1.052a.567.567,0,0,1,.009.129v8.008a1.332,1.332,0,0,0,.4.95,1.354,1.354,0,0,0,.95.4,1.332,1.332,0,0,0,.95-.4,1.371,1.371,0,0,0,.4-.95Zm25.13,12.011h.507a1.262,1.262,0,0,0,.895-.378,1.279,1.279,0,0,0,.378-.895V40.205a1.262,1.262,0,0,0-.378-.895,1.306,1.306,0,0,0-.646-.351c-.009,0-.009,0-.018-.009a1.8,1.8,0,0,0-.231-.018H50.856a.131.131,0,0,0-.055.018l-.009.009a.1.1,0,0,0-.028.065v4.05a.084.084,0,0,0,.028.065.1.1,0,0,0,.065.028h2.629Zm-11.218-3.34a.554.554,0,0,1,1.107,0v.009a.554.554,0,0,1-1.107,0Zm-15.8,0a.554.554,0,0,1,1.107,0v.009a.554.554,0,0,1-1.107,0ZM41.317,7.677a.554.554,0,0,1,1.107,0v.009a.554.554,0,1,1-1.107,0Zm-13.9,0a.554.554,0,1,1,1.107,0v.009a.554.554,0,1,1-1.107,0ZM39.61,20.62a.554.554,0,1,1,1.107,0v1.209a.554.554,0,1,1-1.107,0Zm-2.62,0a.554.554,0,1,1,1.107,0v1.209a.554.554,0,1,1-1.107,0Zm-2.62,0a.554.554,0,1,1,1.107,0v1.209a.554.554,0,1,1-1.107,0Zm-2.629,0a.554.554,0,0,1,1.107,0v1.209a.554.554,0,0,1-1.107,0Zm-2.62,0a.554.554,0,0,1,1.107,0v1.209a.554.554,0,0,1-1.107,0ZM53.79,29.587H52.24v8.247h1.55Zm.268-2.463H51.972a.693.693,0,0,0-.683.683.654.654,0,0,0,.2.48.661.661,0,0,0,.314.175c.009,0,.009,0,.018.009a.717.717,0,0,0,.148.018h2.085a.717.717,0,0,0,.148-.018c.009,0,.009,0,.018-.009a.661.661,0,0,0,.314-.175.71.71,0,0,0,.2-.48.654.654,0,0,0-.2-.48A.67.67,0,0,0,54.057,27.124ZM28.7,9.411H41.142a1.291,1.291,0,0,1,1.282,1.282v6.633a1.291,1.291,0,0,1-1.282,1.282H28.7a1.291,1.291,0,0,1-1.282-1.282V10.694a1.284,1.284,0,0,1,.378-.9A1.246,1.246,0,0,1,28.7,9.411Zm12.445,1.107H28.7a.175.175,0,0,0-.12.046.183.183,0,0,0-.055.12v6.633a.149.149,0,0,0,.055.12.175.175,0,0,0,.12.046H41.142a.158.158,0,0,0,.166-.166V10.684a.158.158,0,0,0-.166-.166Zm-6.218-4.7a.554.554,0,0,1,0-1.107h8.22a2.126,2.126,0,0,1,2.122,2.131v6.965h.747V5.158a1.638,1.638,0,0,0-1.642-1.642H43.264a.555.555,0,0,1-.554-.554V1.035A42.486,42.486,0,0,1,31.953,1.7c-1.006-.018-2.011-.037-3.146-.037a1.7,1.7,0,0,0-1.661,1.393.546.546,0,0,1-.544.452H25.459a1.646,1.646,0,0,0-1.162.48,1.608,1.608,0,0,0-.48,1.162V13.8h.747V6.837A2.142,2.142,0,0,1,26.7,4.706h4.659a.554.554,0,0,1,0,1.107H26.7A1.008,1.008,0,0,0,25.68,6.828V16.9a9.736,9.736,0,0,0,.055,1.042c0,.018.009.037.009.055a9.231,9.231,0,0,0,2.648,5.434,9.346,9.346,0,0,0,1.485,1.209c.009.009.028.018.037.028a9.19,9.19,0,0,0,10.019,0c.009-.009.028-.018.037-.028a9.346,9.346,0,0,0,1.485-1.209A9.231,9.231,0,0,0,44.1,18a.117.117,0,0,1,.009-.055,9.736,9.736,0,0,0,.055-1.042V6.837a.989.989,0,0,0-.3-.72,1.019,1.019,0,0,0-.72-.3Zm10.351,9.1v2c0,.194-.009.387-.018.581H46.52a1.323,1.323,0,0,0,.913-.378,1.252,1.252,0,0,0,.378-.913,1.292,1.292,0,0,0-1.255-1.292H45.275ZM39.693,26.1a10.294,10.294,0,0,1-9.539,0v4.271a4.769,4.769,0,0,0,9.539,0ZM24.582,17.5c-.009-.194-.018-.387-.018-.581v-2H23.272a1.294,1.294,0,0,0-1.236,1.292,1.323,1.323,0,0,0,.378.913,1.252,1.252,0,0,0,.913.378ZM58,22.659,58.744,22l-.729-.637a1.271,1.271,0,0,0-.84-.3,1.257,1.257,0,0,0-.849.314.87.87,0,0,0-.092.092.78.78,0,0,0,.009,1.079l.092.092a1.271,1.271,0,0,0,.84.3A1.24,1.24,0,0,0,58,22.659Z"/>
    </g>
  </g>
</svg>
